<?xml version="1.0" encoding="UTF-8" standalone="no"?>
<svg
   xmlns:dc="http://purl.org/dc/elements/1.1/"
   xmlns:cc="http://creativecommons.org/ns#"
   xmlns:rdf="http://www.w3.org/1999/02/22-rdf-syntax-ns#"
   xmlns:svg="http://www.w3.org/2000/svg"
   xmlns="http://www.w3.org/2000/svg"
   xmlns:sodipodi="http://sodipodi.sourceforge.net/DTD/sodipodi-0.dtd"
   xmlns:inkscape="http://www.inkscape.org/namespaces/inkscape"
   version="1.1"
   x="0px"
   y="0px"
   viewBox="0 0 89.502861 87.225624"
   enable-background="new 0 0 100 100"
   xml:space="preserve"
   id="svg2"
   inkscape:version="0.91 r13725"
   sodipodi:docname="pipebuild.svg"
   width="89.502861"
   height="87.225624"><metadata
     id="metadata48"><rdf:RDF><cc:Work
         rdf:about=""><dc:format>image/svg+xml</dc:format><dc:type
           rdf:resource="http://purl.org/dc/dcmitype/StillImage" /><dc:title></dc:title></cc:Work></rdf:RDF></metadata><defs
     id="defs46" /><sodipodi:namedview
     pagecolor="#ffffff"
     bordercolor="#666666"
     borderopacity="1"
     objecttolerance="10"
     gridtolerance="10"
     guidetolerance="10"
     inkscape:pageopacity="0"
     inkscape:pageshadow="2"
     inkscape:window-width="1920"
     inkscape:window-height="1016"
     id="namedview44"
     showgrid="false"
     fit-margin-top="0"
     fit-margin-left="0"
     fit-margin-right="0"
     fit-margin-bottom="0"
     inkscape:zoom="1.888"
     inkscape:cx="46.086183"
     inkscape:cy="30.880008"
     inkscape:window-x="0"
     inkscape:window-y="27"
     inkscape:window-maximized="1"
     inkscape:current-layer="svg2" /><path
     d="m 10.649861,66.314618 c 1.133,0 2.267,0.023 3.399,-0.007 1.46,-0.037 2.645,-0.64 3.686,-1.688 5.708,-5.746 11.452,-11.456 17.177,-17.183 1.249,-1.249 2.475,-2.521 3.966,-4.041 -3.66,-3.545 -7.232,-6.974 -10.768,-10.44 -2.675,-2.622 -5.351,-5.247 -7.935,-7.957 -1.354,-1.42 -2.921,-2.106 -4.837,-2.115 -1.084,-0.005 -2.169,-10e-4 -3.254,-0.115 5.6,-2.692 8.406,-7.537 10.557,-13.1419998 0.104,1.0429998 0.167,1.9359998 0.288,2.8209998 0.188,1.377 0.706,2.606 1.709,3.608 6.765,6.757 13.525,13.519 20.289,20.278 0.147,0.147 0.312,0.278 0.705,0.622 0.971,-1.06 1.892,-2.141 2.892,-3.144 6.275,-6.288 12.556,-12.571 18.864,-18.825 1.285,-1.274 2.008,-2.742 2.114,-4.535 0.028,-0.4579998 0.089,-0.9149998 0.162,-1.6389998 1.997,4.9969998 4.488,9.2899998 9.471,11.7009998 -0.778,0 -1.557,0.014 -2.334,-0.002 -1.924,-0.043 -3.472,0.631 -4.857,2.034 -6.339,6.425 -12.749,12.781 -19.128,19.167 -0.397,0.398 -0.749,0.842 -1.164,1.313 9.579,9.575 19.152,19.145 28.881,28.869 -3.695,0.887 -5.94,3.013 -6.694,6.542 -9.612,-9.593 -19.19,-19.154 -28.854,-28.803 -0.396,0.364 -0.654,0.585 -0.894,0.825 -7.116,7.113 -14.204,14.253 -21.368,21.317 -1.554,1.532 -2.371,3.251 -2.455,5.38 -0.011,0.283 -0.04,0.565 -0.083,1.155 -2.065,-5.062 -4.552,-9.446 -9.57,-11.708 0.011,-0.097 0.023,-0.193 0.035,-0.288 z"
     id="path4"
     inkscape:connector-curvature="0"
     style="clip-rule:evenodd;fill-rule:evenodd;fill:#ffffff" /><path
     d="m 5.6398608,1.3296182 c 0.534,-0.23 0.84,-0.40400001 1.169,-0.49600001 2.994,-0.832 6.0370002,-1.1 9.1010002,-0.534 4.3,0.79400001 6.51,3.71900001 5.912,8.05400001 -0.717,5.2029998 -3.303,9.3789998 -7.622,12.3689998 -3.241,2.243 -6.2340002,1.811 -8.8680002,-1.097 -2.122,-2.343 -3.661,-5.05 -4.76199998,-8.134 0.294,0.123 0.59999998,0.225 0.87899998,0.374 1.73,0.921 3.476,1.815 5.172,2.797 0.938,0.544 1.76,0.466 2.578,-0.144 2.2710002,-1.695 3.7770002,-3.862 4.0440002,-6.7519998 0.129,-1.395 -0.305,-2.485 -1.673,-3.152 -1.6320002,-0.795 -3.2130002,-1.698 -4.8100002,-2.564 -0.324,-0.176 -0.625,-0.399 -1.12,-0.721 z"
     id="path6"
     inkscape:connector-curvature="0"
     style="clip-rule:evenodd;fill-rule:evenodd;fill:#ffffff" /><path
     d="m 4.6058608,85.950618 c 1.514,-0.822 2.752,-1.598 4.073,-2.19 3.0560002,-1.372 3.8500002,-2.379 1.9990002,-6.526 -0.55,-1.231 -1.7730002,-2.192 -2.7850002,-3.178 -0.67,-0.654 -1.497,-0.653 -2.365,-0.153 -1.606,0.926 -3.259,1.771 -4.89599998,2.644 -0.174,0.094 -0.368,0.15 -0.597,0.241 -0.013,-0.186 -0.057,-0.303 -0.021,-0.385 1.33299998,-3.027 2.93499998,-5.887 5.48699998,-8.07 1.772,-1.516 3.805,-1.561 5.8150002,-0.567 3.588,1.771 5.722,4.845 7.189,8.437 0.852,2.084 1.248,4.236 0.615,6.481 -0.594,2.108 -1.923,3.469 -4.042,4.01 -3.157,0.807 -6.2960002,0.6 -9.4130002,-0.251 -0.262,-0.073 -0.501,-0.231 -1.059,-0.493 z"
     id="path8"
     inkscape:connector-curvature="0"
     style="clip-rule:evenodd;fill-rule:evenodd;fill:#ffffff" /><path
     d="m 84.838861,1.2976182 c -0.449,0.271 -0.763,0.477 -1.092,0.655 -1.41,0.764 -2.809,1.552 -4.243,2.267 -1.085,0.54 -1.476,1.44 -1.4,2.541 0.188,2.756 1.596,4.8179998 3.816,6.3699998 0.684,0.478 1.372,0.429 2.105,0.02 1.766,-0.985 3.559,-1.923 5.478,-2.954 -0.028,0.324 0.012,0.516 -0.063,0.636 -1.435,2.285 -2.69,4.716 -4.377,6.8 -2.138,2.642 -4.883,2.91 -7.708,0.982 -3.977,-2.714 -6.326,-6.53 -6.925,-11.3109998 -0.463,-3.699 1.53,-6.3 5.199,-6.98200001 2.743,-0.51 5.467,-0.301 8.153,0.428 0.205,0.056 0.406,0.135 0.602,0.22 0.093,0.038 0.169,0.11700001 0.455,0.32800001 z"
     id="path10"
     inkscape:connector-curvature="0"
     style="clip-rule:evenodd;fill-rule:evenodd;fill:#ffffff" /><path
     d="m 74.089861,79.654618 c 0.014,-4.136 3.371,-7.448 7.524,-7.424 4.147,0.025 7.461,3.36 7.457,7.509 -0.004,4.128 -3.357,7.479 -7.489,7.486 -4.191,0.006 -7.504,-3.343 -7.492,-7.571 z m 1.064,0.026 c -0.013,3.54 2.831,6.45 6.322,6.473 3.596,0.021 6.513,-2.829 6.535,-6.387 0.022,-3.552 -2.897,-6.48 -6.453,-6.472 -3.538,0.008 -6.391,2.855 -6.404,6.386 z"
     id="path12"
     inkscape:connector-curvature="0"
     style="clip-rule:evenodd;fill-rule:evenodd;fill:#ffffff" /><g
     id="g14"
     transform="translate(-4.9731392,-6.1543818)"
     style="fill:#ffffff"><path
       d="m 82.753,82.218 -0.679,-0.413 c -0.439,0.475 -0.809,1.014 -1.08,1.609 l 0.676,0.411 c 0.262,-0.601 0.63,-1.145 1.083,-1.607 z"
       id="path16"
       inkscape:connector-curvature="0"
       style="clip-rule:evenodd;fill-rule:evenodd;fill:#ffffff" /><path
       d="m 81.228,85.943 c 0,-0.432 0.065,-0.846 0.162,-1.247 l -0.825,0 c -0.079,0.389 -0.124,0.79 -0.125,1.201 -0.001,0.249 0.018,0.495 0.045,0.737 l 0.812,0 c -0.029,-0.228 -0.069,-0.453 -0.069,-0.691 z"
       id="path18"
       inkscape:connector-curvature="0"
       style="clip-rule:evenodd;fill-rule:evenodd;fill:#ffffff" /><path
       d="m 85.016,80.867 -0.387,-0.703 c -0.624,0.208 -1.202,0.504 -1.719,0.891 l 0.386,0.701 c 0.509,-0.397 1.088,-0.696 1.72,-0.889 z"
       id="path20"
       inkscape:connector-curvature="0"
       style="clip-rule:evenodd;fill-rule:evenodd;fill:#ffffff" /><path
       d="m 91.519,84.038 0.702,-0.387 C 91.978,83.056 91.615,82.512 91.187,82.01 L 90.5,82.389 c 0.434,0.48 0.782,1.034 1.019,1.649 z"
       id="path22"
       inkscape:connector-curvature="0"
       style="clip-rule:evenodd;fill-rule:evenodd;fill:#ffffff" /><path
       d="m 89.984,81.895 0.403,-0.663 c -0.51,-0.417 -1.062,-0.758 -1.665,-0.988 l -0.419,0.688 c 0.624,0.217 1.187,0.545 1.681,0.963 z"
       id="path24"
       inkscape:connector-curvature="0"
       style="clip-rule:evenodd;fill-rule:evenodd;fill:#ffffff" /><path
       d="m 86.556,80.614 c 0.331,0 0.652,0.04 0.967,0.098 l 0,-0.79 c -0.616,-0.141 -1.366,-0.109 -1.938,0.001 l 0,0.789 c 0.315,-0.058 0.638,-0.098 0.971,-0.098 z"
       id="path26"
       inkscape:connector-curvature="0"
       style="clip-rule:evenodd;fill-rule:evenodd;fill:#ffffff" /><path
       d="m 81.446,87.373 -0.723,0.397 c 0.196,0.629 0.492,1.211 0.865,1.734 l 0.708,-0.39 c -0.386,-0.515 -0.671,-1.103 -0.85,-1.741 z"
       id="path28"
       inkscape:connector-curvature="0"
       style="clip-rule:evenodd;fill-rule:evenodd;fill:#ffffff" /><path
       d="m 92.535,84.698 -0.812,0 c 0.097,0.401 0.161,0.814 0.161,1.245 0,0.237 -0.04,0.463 -0.069,0.691 l 0.815,0 c 0.024,-0.215 0.04,-0.432 0.041,-0.651 0.003,-0.437 -0.048,-0.866 -0.136,-1.285 z"
       id="path30"
       inkscape:connector-curvature="0"
       style="clip-rule:evenodd;fill-rule:evenodd;fill:#ffffff" /><path
       d="m 90.662,89.302 0.676,0.412 c 0.404,-0.505 0.728,-1.073 0.954,-1.687 l -0.697,-0.425 c -0.207,0.628 -0.523,1.2 -0.933,1.7 z"
       id="path32"
       inkscape:connector-curvature="0"
       style="clip-rule:evenodd;fill-rule:evenodd;fill:#ffffff" /><path
       d="m 86.556,91.272 c -0.333,0 -0.655,-0.04 -0.971,-0.098 l 0,0.809 c 0.281,0.043 0.565,0.073 0.858,0.075 0.369,0 0.729,-0.037 1.079,-0.098 l 0,-0.786 c -0.314,0.058 -0.635,0.098 -0.966,0.098 z"
       id="path34"
       inkscape:connector-curvature="0"
       style="clip-rule:evenodd;fill-rule:evenodd;fill:#ffffff" /><path
       d="m 82.899,89.804 -0.425,0.698 c 0.481,0.434 1.025,0.796 1.624,1.058 l 0.423,-0.693 c -0.607,-0.253 -1.152,-0.618 -1.622,-1.063 z"
       id="path36"
       inkscape:connector-curvature="0"
       style="clip-rule:evenodd;fill-rule:evenodd;fill:#ffffff" /><path
       d="m 88.352,90.94 0.378,0.687 c 0.612,-0.237 1.179,-0.563 1.677,-0.968 l -0.385,-0.698 c -0.49,0.423 -1.05,0.756 -1.67,0.979 z"
       id="path38"
       inkscape:connector-curvature="0"
       style="clip-rule:evenodd;fill-rule:evenodd;fill:#ffffff" /></g></svg>