<?xml version="1.0" encoding="UTF-8" standalone="no"?>
<svg
   xmlns:dc="http://purl.org/dc/elements/1.1/"
   xmlns:cc="http://creativecommons.org/ns#"
   xmlns:rdf="http://www.w3.org/1999/02/22-rdf-syntax-ns#"
   xmlns:svg="http://www.w3.org/2000/svg"
   xmlns="http://www.w3.org/2000/svg"
   xmlns:sodipodi="http://sodipodi.sourceforge.net/DTD/sodipodi-0.dtd"
   xmlns:inkscape="http://www.inkscape.org/namespaces/inkscape"
   viewBox="0 0 136.35483 35.9"
   version="1.1"
   id="svg50"
   sodipodi:docname="scalingo-logo.svg"
   inkscape:version="0.92.2 (5c3e80d, 2017-08-06)">
  <metadata
     id="metadata56">
    <rdf:RDF>
      <cc:Work
         rdf:about="">
        <dc:format>image/svg+xml</dc:format>
        <dc:type
           rdf:resource="http://purl.org/dc/dcmitype/StillImage" />
        <dc:title></dc:title>
      </cc:Work>
    </rdf:RDF>
  </metadata>
  <defs
     id="defs54" />
  <sodipodi:namedview
     pagecolor="#ffffff"
     bordercolor="#666666"
     borderopacity="1"
     objecttolerance="10"
     gridtolerance="10"
     guidetolerance="10"
     inkscape:pageopacity="0"
     inkscape:pageshadow="2"
     inkscape:window-width="2063"
     inkscape:window-height="1087"
     id="namedview52"
     showgrid="false"
     fit-margin-top="0"
     fit-margin-left="0"
     fit-margin-right="0"
     fit-margin-bottom="0"
     inkscape:zoom="6.1530566"
     inkscape:cx="61.963925"
     inkscape:cy="18.275041"
     inkscape:window-x="0"
     inkscape:window-y="55"
     inkscape:window-maximized="0"
     inkscape:current-layer="svg50" />
  <g
     id="g6"
     style="fill:#010202"
     transform="translate(8.3807992e-5)">
    <path
       d="m 13.564,21.5 c 0.2,-1.1 0.1,-2 -0.5,-2.6 -0.5,-0.6 -1.6,-1.2 -3.2,-1.9 -2.6,-0.9 -4.6,-2 -5.8,-3.3 -1.2,-1.3 -1.6,-3 -1.2,-5.1 0.4,-2.1 1.5,-3.7 3.2,-4.8 1.7,-1.1 3.8,-1.7 6.2,-1.7 2.6,0 4.6,0.7 6,2.1 1.4,1.4 1.9,3.2 1.4,5.6 l -0.1,0.1 h -4.8 c 0.2,-1.2 0,-2.1 -0.6,-2.8 -0.6,-0.7 -1.5,-1.1 -2.7,-1.1 -0.8,0 -1.6,0.2 -2.3,0.7 -0.7,0.5 -1.1,1.1 -1.3,1.8 -0.2,1.1 -0.1,1.9 0.5,2.5 0.6,0.5 1.8,1.2 3.8,1.9 2.5,0.9 4.3,2 5.4,3.3 1.1,1.3 1.4,3 1,5.2 -0.4,2.2 -1.5,3.8 -3.2,4.9 -1.7,1.1 -3.8,1.6 -6.2,1.6 -2.5,0 -4.6,-0.6 -6.4,-1.9 -1.7,-1.3 -2.3,-3.2 -1.7,-5.8 v -0.1 h 4.8 c -0.3,1.5 0,2.5 0.8,3.1 0.8,0.6 1.9,0.8 3.2,0.8 0.8,0 1.6,-0.2 2.4,-0.7 0.7,-0.4 1.1,-1.1 1.3,-1.8 z"
       id="path2"
       inkscape:connector-curvature="0" />
    <path
       d="m 9.064,28.7 c -2.7,0 -5,-0.7 -6.8,-2 -2,-1.4 -2.7,-3.6 -2,-6.6 l 0.2,-0.7 h 6.3 l -0.2,0.9 c -0.3,1.7 0.3,2.1 0.5,2.3 0.7,0.5 1.6,0.7 2.8,0.7 0.7,0 1.3,-0.2 1.9,-0.6 0.6,-0.4 0.9,-0.8 1,-1.4 0.2,-0.9 0.1,-1.5 -0.3,-1.9 -0.3,-0.3 -1.1,-0.9 -3,-1.7 -2.7,-0.9 -4.7,-2.1 -6,-3.5 -1.4,-1.5 -1.8,-3.4 -1.4,-5.8 0.5,-2.3 1.6,-4 3.5,-5.3 1.8,-1.2 4,-1.8 6.6,-1.8 2.7,0 4.9,0.8 6.5,2.3 1.6,1.6 2.2,3.7 1.6,6.3 l -0.1,0.3 -0.1,0.5 h -6.2 l 0.2,-0.9 c 0.2,-1 0.1,-1.7 -0.4,-2.2 -0.5,-0.5 -1.2,-0.8 -2.2,-0.8 -0.7,0 -1.3,0.2 -1.9,0.6 -0.6,0.4 -0.9,0.8 -1,1.4 -0.3,1.3 0.2,1.6 0.3,1.7 0.3,0.3 1.2,0.9 3.6,1.8 2.6,0.9 4.5,2.1 5.7,3.5 1.3,1.5 1.6,3.4 1.2,5.9 -0.5,2.4 -1.7,4.2 -3.5,5.4 -1.9,1 -4.2,1.6 -6.8,1.6 z m -7.4,-7.8 c -0.4,2 0.1,3.5 1.5,4.5 1.6,1.2 3.6,1.7 5.9,1.7 2.3,0 4.3,-0.5 5.8,-1.5 1.5,-1 2.5,-2.4 2.9,-4.4 0.4,-2 0.1,-3.5 -0.8,-4.6 -1,-1.2 -2.7,-2.2 -5,-3 -2.1,-0.8 -3.4,-1.5 -4,-2.1 -0.8,-0.7 -1,-1.8 -0.7,-3.2 0.2,-0.9 0.7,-1.7 1.6,-2.3 0.8,-0.6 1.8,-0.9 2.7,-0.9 1.4,0 2.6,0.4 3.3,1.3 0.6,0.7 0.9,1.6 0.8,2.6 h 3.4 c 0.3,-1.9 -0.1,-3.3 -1.3,-4.4 -1.3,-1.2 -3.1,-1.9 -5.5,-1.9 -2.2,0 -4.2,0.5 -5.8,1.6 -1.5,1 -2.5,2.4 -2.9,4.3 -0.4,1.9 -0.1,3.3 1,4.4 1.1,1.2 3,2.3 5.5,3.1 1.8,0.7 2.9,1.4 3.5,2.1 0.7,0.8 0.9,1.8 0.7,3.2 -0.2,1 -0.8,1.7 -1.7,2.3 -0.9,0.6 -1.8,0.9 -2.8,0.9 -1.4,0 -2.7,-0.3 -3.6,-1 -0.6,-0.4 -1.3,-1.3 -1.2,-2.9 h -3.3 z"
       id="path4"
       inkscape:connector-curvature="0" />
  </g>
  <g
     id="g12"
     style="fill:#010202"
     transform="translate(8.3807992e-5)">
    <path
       d="m 29.164,24.1 c 0.8,0 1.4,-0.3 2,-0.8 0.5,-0.5 0.9,-1.2 1,-2.1 h 4.5 v 0.1 c -0.3,2 -1.2,3.6 -2.7,4.8 -1.5,1.2 -3.4,1.8 -5.4,1.8 -2.5,0 -4.4,-0.9 -5.5,-2.7 -1.2,-1.8 -1.5,-4 -1.1,-6.7 l 0.1,-0.5 c 0.4,-2.8 1.5,-5.1 3.2,-6.8 1.7,-1.7 3.8,-2.6 6.4,-2.6 2.1,0 3.7,0.7 4.8,2 1.1,1.3 1.5,3 1.1,5.2 v 0.1 h -4.5 c 0.2,-1 0.1,-1.8 -0.3,-2.4 -0.3,-0.6 -0.9,-0.9 -1.8,-0.9 -1.1,0 -2,0.5 -2.7,1.6 -0.7,1 -1.1,2.4 -1.4,4 l -0.1,0.5 c -0.3,1.7 -0.3,3.1 0,4.1 0.4,0.8 1.2,1.3 2.4,1.3 z"
       id="path8"
       inkscape:connector-curvature="0" />
    <path
       d="m 28.564,28.7 c -2.8,0 -4.8,-1 -6.2,-3 -1.3,-1.9 -1.7,-4.4 -1.2,-7.3 l 0.1,-0.5 c 0.5,-3 1.6,-5.4 3.4,-7.2 1.8,-1.9 4.2,-2.8 7,-2.8 2.3,0 4.1,0.8 5.4,2.2 1.3,1.5 1.7,3.4 1.3,5.8 V 16 l -0.3,0.5 -0.5,0.1 h -5.4 l 0.1,-0.9 c 0.1,-0.8 0.1,-1.5 -0.2,-1.9 -0.1,-0.3 -0.4,-0.5 -1.1,-0.5 -0.9,0 -1.5,0.4 -2,1.2 -0.6,1 -1,2.2 -1.3,3.7 l -0.1,0.5 c -0.3,1.6 -0.3,2.9 0,3.7 0.1,0.5 0.4,0.9 1.5,0.9 0.6,0 1.1,-0.2 1.5,-0.6 0.4,-0.4 0.7,-1 0.8,-1.7 l 0.1,-0.6 h 5.7 l 0.3,0.8 v 0.2 c -0.3,2.2 -1.3,3.9 -3,5.3 -1.7,1.3 -3.7,2 -5.9,2 z m 3,-19.3 c -2.4,0 -4.4,0.8 -5.9,2.4 -1.6,1.6 -2.6,3.8 -3,6.4 l -0.1,0.5 c -0.4,2.5 -0.1,4.6 1,6.2 1,1.6 2.6,2.3 4.9,2.3 1.9,0 3.5,-0.5 5,-1.7 1.2,-1 2,-2.1 2.3,-3.6 h -3.1 c -0.2,0.7 -0.6,1.4 -1.1,1.9 -0.7,0.7 -1.5,1 -2.5,1 -1.5,0 -2.6,-0.7 -3,-2 -0.3,-1.1 -0.4,-2.5 -0.1,-4.4 l 0.1,-0.5 c 0.3,-1.7 0.8,-3.1 1.5,-4.2 0.8,-1.3 1.9,-1.9 3.3,-1.9 1.4,0 2.1,0.7 2.4,1.3 0.3,0.6 0.5,1.2 0.4,2 h 3.1 c 0.2,-1.6 -0.1,-3 -1,-4 -0.9,-1.2 -2.3,-1.7 -4.2,-1.7 z"
       id="path10"
       inkscape:connector-curvature="0" />
  </g>
  <g
     id="g18"
     style="fill:#010202"
     transform="translate(8.3807992e-5)">
    <path
       d="m 49.264,27.6 c -0.1,-0.3 -0.1,-0.7 -0.2,-1.1 0,-0.4 -0.1,-0.7 -0.1,-1.1 -0.7,0.8 -1.4,1.4 -2.3,1.8 -0.8,0.5 -1.8,0.7 -2.7,0.7 -1.6,0 -2.8,-0.5 -3.7,-1.5 -0.9,-1 -1.1,-2.4 -0.8,-4.1 0.4,-1.9 1.3,-3.4 2.8,-4.3 1.5,-0.9 3.5,-1.4 6,-1.4 h 2.2 l 0.3,-1.5 c 0.2,-1 0.1,-1.7 -0.2,-2.1 -0.3,-0.5 -0.8,-0.7 -1.7,-0.7 -0.7,0 -1.2,0.2 -1.7,0.6 -0.5,0.4 -0.8,0.9 -0.9,1.6 h -4.8 v -0.1 c 0.3,-1.7 1.2,-3.1 2.8,-4.2 1.6,-1.1 3.5,-1.6 5.7,-1.6 2,0 3.5,0.6 4.7,1.7 1.1,1.1 1.5,2.7 1.1,4.8 l -1.5,7.7 c -0.2,0.9 -0.3,1.8 -0.3,2.5 0,0.7 0,1.5 0.2,2.2 h -4.9 z m -3.1,-3.4 c 0.6,0 1.2,-0.2 1.8,-0.5 0.6,-0.3 1.1,-0.7 1.5,-1.2 l 0.6,-3.2 h -2.2 c -0.8,0 -1.6,0.3 -2.2,0.8 -0.6,0.5 -1,1.2 -1.1,1.9 -0.1,0.7 -0.1,1.2 0.2,1.5 0.3,0.6 0.8,0.7 1.4,0.7 z"
       id="path14"
       inkscape:connector-curvature="0" />
    <path
       d="m 44.064,28.7 c -1.8,0 -3.2,-0.6 -4.2,-1.8 -1,-1.2 -1.3,-2.8 -0.9,-4.7 0.4,-2.1 1.5,-3.8 3.1,-4.8 1.6,-1 3.7,-1.5 6.5,-1.5 h 1.5 l 0.2,-0.9 c 0.2,-1 0,-1.4 -0.1,-1.6 -0.1,-0.2 -0.5,-0.4 -1,-0.4 -0.5,0 -0.9,0.1 -1.2,0.4 -0.3,0.3 -0.6,0.7 -0.7,1.2 l -0.1,0.6 h -5.9 l -0.3,-0.8 v -0.2 c 0.3,-1.9 1.3,-3.5 3.1,-4.7 1.7,-1.2 3.8,-1.8 6.2,-1.8 2.2,0 3.9,0.7 5.2,1.9 1.3,1.3 1.8,3.2 1.3,5.5 l -1.6,7.7 c -0.2,0.9 -0.3,1.7 -0.3,2.4 0,0.7 0,1.4 0.2,2.1 l 0.1,0.9 h -6.5 l -0.1,-0.6 c 0,-0.2 -0.1,-0.5 -0.1,-0.7 -0.4,0.3 -0.8,0.6 -1.3,0.9 -1,0.6 -2,0.9 -3.1,0.9 z m 4.4,-11.4 c -2.4,0 -4.3,0.4 -5.6,1.3 -1.3,0.8 -2.1,2.1 -2.4,3.8 -0.4,1.5 -0.2,2.7 0.5,3.5 0.7,0.9 1.7,1.3 3.1,1.3 0.9,0 1.6,-0.2 2.4,-0.6 0.8,-0.4 1.5,-1 2.1,-1.7 l 1.3,-1.5 v 3.4 h 3.5 c -0.1,-0.5 -0.1,-1 -0.1,-1.5 0,-0.8 0.1,-1.7 0.3,-2.6 l 1.5,-7.7 c 0.4,-1.8 0.1,-3.2 -0.9,-4.1 -1,-1 -2.4,-1.5 -4.1,-1.5 -2.1,0 -3.9,0.5 -5.3,1.5 -1.2,0.8 -1.9,1.8 -2.3,2.9 h 3.3 c 0.2,-0.6 0.5,-1.1 1,-1.5 0.6,-0.5 1.4,-0.8 2.2,-0.8 1.1,0 1.8,0.4 2.3,1 0.4,0.6 0.5,1.5 0.3,2.7 l -0.4,2.1 z m -2.3,7.7 c -0.9,0 -1.5,-0.3 -2,-0.8 -0.4,-0.5 -0.5,-1.3 -0.3,-2.1 0.2,-0.9 0.6,-1.7 1.3,-2.3 0.7,-0.7 1.6,-1 2.7,-1 h 3.2 l -0.9,4.1 -0.1,0.2 c -0.5,0.5 -1,1 -1.7,1.4 -0.8,0.3 -1.5,0.5 -2.2,0.5 z m 1.7,-4.8 c -0.7,0 -1.2,0.2 -1.7,0.6 -0.5,0.4 -0.8,0.9 -0.9,1.5 -0.1,0.3 -0.1,0.7 0.1,0.9 0.1,0.2 0.4,0.2 0.8,0.2 0.5,0 1,-0.1 1.5,-0.4 0.5,-0.2 0.8,-0.5 1.2,-0.9 l 0.4,-2.1 h -1.4 z"
       id="path16"
       inkscape:connector-curvature="0" />
  </g>
  <g
     id="g24"
     style="fill:#010202"
     transform="translate(8.3807992e-5)">
    <path
       d="m 63.264,27.6 h -5 l 5.4,-26.9 h 5 z"
       id="path20"
       inkscape:connector-curvature="0" />
    <path
       d="m 63.864,28.3 h -6.5 L 63.064,0 h 6.5 z m -4.7,-1.5 h 3.4 l 5.1,-25.4 h -3.4 z"
       id="path22"
       inkscape:connector-curvature="0" />
  </g>
  <g
     id="g30"
     style="fill:#010202"
     transform="translate(8.3807992e-5)">
    <path
       d="m 73.364,27.6 h -5 L 72.064,9 h 5 z m 4.6,-23.1 h -5 l 0.8,-3.8 h 5 z"
       id="path26"
       inkscape:connector-curvature="0" />
    <path
       d="m 73.964,28.3 h -6.5 l 4,-20.1 h 6.5 z m -4.6,-1.5 h 3.4 l 3.4,-17.1 h -3.4 z m 9.3,-21.5 h -6.5 l 1.1,-5.3 h 6.5 z m -4.7,-1.5 h 3.4 l 0.5,-2.3 h -3.4 z"
       id="path28"
       inkscape:connector-curvature="0" />
  </g>
  <g
     id="g36"
     style="fill:#010202"
     transform="translate(8.3807992e-5)">
    <path
       d="m 86.264,11.4 c 0.7,-0.9 1.6,-1.6 2.5,-2.1 0.9,-0.5 1.9,-0.7 2.9,-0.7 1.6,0 2.9,0.6 3.7,1.8 0.8,1.2 0.9,3 0.4,5.5 l -2.3,11.6 h -5 l 2.3,-11.6 c 0.3,-1.3 0.2,-2.2 -0.1,-2.7 -0.3,-0.5 -1,-0.7 -1.9,-0.7 -0.5,0 -1.1,0.1 -1.6,0.4 -0.5,0.3 -1,0.7 -1.4,1.1 l -2.7,13.5 h -5 l 3.7,-18.6 h 4.6 z"
       id="path32"
       inkscape:connector-curvature="0" />
    <path
       d="m 94.164,28.3 h -6.5 l 2.5,-12.5 c 0.3,-1.6 0.1,-2.1 0,-2.2 -0.2,-0.3 -0.8,-0.4 -1.3,-0.4 -0.4,0 -0.8,0.1 -1.2,0.3 -0.4,0.2 -0.7,0.5 -1.1,0.8 l -2.8,13.9 h -6.5 l 4,-20.1 h 6.1 l -0.1,1.2 c 0.4,-0.3 0.8,-0.5 1.2,-0.7 1,-0.5 2.1,-0.8 3.3,-0.8 1.9,0 3.3,0.7 4.3,2.1 0.9,1.4 1.1,3.4 0.6,6.1 z m -4.7,-1.5 h 3.4 l 2.2,-11 c 0.5,-2.3 0.3,-4 -0.3,-5 -0.7,-1 -1.6,-1.5 -3,-1.5 -0.9,0 -1.8,0.2 -2.6,0.6 -0.8,0.4 -1.6,1.1 -2.3,1.9 l -0.8,1 0.9,-0.6 c 0.6,-0.3 1.3,-0.5 1.9,-0.5 1.2,0 2,0.4 2.5,1.1 0.5,0.7 0.5,1.7 0.2,3.3 z m -10.3,0 h 3.4 l 2.7,-13.2 0.5,-3.9 h -3.2 z"
       id="path34"
       inkscape:connector-curvature="0" />
  </g>
  <g
     id="g42"
     style="fill:#45b0e5"
     transform="translate(8.3807992e-5)">
    <path
       d="m 99.264,18.1 c 0.6,-3.1 1.6,-5.5 3,-7.1 1.4,-1.6 3.2,-2.4 5.4,-2.4 0.9,0 1.7,0.2 2.4,0.6 0.7,0.4 1.3,1 1.8,1.7 l 0.7,-2 h 4.3 l -3.6,18.1 c -0.5,2.6 -1.7,4.6 -3.4,6 -1.7,1.4 -4,2.1 -6.7,2.1 -0.8,0 -1.7,-0.1 -2.7,-0.4 -1,-0.3 -1.8,-0.6 -2.6,-1 l 1.7,-3.8 c 0.6,0.4 1.3,0.6 2,0.8 0.7,0.2 1.5,0.3 2.4,0.3 1.1,0 2.1,-0.4 2.8,-1.1 0.8,-0.7 1.3,-1.7 1.5,-2.9 l 0.1,-0.7 c -0.6,0.5 -1.2,0.9 -1.9,1.2 -0.7,0.3 -1.4,0.4 -2.1,0.4 -2,0 -3.5,-0.9 -4.5,-2.7 -1,-1.8 -1.2,-4.1 -0.7,-6.8 z m 4.9,0.4 c -0.4,1.8 -0.4,3.1 -0.1,4.1 0.3,1 1,1.5 2.1,1.5 0.6,0 1.2,-0.2 1.7,-0.5 0.5,-0.3 1,-0.8 1.4,-1.4 l 1.7,-8.3 c -0.2,-0.5 -0.5,-0.8 -0.9,-1 -0.4,-0.2 -1,-0.3 -1.6,-0.3 -1,0 -1.9,0.5 -2.6,1.5 -0.7,1 -1.2,2.4 -1.6,4.1 z"
       id="path38"
       inkscape:connector-curvature="0" />
    <path
       d="m 103.164,35.9 c -0.9,0 -1.9,-0.1 -2.9,-0.4 -1,-0.3 -2,-0.7 -2.8,-1.1 l -0.6,-0.3 2.3,-5.1 0.7,0.4 c 0.6,0.3 1.2,0.6 1.8,0.8 0.6,0.2 1.4,0.3 2.2,0.3 0.9,0 1.7,-0.3 2.3,-0.9 0.4,-0.4 0.7,-0.8 1,-1.4 -0.1,0.1 -0.3,0.1 -0.4,0.2 -0.8,0.3 -1.6,0.5 -2.4,0.5 -2.3,0 -4,-1.1 -5.2,-3.1 -1.1,-2 -1.3,-4.4 -0.8,-7.3 l 0.1,-0.4 c 0.7,-3.3 1.7,-5.8 3.2,-7.4 1.5,-1.8 3.5,-2.6 5.9,-2.6 1,0 2,0.2 2.8,0.7 0.4,0.2 0.8,0.5 1.2,0.9 l 0.5,-1.3 h 5.8 l -3.8,19 c -0.6,2.8 -1.8,5 -3.7,6.4 -1.9,1.3 -4.3,2.1 -7.2,2.1 z m -4.3,-2.6 c 0.5,0.3 1.1,0.5 1.8,0.7 0.9,0.2 1.7,0.4 2.5,0.4 2.5,0 4.6,-0.6 6.2,-1.9 1.6,-1.3 2.7,-3.1 3.2,-5.6 l 3.4,-17.2 h -2.9 l -1.1,3 -0.8,-1.3 c -0.4,-0.6 -0.9,-1.1 -1.5,-1.5 -0.6,-0.4 -1.3,-0.5 -2.1,-0.5 -2,0 -3.5,0.7 -4.8,2.1 -1.3,1.5 -2.2,3.8 -2.8,6.7 l -0.1,0.4 c -0.5,2.5 -0.3,4.6 0.6,6.3 0.9,1.6 2.1,2.4 3.8,2.4 0.6,0 1.3,-0.1 1.9,-0.4 0.6,-0.3 1.2,-0.6 1.7,-1.1 l 1.6,-1.5 -0.5,2.9 c -0.3,1.4 -0.9,2.5 -1.8,3.3 -0.9,0.8 -2,1.3 -3.4,1.3 -0.9,0 -1.8,-0.1 -2.6,-0.3 -0.5,-0.1 -1,-0.3 -1.5,-0.5 z m 7.4,-8.5 c -1.4,0 -2.4,-0.7 -2.8,-2 -0.3,-1.1 -0.3,-2.6 0.1,-4.5 l 0.1,-0.4 c 0.4,-1.8 0.9,-3.3 1.7,-4.4 0.9,-1.2 1.9,-1.8 3.2,-1.8 0.8,0 1.4,0.1 2,0.4 0.6,0.3 1,0.8 1.3,1.4 l 0.1,0.2 -1.7,8.7 -0.1,0.1 c -0.5,0.7 -1,1.2 -1.6,1.6 -0.9,0.5 -1.6,0.7 -2.3,0.7 z m 2.2,-11.6 c -0.8,0 -1.4,0.4 -2,1.2 -0.6,0.9 -1.1,2.2 -1.4,3.8 l -0.1,0.4 c -0.3,1.6 -0.4,2.9 -0.1,3.8 0.2,0.7 0.6,1 1.4,1 0.5,0 0.9,-0.1 1.3,-0.4 0.4,-0.2 0.8,-0.6 1.1,-1.1 l 1.6,-7.9 c -0.1,-0.2 -0.3,-0.4 -0.5,-0.5 -0.4,-0.2 -0.8,-0.3 -1.3,-0.3 z"
       id="path40"
       inkscape:connector-curvature="0" />
  </g>
  <g
     id="g48"
     style="fill:#45b0e5"
     transform="translate(8.3807992e-5)">
    <path
       d="m 118.964,18.1 c 0.5,-2.9 1.5,-5.2 3.2,-6.9 1.7,-1.7 3.9,-2.6 6.5,-2.6 2.5,0 4.3,0.9 5.6,2.7 1.3,1.8 1.6,4.1 1.2,6.8 l -0.1,0.4 c -0.5,2.9 -1.6,5.2 -3.3,6.9 -1.7,1.7 -3.9,2.6 -6.5,2.6 -2.5,0 -4.3,-0.9 -5.6,-2.7 -1.2,-1.8 -1.6,-4.1 -1.2,-6.8 z m 4.9,0.4 c -0.3,1.8 -0.3,3.2 0.1,4.1 0.3,1 1.1,1.5 2.3,1.5 1.1,0 2,-0.5 2.7,-1.6 0.7,-1 1.2,-2.4 1.5,-4.1 l 0.1,-0.4 c 0.3,-1.7 0.2,-3.1 -0.1,-4.1 -0.3,-1 -1.1,-1.5 -2.3,-1.5 -1.1,0 -2,0.5 -2.7,1.6 -0.7,1.1 -1.2,2.4 -1.4,4 z"
       id="path44"
       inkscape:connector-curvature="0" />
    <path
       d="m 125.664,28.7 c -2.7,0 -4.8,-1 -6.2,-3 -1.3,-1.9 -1.8,-4.4 -1.3,-7.4 V 18 c 0.5,-3 1.6,-5.5 3.5,-7.3 1.8,-1.9 4.2,-2.8 7,-2.8 2.7,0 4.8,1 6.2,3 1.3,1.9 1.8,4.4 1.3,7.3 v 0.4 c -0.5,3.1 -1.7,5.5 -3.5,7.3 -1.9,1.9 -4.2,2.8 -7,2.8 z m 3,-19.3 c -2.4,0 -4.4,0.8 -5.9,2.4 -1.6,1.6 -2.6,3.8 -3,6.5 v 0.4 c -0.4,2.6 -0.1,4.7 1,6.3 1.1,1.6 2.7,2.3 4.9,2.3 2.4,0 4.4,-0.8 5.9,-2.3 1.6,-1.6 2.6,-3.8 3.1,-6.5 v -0.3 c 0.4,-2.6 0.1,-4.7 -1,-6.3 -1.1,-1.8 -2.7,-2.5 -5,-2.5 z m -2.4,15.4 c -1.9,0 -2.7,-1.1 -3,-2 -0.4,-1.1 -0.4,-2.6 -0.1,-4.5 V 18 c 0.3,-1.7 0.8,-3.2 1.6,-4.3 0.9,-1.3 2,-1.9 3.3,-1.9 1.5,0 2.5,0.7 3,2 0.4,1.1 0.4,2.6 0.1,4.5 l -0.1,0.3 c -0.3,1.8 -0.8,3.3 -1.6,4.4 -0.8,1.2 -1.9,1.8 -3.2,1.8 z m 1.8,-11.6 c -0.9,0 -1.5,0.4 -2.1,1.2 -0.6,1 -1.1,2.2 -1.3,3.7 l -0.1,0.4 c -0.3,1.7 -0.2,2.9 0.1,3.8 0.2,0.5 0.5,1 1.6,1 0.8,0 1.5,-0.4 2.1,-1.2 0.6,-0.9 1.1,-2.2 1.3,-3.8 V 18 c 0.3,-1.6 0.2,-2.9 -0.1,-3.7 -0.2,-0.8 -0.6,-1.1 -1.5,-1.1 z"
       id="path46"
       inkscape:connector-curvature="0" />
  </g>
</svg>
