<svg xmlns="http://www.w3.org/2000/svg" viewBox="0 0 685.91 124"><defs><style>.a{fill:#010202;}.b{fill:#45afe4;}.c{fill:#212121;}</style></defs><title>scalingo-logo-full-black</title><path class="a" d="M479.46,514.1c0.7-3.8.3-6.9-1.7-9-1.7-2.1-5.5-4.1-11-6.6-9-3.1-15.9-6.9-20-11.4s-5.5-10.4-4.1-17.6a24.87,24.87,0,0,1,11-16.6,38.68,38.68,0,0,1,21.4-5.9q13.5,0,20.7,7.2c4.8,4.8,6.6,11,4.8,19.3l-0.3.3h-16.6c0.7-4.1,0-7.2-2.1-9.7s-5.2-3.8-9.3-3.8a13.36,13.36,0,0,0-7.9,2.4,11.26,11.26,0,0,0-4.5,6.2c-0.7,3.8-.3,6.6,1.7,8.6,2.1,1.7,6.2,4.1,13.1,6.6q12.9,4.65,18.6,11.4c3.8,4.5,4.8,10.4,3.5,17.9a24.59,24.59,0,0,1-11,16.9c-5.9,3.8-13.1,5.5-21.4,5.5-8.6,0-15.9-2.1-22.1-6.6-5.9-4.5-7.9-11-5.9-20v-0.3H453c-1,5.2,0,8.6,2.8,10.7s6.6,2.8,11,2.8a15.52,15.52,0,0,0,8.3-2.4c2.4-1.1,3.7-3.5,4.4-5.9h0Z" transform="translate(-217.5 -439.8)"/><path class="a" d="M464,538.9c-9.3,0-17.3-2.4-23.5-6.9-6.9-4.8-9.3-12.4-6.9-22.8l0.7-2.4h21.8l-0.7,3.1c-1,5.9,1,7.2,1.7,7.9,2.4,1.7,5.5,2.4,9.7,2.4a11.49,11.49,0,0,0,6.6-2.1,7.11,7.11,0,0,0,3.5-4.8c0.7-3.1.3-5.2-1-6.6-1-1-3.8-3.1-10.4-5.9-9.3-3.1-16.2-7.2-20.7-12.1-4.8-5.2-6.2-11.7-4.8-20a28,28,0,0,1,12.1-18.3c6.2-4.1,13.8-6.2,22.8-6.2,9.3,0,16.9,2.8,22.4,7.9,5.5,5.5,7.6,12.8,5.5,21.7l-0.3,1-0.3,1.7h-21.4l0.7-3.1c0.7-3.5.3-5.9-1.4-7.6a10.18,10.18,0,0,0-7.6-2.8,11.49,11.49,0,0,0-6.6,2.1,7.11,7.11,0,0,0-3.5,4.8c-1,4.5.7,5.5,1,5.9,1,1,4.1,3.1,12.4,6.2,9,3.1,15.5,7.2,19.7,12.1,4.5,5.2,5.5,11.7,4.1,20.4-1.7,8.3-5.9,14.5-12.1,18.6-6.6,3.8-14.5,5.8-23.5,5.8h0ZM438.46,512c-1.4,6.9.3,12.1,5.2,15.5,5.5,4.1,12.4,5.9,20.4,5.9s14.8-1.7,20-5.2a22.81,22.81,0,0,0,10-15.2c1.4-6.9.3-12.1-2.8-15.9-3.5-4.1-9.3-7.6-17.3-10.4-7.2-2.8-11.7-5.2-13.8-7.2-2.8-2.4-3.5-6.2-2.4-11a12.36,12.36,0,0,1,5.5-7.9,15.73,15.73,0,0,1,9.3-3.1c4.8,0,9,1.4,11.4,4.5a11.79,11.79,0,0,1,2.8,9h11.7c1-6.6-.3-11.4-4.5-15.2-4.5-4.1-10.7-6.6-19-6.6-7.6,0-14.5,1.7-20,5.5a22.93,22.93,0,0,0-10,14.8c-1.4,6.6-.3,11.4,3.5,15.2,3.8,4.1,10.4,7.9,19,10.7,6.2,2.4,10,4.8,12.1,7.2,2.4,2.8,3.1,6.2,2.4,11-0.7,3.5-2.8,5.9-5.9,7.9a16.68,16.68,0,0,1-9.7,3.1c-4.8,0-9.3-1-12.4-3.5-2.1-1.4-4.5-4.5-4.1-10h-11.4V512h0Z" transform="translate(-217.5 -439.8)"/><path class="a" d="M533.36,523a9.93,9.93,0,0,0,6.9-2.8,12.28,12.28,0,0,0,3.5-7.2h15.5v0.3a25.15,25.15,0,0,1-9.3,16.6,29.18,29.18,0,0,1-18.6,6.2c-8.6,0-15.2-3.1-19-9.3-4.1-6.2-5.2-13.8-3.8-23.1l0.3-1.7c1.4-9.7,5.2-17.6,11-23.5a29.85,29.85,0,0,1,22.1-9c7.2,0,12.8,2.4,16.6,6.9s5.2,10.4,3.8,17.9v0.3h-15.5c0.7-3.5.3-6.2-1-8.3-1-2.1-3.1-3.1-6.2-3.1-3.8,0-6.9,1.7-9.3,5.5-2.4,3.5-3.8,8.3-4.8,13.8l-0.3,1.7c-1,5.9-1,10.7,0,14.2,1.2,2.9,3.9,4.6,8.1,4.6h0Z" transform="translate(-217.5 -439.8)"/><path class="a" d="M531.26,538.9c-9.7,0-16.6-3.5-21.4-10.4-4.5-6.6-5.9-15.2-4.1-25.2l0.3-1.7c1.7-10.4,5.5-18.6,11.7-24.9,6.2-6.6,14.5-9.7,24.2-9.7,7.9,0,14.2,2.8,18.6,7.6,4.5,5.2,5.9,11.7,4.5,20v0.3l-1,1.7-1.7.3h-18.6l0.3-3.1c0.3-2.8.3-5.2-.7-6.6-0.3-1-1.4-1.7-3.8-1.7-3.1,0-5.2,1.4-6.9,4.1a38.44,38.44,0,0,0-4.5,12.8l-0.3,1.7c-1,5.5-1,10,0,12.8,0.3,1.7,1.4,3.1,5.2,3.1a7,7,0,0,0,5.2-2.1,10.89,10.89,0,0,0,2.8-5.9l0.3-2.1h19.7l1,2.8v0.7a27.23,27.23,0,0,1-10.4,18.3,31.59,31.59,0,0,1-20.4,7.2h0Zm10.4-66.6c-8.3,0-15.2,2.8-20.4,8.3-5.5,5.5-9,13.1-10.4,22.1l-0.3,1.7c-1.4,8.6-.3,15.9,3.5,21.4,3.5,5.5,9,7.9,16.9,7.9a26,26,0,0,0,17.3-5.9c4.1-3.5,6.9-7.2,7.9-12.4h-10.7a16.8,16.8,0,0,1-3.8,6.6,11.54,11.54,0,0,1-8.6,3.5c-5.2,0-9-2.4-10.4-6.9-1-3.8-1.4-8.6-.3-15.2l0.3-1.7a39.2,39.2,0,0,1,5.2-14.5c2.8-4.5,6.6-6.6,11.4-6.6s7.2,2.4,8.3,4.5A11.93,11.93,0,0,1,549,492h10.7c0.7-5.5-.3-10.4-3.5-13.8-3.1-4.2-8-5.9-14.5-5.9h0Z" transform="translate(-217.5 -439.8)"/><path class="a" d="M602.76,535.1c-0.3-1-.3-2.4-0.7-3.8,0-1.4-.3-2.4-0.3-3.8a22.2,22.2,0,0,1-7.9,6.2,18.19,18.19,0,0,1-9.3,2.4c-5.5,0-9.7-1.7-12.8-5.2s-3.8-8.3-2.8-14.2c1.4-6.6,4.5-11.7,9.7-14.8s12.1-4.8,20.7-4.8H607l1-5.2c0.7-3.5.3-5.9-.7-7.2-1-1.7-2.8-2.4-5.9-2.4a8.88,8.88,0,0,0-5.9,2.1,8.08,8.08,0,0,0-3.1,5.5h-16.6v-0.3c1-5.9,4.1-10.7,9.7-14.5s12.1-5.5,19.7-5.5c6.9,0,12.1,2.1,16.2,5.9,3.8,3.8,5.2,9.3,3.8,16.6L620,518.7a40.6,40.6,0,0,0-1,8.6,28,28,0,0,0,.7,7.6h-16.9v0.2Zm-10.7-11.7a14.45,14.45,0,0,0,6.2-1.7,15.05,15.05,0,0,0,5.2-4.1l2.1-11H598a11.69,11.69,0,0,0-7.6,2.8,10.23,10.23,0,0,0-3.8,6.6c-0.3,2.4-.3,4.1.7,5.2,1,1.8,2.7,2.2,4.8,2.2h0Z" transform="translate(-217.5 -439.8)"/><path class="a" d="M584.76,538.9c-6.2,0-11-2.1-14.5-6.2s-4.5-9.7-3.1-16.2c1.4-7.2,5.2-13.1,10.7-16.6s12.8-5.2,22.4-5.2h5.2l0.7-3.1c0.7-3.5,0-4.8-.3-5.5s-1.7-1.4-3.5-1.4-3.1.3-4.1,1.4a8.46,8.46,0,0,0-2.4,4.1l-0.3,2.1h-20.5l-1-2.8v-0.6c1-6.6,4.5-12.1,10.7-16.2,5.9-4.1,13.1-6.2,21.4-6.2,7.6,0,13.5,2.4,17.9,6.6,4.5,4.5,6.2,11,4.5,19l-5.5,26.6a38,38,0,0,0-1,8.3,25.17,25.17,0,0,0,.7,7.2l0.3,3.1h-22.4l-0.3-2.1c0-.7-0.3-1.7-0.3-2.4-1.4,1-2.8,2.1-4.5,3.1a21.23,21.23,0,0,1-10.8,3h0ZM600,499.6c-8.3,0-14.8,1.4-19.3,4.5-4.5,2.8-7.2,7.2-8.3,13.1-1.4,5.2-.7,9.3,1.7,12.1,2.4,3.1,5.9,4.5,10.7,4.5a17.34,17.34,0,0,0,8.3-2.1,22.8,22.8,0,0,0,7.2-5.9l4.5-5.2v11.8h12.1a30.25,30.25,0,0,1-.3-5.2,41.34,41.34,0,0,1,1-9l5.2-26.6c1.4-6.2.3-11-3.1-14.2-3.5-3.5-8.3-5.2-14.2-5.2-7.2,0-13.5,1.7-18.3,5.2a19.69,19.69,0,0,0-7.9,10h11.4a10.29,10.29,0,0,1,3.5-5.2,12.25,12.25,0,0,1,7.6-2.8,9.43,9.43,0,0,1,7.9,3.5c1.4,2.1,1.7,5.2,1,9.3l-1.4,7.2H600v0.2Zm-7.9,26.6a8.8,8.8,0,0,1-6.9-2.8c-1.4-1.7-1.7-4.5-1-7.2a14,14,0,0,1,4.5-7.9,12.52,12.52,0,0,1,9.3-3.5h11l-3.1,14.2-0.3.7a25.76,25.76,0,0,1-5.9,4.8,22.84,22.84,0,0,1-7.6,1.7h0Zm5.8-16.6a8.88,8.88,0,0,0-5.9,2.1,8.12,8.12,0,0,0-3.1,5.2,3.66,3.66,0,0,0,.3,3.1c0.3,0.7,1.4.7,2.8,0.7a9.29,9.29,0,0,0,5.2-1.4,11.16,11.16,0,0,0,4.1-3.1l1.4-7.2h-4.8v0.6Z" transform="translate(-217.5 -439.8)"/><path class="a" d="M651.06,535.1h-17.3l18.6-92.8h17.3Z" transform="translate(-217.5 -439.8)"/><path class="a" d="M653.16,537.5h-22.4l19.7-97.7h22.4Zm-16.3-5.1h11.7l17.6-87.7h-11.7Z" transform="translate(-217.5 -439.8)"/><path class="a" d="M685.86,535.1h-17.3l12.8-64.2h17.3Zm15.9-79.7h-17.3l2.8-13.1h17.3Z" transform="translate(-217.5 -439.8)"/><path class="a" d="M688,537.5h-22.4l13.8-69.4h22.4Zm-15.9-5.1h11.7l11.7-59h-11.7Zm32.1-74.2h-22.4l3.8-18.3H708ZM688,453h11.7l1.7-7.9h-11.7Z" transform="translate(-217.5 -439.8)"/><path class="a" d="M730.46,479.2a27.81,27.81,0,0,1,8.6-7.2,20.78,20.78,0,0,1,10-2.4c5.5,0,10,2.1,12.8,6.2s3.1,10.4,1.4,19l-7.9,40h-17.3l7.9-40c1-4.5.7-7.6-.3-9.3s-3.5-2.4-6.6-2.4a10.26,10.26,0,0,0-5.5,1.4,22.34,22.34,0,0,0-4.8,3.8l-9.3,46.6h-17.3L715,470.7h15.9l-0.4,8.5h0Z" transform="translate(-217.5 -439.8)"/><path class="a" d="M757.66,537.5h-22.4l8.6-43.1c1-5.5.3-7.2,0-7.6-0.7-1-2.8-1.4-4.5-1.4a8.57,8.57,0,0,0-4.1,1,28.25,28.25,0,0,0-3.8,2.8l-9.7,48h-22.4l13.8-69.4h21.1l-0.3,4.1a36.09,36.09,0,0,1,4.1-2.4,25.6,25.6,0,0,1,11.4-2.8c6.6,0,11.4,2.4,14.8,7.2,3.1,4.8,3.8,11.7,2.1,21.1l-8.7,42.5h0Zm-16.2-5.1h11.7l7.6-38c1.7-7.9,1-13.8-1-17.3-2.4-3.5-5.5-5.2-10.4-5.2a20.16,20.16,0,0,0-9,2.1,26.74,26.74,0,0,0-7.9,6.6l-2.8,3.5,3.1-2.1a16.16,16.16,0,0,1,6.6-1.7c4.1,0,6.9,1.4,8.6,3.8s1.7,5.9.7,11.4l-7.2,36.9h0Zm-35.5,0h11.7l9.3-45.6,1.7-13.5h-11Z" transform="translate(-217.5 -439.8)"/><path class="b" d="M775.26,502.3c2.1-10.7,5.5-19,10.4-24.5a23.59,23.59,0,0,1,18.6-8.3,16.25,16.25,0,0,1,8.3,2.1,20.45,20.45,0,0,1,6.2,5.9l2.4-6.9h14.9l-12.4,62.5c-1.7,9-5.9,15.9-11.7,20.7s-13.8,7.2-23.1,7.2a29.61,29.61,0,0,1-9.3-1.4,49.65,49.65,0,0,1-9-3.5l5.9-13.1a24.42,24.42,0,0,0,6.9,2.8,30,30,0,0,0,8.3,1,13.86,13.86,0,0,0,9.7-3.8,16.47,16.47,0,0,0,5.2-10l0.3-2.4a25.13,25.13,0,0,1-6.6,4.1,18.45,18.45,0,0,1-7.2,1.4c-6.9,0-12.1-3.1-15.5-9.3s-4.1-14.2-2.4-23.5l0.1-1h0Zm17,1.4c-1.4,6.2-1.4,10.7-.3,14.2s3.5,5.2,7.2,5.2a12.23,12.23,0,0,0,5.9-1.7,15.67,15.67,0,0,0,4.8-4.8l5.9-28.6a6.35,6.35,0,0,0-3.1-3.5,13.18,13.18,0,0,0-5.5-1c-3.5,0-6.6,1.7-9,5.2s-4.1,8.3-5.5,14.2l-0.4.8h0Z" transform="translate(-217.5 -439.8)"/><path class="b" d="M788.76,563.8a32.6,32.6,0,0,1-10-1.4,57.67,57.67,0,0,1-9.7-3.8l-2.1-1,7.9-17.6,2.4,1.4a56.46,56.46,0,0,0,6.2,2.8,25,25,0,0,0,7.6,1,10.62,10.62,0,0,0,7.9-3.1,19.82,19.82,0,0,0,3.5-4.8c-0.3.3-1,.3-1.4,0.7a24.6,24.6,0,0,1-8.3,1.7c-7.9,0-13.8-3.8-17.9-10.7-3.8-6.9-4.5-15.2-2.8-25.2l0.3-1.4c2.4-11.4,5.9-20,11-25.5,5.2-6.2,12.1-9,20.4-9a18.64,18.64,0,0,1,9.7,2.4,14.32,14.32,0,0,1,4.1,3.1l1.7-4.5h20l-13.1,65.6c-2.1,9.7-6.2,17.3-12.8,22.1-6.3,4.4-14.6,7.2-24.6,7.2h0Zm-14.8-9a27.67,27.67,0,0,0,6.2,2.4,40.43,40.43,0,0,0,8.6,1.4c8.6,0,15.9-2.1,21.4-6.6s9.3-10.7,11-19.3l11.7-59.4h-10l-3.8,10.4-2.8-4.5a18.4,18.4,0,0,0-5.2-5.2c-2.1-1.4-4.5-1.7-7.2-1.7a21.37,21.37,0,0,0-16.6,7.2c-4.5,5.2-7.6,13.1-9.7,23.1l-0.3,1.4c-1.7,8.6-1,15.9,2.1,21.7,3.1,5.5,7.2,8.3,13.1,8.3a14.29,14.29,0,0,0,6.6-1.4,22,22,0,0,0,5.9-3.8l5.5-5.2-1.7,10a20.53,20.53,0,0,1-6.2,11.4,16.83,16.83,0,0,1-11.7,4.5,37.63,37.63,0,0,1-9-1,26.3,26.3,0,0,1-5.2-1.7l-2.7,8h0Zm25.5-29.3c-4.8,0-8.3-2.4-9.7-6.9-1-3.8-1-9,.3-15.5l0.3-1.4c1.4-6.2,3.1-11.4,5.9-15.2,3.1-4.1,6.6-6.2,11-6.2a13.77,13.77,0,0,1,6.9,1.4,10,10,0,0,1,4.5,4.8l0.3,0.7-5.9,30-0.3.3a22.06,22.06,0,0,1-5.5,5.5,14.75,14.75,0,0,1-7.8,2.5h0Zm7.6-40.1c-2.8,0-4.8,1.4-6.9,4.1a34.91,34.91,0,0,0-4.8,13.1l-0.3,1.4c-1,5.5-1.4,10-.3,13.1,0.7,2.4,2.1,3.5,4.8,3.5a6.71,6.71,0,0,0,4.5-1.4,9.88,9.88,0,0,0,3.8-3.8l5.5-27.3a3.51,3.51,0,0,0-1.7-1.7,11.86,11.86,0,0,0-4.6-1h0Z" transform="translate(-217.5 -439.8)"/><path class="b" d="M843.26,502.3c1.7-10,5.2-17.9,11-23.8a30.69,30.69,0,0,1,22.4-9c8.6,0,14.8,3.1,19.3,9.3s5.5,14.2,4.1,23.5l-0.3,1.4c-1.7,10-5.5,17.9-11.4,23.8a30.69,30.69,0,0,1-22.4,9c-8.6,0-14.8-3.1-19.3-9.3-4.1-6.2-5.5-14.2-4.1-23.5l0.7-1.4h0Zm16.9,1.4c-1,6.2-1,11,.3,14.2,1,3.5,3.8,5.2,7.9,5.2,3.8,0,6.9-1.7,9.3-5.5,2.4-3.5,4.1-8.3,5.2-14.2l0.3-1.4a32.69,32.69,0,0,0-.3-14.2c-1-3.5-3.8-5.2-7.9-5.2-3.8,0-6.9,1.7-9.3,5.5a33.19,33.19,0,0,0-4.8,13.8l-0.7,1.8h0Z" transform="translate(-217.5 -439.8)"/><path class="b" d="M866.46,538.9c-9.3,0-16.6-3.5-21.4-10.4-4.5-6.6-6.2-15.2-4.5-25.5v-1c1.7-10.4,5.5-19,12.1-25.2,6.2-6.6,14.5-9.7,24.2-9.7,9.3,0,16.6,3.5,21.4,10.4,4.5,6.6,6.2,15.2,4.5,25.2v1.4c-1.7,10.7-5.9,19-12.1,25.2C884.06,535.8,876.06,538.9,866.46,538.9Zm10.3-66.6c-8.3,0-15.2,2.8-20.4,8.3-5.5,5.5-9,13.1-10.4,22.4v1.4c-1.4,9-.3,16.2,3.5,21.7s9.3,7.9,16.9,7.9c8.3,0,15.2-2.8,20.4-7.9,5.5-5.5,9-13.1,10.7-22.4v-1c1.4-9,.3-16.2-3.5-21.7-3.7-6.3-9.2-8.7-17.2-8.7h0Zm-8.3,53.2c-6.6,0-9.3-3.8-10.4-6.9-1.4-3.8-1.4-9-.3-15.5v-1c1-5.9,2.8-11,5.5-14.8,3.1-4.5,6.9-6.6,11.4-6.6,5.2,0,8.6,2.4,10.4,6.9,1.4,3.8,1.4,9,.3,15.5l-0.3,1c-1,6.2-2.8,11.4-5.5,15.2C876.76,523.4,873,525.5,868.46,525.5Zm6.2-40.1c-3.1,0-5.2,1.4-7.2,4.1a32.79,32.79,0,0,0-4.5,12.8l-0.3,1.4c-1,5.9-.7,10,0.3,13.1,0.7,1.7,1.7,3.5,5.5,3.5,2.8,0,5.2-1.4,7.2-4.1a30.51,30.51,0,0,0,4.5-13.1v-1c1-5.5.7-10-.3-12.8-0.7-2.8-2-3.9-5.2-3.9h0Z" transform="translate(-217.5 -439.8)"/><path class="c" d="M271.7,519.3l55.2,44.4,55.5-44.1,0.1-22.1L327,541.6l-55.2-44.4Zm-54.2,8.2L273,483.4l55.2,44.4,0.1-22.1-55.2-44.4-55.5,44.1Z" transform="translate(-217.5 -439.8)"/><polygon class="b" points="110.7 44.2 110.7 66.3 166.1 22.2 166.2 0.1 110.7 44.2"/></svg>