<svg xmlns="http://www.w3.org/2000/svg" viewBox="0 0 136.355 35.9"><g fill="#fff"><path d="M13.564 21.5c.2-1.1.1-2-.5-2.6-.5-.6-1.6-1.2-3.2-1.9-2.6-.9-4.6-2-5.8-3.3s-1.6-3-1.2-5.1 1.5-3.7 3.2-4.8 3.8-1.7 6.2-1.7c2.6 0 4.6.7 6 2.1s1.9 3.2 1.4 5.6l-.1.1h-4.8c.2-1.2 0-2.1-.6-2.8s-1.5-1.1-2.7-1.1c-.8 0-1.6.2-2.3.7s-1.1 1.1-1.3 1.8c-.2 1.1-.1 1.9.5 2.5.6.5 1.8 1.2 3.8 1.9 2.5.9 4.3 2 5.4 3.3s1.4 3 1 5.2-1.5 3.8-3.2 4.9-3.8 1.6-6.2 1.6c-2.5 0-4.6-.6-6.4-1.9-1.7-1.3-2.3-3.2-1.7-5.8v-.1h4.8c-.3 1.5 0 2.5.8 3.1s1.9.8 3.2.8c.8 0 1.6-.2 2.4-.7.7-.4 1.1-1.1 1.3-1.8z"/><path d="M9.064 28.7c-2.7 0-5-.7-6.8-2-2-1.4-2.7-3.6-2-6.6l.2-.7h6.3l-.2.9c-.3 1.7.3 2.1.5 2.3.7.5 1.6.7 2.8.7.7 0 1.3-.2 1.9-.6s.9-.8 1-1.4c.2-.9.1-1.5-.3-1.9-.3-.3-1.1-.9-3-1.7-2.7-.9-4.7-2.1-6-3.5-1.4-1.5-1.8-3.4-1.4-5.8.5-2.3 1.6-4 3.5-5.3 1.8-1.2 4-1.8 6.6-1.8 2.7 0 4.9.8 6.5 2.3 1.6 1.6 2.2 3.7 1.6 6.3l-.1.3-.1.5h-6.2l.2-.9c.2-1 .1-1.7-.4-2.2s-1.2-.8-2.2-.8c-.7 0-1.3.2-1.9.6s-.9.8-1 1.4c-.3 1.3.2 1.6.3 1.7.3.3 1.2.9 3.6 1.8 2.6.9 4.5 2.1 5.7 3.5 1.3 1.5 1.6 3.4 1.2 5.9-.5 2.4-1.7 4.2-3.5 5.4-1.9 1-4.2 1.6-6.8 1.6zm-7.4-7.8c-.4 2 .1 3.5 1.5 4.5 1.6 1.2 3.6 1.7 5.9 1.7s4.3-.5 5.8-1.5 2.5-2.4 2.9-4.4.1-3.5-.8-4.6c-1-1.2-2.7-2.2-5-3-2.1-.8-3.4-1.5-4-2.1-.8-.7-1-1.8-.7-3.2.2-.9.7-1.7 1.6-2.3.8-.6 1.8-.9 2.7-.9 1.4 0 2.6.4 3.3 1.3.6.7.9 1.6.8 2.6h3.4c.3-1.9-.1-3.3-1.3-4.4-1.3-1.2-3.1-1.9-5.5-1.9-2.2 0-4.2.5-5.8 1.6-1.5 1-2.5 2.4-2.9 4.3s-.1 3.3 1 4.4c1.1 1.2 3 2.3 5.5 3.1 1.8.7 2.9 1.4 3.5 2.1.7.8.9 1.8.7 3.2-.2 1-.8 1.7-1.7 2.3s-1.8.9-2.8.9c-1.4 0-2.7-.3-3.6-1-.6-.4-1.3-1.3-1.2-2.9h-3.3z"/></g><g fill="#fff"><path d="M29.164 24.1c.8 0 1.4-.3 2-.8.5-.5.9-1.2 1-2.1h4.5v.1c-.3 2-1.2 3.6-2.7 4.8s-3.4 1.8-5.4 1.8c-2.5 0-4.4-.9-5.5-2.7-1.2-1.8-1.5-4-1.1-6.7l.1-.5c.4-2.8 1.5-5.1 3.2-6.8s3.8-2.6 6.4-2.6c2.1 0 3.7.7 4.8 2s1.5 3 1.1 5.2v.1h-4.5c.2-1 .1-1.8-.3-2.4-.3-.6-.9-.9-1.8-.9-1.1 0-2 .5-2.7 1.6-.7 1-1.1 2.4-1.4 4l-.1.5c-.3 1.7-.3 3.1 0 4.1.4.8 1.2 1.3 2.4 1.3z"/><path d="M28.564 28.7c-2.8 0-4.8-1-6.2-3-1.3-1.9-1.7-4.4-1.2-7.3l.1-.5c.5-3 1.6-5.4 3.4-7.2 1.8-1.9 4.2-2.8 7-2.8 2.3 0 4.1.8 5.4 2.2 1.3 1.5 1.7 3.4 1.3 5.8v.1l-.3.5-.5.1h-5.4l.1-.9c.1-.8.1-1.5-.2-1.9-.1-.3-.4-.5-1.1-.5-.9 0-1.5.4-2 1.2-.6 1-1 2.2-1.3 3.7l-.1.5c-.3 1.6-.3 2.9 0 3.7.1.5.4.9 1.5.9.6 0 1.1-.2 1.5-.6s.7-1 .8-1.7l.1-.6h5.7l.3.8v.2c-.3 2.2-1.3 3.9-3 5.3-1.7 1.3-3.7 2-5.9 2zm3-19.3c-2.4 0-4.4.8-5.9 2.4-1.6 1.6-2.6 3.8-3 6.4l-.1.5c-.4 2.5-.1 4.6 1 6.2 1 1.6 2.6 2.3 4.9 2.3 1.9 0 3.5-.5 5-1.7 1.2-1 2-2.1 2.3-3.6h-3.1c-.2.7-.6 1.4-1.1 1.9-.7.7-1.5 1-2.5 1-1.5 0-2.6-.7-3-2-.3-1.1-.4-2.5-.1-4.4l.1-.5c.3-1.7.8-3.1 1.5-4.2.8-1.3 1.9-1.9 3.3-1.9s2.1.7 2.4 1.3.5 1.2.4 2h3.1c.2-1.6-.1-3-1-4-.9-1.2-2.3-1.7-4.2-1.7z"/></g><g fill="#fff"><path d="M49.264 27.6c-.1-.3-.1-.7-.2-1.1 0-.4-.1-.7-.1-1.1-.7.8-1.4 1.4-2.3 1.8-.8.5-1.8.7-2.7.7-1.6 0-2.8-.5-3.7-1.5s-1.1-2.4-.8-4.1c.4-1.9 1.3-3.4 2.8-4.3s3.5-1.4 6-1.4h2.2l.3-1.5c.2-1 .1-1.7-.2-2.1-.3-.5-.8-.7-1.7-.7-.7 0-1.2.2-1.7.6s-.8.9-.9 1.6h-4.8v-.1c.3-1.7 1.2-3.1 2.8-4.2s3.5-1.6 5.7-1.6c2 0 3.5.6 4.7 1.7 1.1 1.1 1.5 2.7 1.1 4.8l-1.5 7.7c-.2.9-.3 1.8-.3 2.5s0 1.5.2 2.2h-4.9zm-3.1-3.4c.6 0 1.2-.2 1.8-.5s1.1-.7 1.5-1.2l.6-3.2h-2.2c-.8 0-1.6.3-2.2.8s-1 1.2-1.1 1.9-.1 1.2.2 1.5c.3.6.8.7 1.4.7z"/><path d="M44.064 28.7c-1.8 0-3.2-.6-4.2-1.8s-1.3-2.8-.9-4.7c.4-2.1 1.5-3.8 3.1-4.8s3.7-1.5 6.5-1.5h1.5l.2-.9c.2-1 0-1.4-.1-1.6s-.5-.4-1-.4-.9.1-1.2.4-.6.7-.7 1.2l-.1.6h-5.9l-.3-.8v-.2c.3-1.9 1.3-3.5 3.1-4.7 1.7-1.2 3.8-1.8 6.2-1.8 2.2 0 3.9.7 5.2 1.9 1.3 1.3 1.8 3.2 1.3 5.5l-1.6 7.7c-.2.9-.3 1.7-.3 2.4s0 1.4.2 2.1l.1.9h-6.5l-.1-.6c0-.2-.1-.5-.1-.7-.4.3-.8.6-1.3.9-1 .6-2 .9-3.1.9zm4.4-11.4c-2.4 0-4.3.4-5.6 1.3-1.3.8-2.1 2.1-2.4 3.8-.4 1.5-.2 2.7.5 3.5.7.9 1.7 1.3 3.1 1.3.9 0 1.6-.2 2.4-.6s1.5-1 2.1-1.7l1.3-1.5v3.4h3.5c-.1-.5-.1-1-.1-1.5 0-.8.1-1.7.3-2.6l1.5-7.7c.4-1.8.1-3.2-.9-4.1-1-1-2.4-1.5-4.1-1.5-2.1 0-3.9.5-5.3 1.5-1.2.8-1.9 1.8-2.3 2.9h3.3c.2-.6.5-1.1 1-1.5.6-.5 1.4-.8 2.2-.8 1.1 0 1.8.4 2.3 1 .4.6.5 1.5.3 2.7l-.4 2.1h-2.7zm-2.3 7.7c-.9 0-1.5-.3-2-.8-.4-.5-.5-1.3-.3-2.1.2-.9.6-1.7 1.3-2.3.7-.7 1.6-1 2.7-1h3.2l-.9 4.1-.1.2c-.5.5-1 1-1.7 1.4-.8.3-1.5.5-2.2.5zm1.7-4.8c-.7 0-1.2.2-1.7.6s-.8.9-.9 1.5c-.1.3-.1.7.1.9.1.2.4.2.8.2.5 0 1-.1 1.5-.4.5-.2.8-.5 1.2-.9l.4-2.1h-1.4z"/></g><g fill="#fff"><path d="M63.264 27.6h-5l5.4-26.9h5l-5.4 26.9z"/><path d="M63.864 28.3h-6.5l5.7-28.3h6.5l-5.7 28.3zm-4.7-1.5h3.4l5.1-25.4h-3.4l-5.1 25.4z"/></g><g fill="#fff"><path d="M73.364 27.6h-5l3.7-18.6h5l-3.7 18.6zm4.6-23.1h-5l.8-3.8h5l-.8 3.8z"/><path d="M73.964 28.3h-6.5l4-20.1h6.5l-4 20.1zm-4.6-1.5h3.4l3.4-17.1h-3.4l-3.4 17.1zm9.3-21.5h-6.5l1.1-5.3h6.5l-1.1 5.3zm-4.7-1.5h3.4l.5-2.3h-3.4l-.5 2.3z"/></g><g fill="#fff"><path d="M86.264 11.4c.7-.9 1.6-1.6 2.5-2.1s1.9-.7 2.9-.7c1.6 0 2.9.6 3.7 1.8s.9 3 .4 5.5l-2.3 11.6h-5l2.3-11.6c.3-1.3.2-2.2-.1-2.7s-1-.7-1.9-.7c-.5 0-1.1.1-1.6.4s-1 .7-1.4 1.1l-2.7 13.5h-5l3.7-18.6h4.6l-.1 2.5z"/><path d="M94.164 28.3h-6.5l2.5-12.5c.3-1.6.1-2.1 0-2.2-.2-.3-.8-.4-1.3-.4-.4 0-.8.1-1.2.3s-.7.5-1.1.8l-2.8 13.9h-6.5l4-20.1h6.1l-.1 1.2c.4-.3.8-.5 1.2-.7 1-.5 2.1-.8 3.3-.8 1.9 0 3.3.7 4.3 2.1.9 1.4 1.1 3.4.6 6.1l-2.5 12.3zm-4.7-1.5h3.4l2.2-11c.5-2.3.3-4-.3-5-.7-1-1.6-1.5-3-1.5-.9 0-1.8.2-2.6.6s-1.6 1.1-2.3 1.9l-.8 1 .9-.6c.6-.3 1.3-.5 1.9-.5 1.2 0 2 .4 2.5 1.1s.5 1.7.2 3.3l-2.1 10.7zm-10.3 0h3.4l2.7-13.2.5-3.9h-3.2l-3.4 17.1z"/></g><g fill="#45b0e5"><path d="M99.264 18.1c.6-3.1 1.6-5.5 3-7.1s3.2-2.4 5.4-2.4c.9 0 1.7.2 2.4.6s1.3 1 1.8 1.7l.7-2h4.3l-3.6 18.1c-.5 2.6-1.7 4.6-3.4 6s-4 2.1-6.7 2.1c-.8 0-1.7-.1-2.7-.4s-1.8-.6-2.6-1l1.7-3.8c.6.4 1.3.6 2 .8s1.5.3 2.4.3c1.1 0 2.1-.4 2.8-1.1.8-.7 1.3-1.7 1.5-2.9l.1-.7c-.6.5-1.2.9-1.9 1.2s-1.4.4-2.1.4c-2 0-3.5-.9-4.5-2.7s-1.2-4.1-.7-6.8l.1-.3zm4.9.4c-.4 1.8-.4 3.1-.1 4.1s1 1.5 2.1 1.5c.6 0 1.2-.2 1.7-.5s1-.8 1.4-1.4l1.7-8.3c-.2-.5-.5-.8-.9-1s-1-.3-1.6-.3c-1 0-1.9.5-2.6 1.5s-1.2 2.4-1.6 4.1l-.1.3z"/><path d="M103.164 35.9c-.9 0-1.9-.1-2.9-.4s-2-.7-2.8-1.1l-.6-.3 2.3-5.1.7.4c.6.3 1.2.6 1.8.8s1.4.3 2.2.3c.9 0 1.7-.3 2.3-.9.4-.4.7-.8 1-1.4-.1.1-.3.1-.4.2-.8.3-1.6.5-2.4.5-2.3 0-4-1.1-5.2-3.1-1.1-2-1.3-4.4-.8-7.3l.1-.4c.7-3.3 1.7-5.8 3.2-7.4 1.5-1.8 3.5-2.6 5.9-2.6 1 0 2 .2 2.8.7.4.2.8.5 1.2.9l.5-1.3h5.8l-3.8 19c-.6 2.8-1.8 5-3.7 6.4-1.9 1.3-4.3 2.1-7.2 2.1zm-4.3-2.6c.5.3 1.1.5 1.8.7.9.2 1.7.4 2.5.4 2.5 0 4.6-.6 6.2-1.9s2.7-3.1 3.2-5.6l3.4-17.2h-2.9l-1.1 3-.8-1.3c-.4-.6-.9-1.1-1.5-1.5s-1.3-.5-2.1-.5c-2 0-3.5.7-4.8 2.1-1.3 1.5-2.2 3.8-2.8 6.7l-.1.4c-.5 2.5-.3 4.6.6 6.3.9 1.6 2.1 2.4 3.8 2.4.6 0 1.3-.1 1.9-.4s1.2-.6 1.7-1.1l1.6-1.5-.5 2.9c-.3 1.4-.9 2.5-1.8 3.3s-2 1.3-3.4 1.3c-.9 0-1.8-.1-2.6-.3-.5-.1-1-.3-1.5-.5l-.8 2.3zm7.4-8.5c-1.4 0-2.4-.7-2.8-2-.3-1.1-.3-2.6.1-4.5l.1-.4c.4-1.8.9-3.3 1.7-4.4.9-1.2 1.9-1.8 3.2-1.8.8 0 1.4.1 2 .4s1 .8 1.3 1.4l.1.2-1.7 8.7-.1.1c-.5.7-1 1.2-1.6 1.6-.9.5-1.6.7-2.3.7zm2.2-11.6c-.8 0-1.4.4-2 1.2-.6.9-1.1 2.2-1.4 3.8l-.1.4c-.3 1.6-.4 2.9-.1 3.8.2.7.6 1 1.4 1 .5 0 .9-.1 1.3-.4.4-.2.8-.6 1.1-1.1l1.6-7.9c-.1-.2-.3-.4-.5-.5-.4-.2-.8-.3-1.3-.3z"/></g><g fill="#45b0e5"><path d="M118.964 18.1c.5-2.9 1.5-5.2 3.2-6.9s3.9-2.6 6.5-2.6c2.5 0 4.3.9 5.6 2.7s1.6 4.1 1.2 6.8l-.1.4c-.5 2.9-1.6 5.2-3.3 6.9s-3.9 2.6-6.5 2.6c-2.5 0-4.3-.9-5.6-2.7-1.2-1.8-1.6-4.1-1.2-6.8l.2-.4zm4.9.4c-.3 1.8-.3 3.2.1 4.1.3 1 1.1 1.5 2.3 1.5 1.1 0 2-.5 2.7-1.6.7-1 1.2-2.4 1.5-4.1l.1-.4c.3-1.7.2-3.1-.1-4.1s-1.1-1.5-2.3-1.5c-1.1 0-2 .5-2.7 1.6s-1.2 2.4-1.4 4l-.2.5z"/><path d="M125.664 28.7c-2.7 0-4.8-1-6.2-3-1.3-1.9-1.8-4.4-1.3-7.4V18c.5-3 1.6-5.5 3.5-7.3 1.8-1.9 4.2-2.8 7-2.8 2.7 0 4.8 1 6.2 3 1.3 1.9 1.8 4.4 1.3 7.3v.4c-.5 3.1-1.7 5.5-3.5 7.3-1.9 1.9-4.2 2.8-7 2.8zm3-19.3c-2.4 0-4.4.8-5.9 2.4-1.6 1.6-2.6 3.8-3 6.5v.4c-.4 2.6-.1 4.7 1 6.3s2.7 2.3 4.9 2.3c2.4 0 4.4-.8 5.9-2.3 1.6-1.6 2.6-3.8 3.1-6.5v-.3c.4-2.6.1-4.7-1-6.3-1.1-1.8-2.7-2.5-5-2.5zm-2.4 15.4c-1.9 0-2.7-1.1-3-2-.4-1.1-.4-2.6-.1-4.5V18c.3-1.7.8-3.2 1.6-4.3.9-1.3 2-1.9 3.3-1.9 1.5 0 2.5.7 3 2 .4 1.1.4 2.6.1 4.5l-.1.3c-.3 1.8-.8 3.3-1.6 4.4-.8 1.2-1.9 1.8-3.2 1.8zm1.8-11.6c-.9 0-1.5.4-2.1 1.2-.6 1-1.1 2.2-1.3 3.7l-.1.4c-.3 1.7-.2 2.9.1 3.8.2.5.5 1 1.6 1 .8 0 1.5-.4 2.1-1.2.6-.9 1.1-2.2 1.3-3.8V18c.3-1.6.2-2.9-.1-3.7-.2-.8-.6-1.1-1.5-1.1z"/></g></svg>