<svg xmlns="http://www.w3.org/2000/svg" viewBox="0 0 252 252"><g fill="none" stroke-miterlimit="10" font-family="none" font-weight="none" font-size="none" text-anchor="none" style="mix-blend-mode:normal"><path d="M0 252V0h252v252z"/><g fill="#2980b9"><path d="M126.098 251.016l-2.205-1.024C122.791 249.5 15.12 197.997 15.12 44.474v-4.056l3.957-.866c37.308-8.19 59.338-19.786 75.423-28.251C107.002 4.745 116.018 0 126 0s18.998 4.745 31.5 11.3c16.085 8.466 38.115 20.062 75.423 28.252l3.957.866v4.056c0 148.424-107.513 204.868-108.596 205.44z" id="surface1"/></g><path d="M80.385 85.895l7.75 33.51 7.77-33.51h10.41l-13.33 46.21h-9.71l-13.23-46.21zm45.83 29.96h-6.22v16.25h-9.33v-46.21h15.74c4.573 0 8.22 1.417 10.94 4.25 2.72 2.833 4.08 6.517 4.08 11.05 0 4.527-1.343 8.1-4.03 10.72-2.693 2.627-6.42 3.94-11.18 3.94zm-6.22-22.19v14.41h6.41c1.78 0 3.157-.58 4.13-1.74.973-1.167 1.46-2.86 1.46-5.08 0-2.307-.497-4.143-1.49-5.51-.993-1.36-2.327-2.053-4-2.08zm59.96-7.77v46.21h-9.33l-13.65-30.31v30.31h-9.33v-46.21h9.33l13.68 30.34v-30.34z" fill="#fff"/></g></svg>