<?xml version="1.0" encoding="utf-8"?>
<!-- Generator: Adobe Illustrator 19.2.1, SVG Export Plug-In . SVG Version: 6.00 Build 0)  -->
<svg version="1.1" id="Layer_1" xmlns="http://www.w3.org/2000/svg" xmlns:xlink="http://www.w3.org/1999/xlink" x="0px" y="0px"
	 viewBox="0 0 48 48" style="enable-background:new 0 0 48 48;" xml:space="preserve">
<style type="text/css">
	.st0{fill:none;stroke:#CFD8DC;stroke-width:2;stroke-miterlimit:10;}
	.st1{fill:#4CAF50;}
	.st2{fill:#3C873C;}
	.st3{fill:#6FC16F;}
	.st4{fill:#FF9800;}
	.st5{fill:#37474F;}
</style>
<path class="st0" d="M4.7,28.4v-9.2c0-1.5,0.8-3,2.2-3.7l8.4-4.6 M39.8,31.4V19.2c0-1.5-0.8-3-2.2-3.7l-8.4-4.6 M9.4,37.2l10.7,5.9
	c1.3,0.7,2.9,0.7,4.2-0.1l9.6-5.8"/>
<path class="st1" d="M0,36.6l8.2,4.7l8.2-4.7v-9.4l-8.2-4.7L0,27.2V36.6z"/>
<path class="st2" d="M0,36.6l8.2,4.7v-9.4L0,27.2V36.6z"/>
<path class="st3" d="M8.2,41.3l8.2-4.7v-9.4l-8.2,4.7V41.3z"/>
<g>
	<circle class="st1" cx="22.2" cy="13.5" r="1.1"/>
	<path class="st1" d="M14,5.7L15.4,7c3.8-3.7,9.9-3.7,13.7,0l1.3-1.3C25.9,1.2,18.6,1.2,14,5.7z"/>
	<path class="st1" d="M16.4,8l1.3,1.3c2.5-2.4,6.5-2.4,9,0L28,8C24.8,4.9,19.7,4.9,16.4,8z"/>
	<path class="st1" d="M18.8,10.4l1.3,1.3c1.2-1.1,3-1.1,4.2,0l1.3-1.3C23.7,8.6,20.7,8.6,18.8,10.4z"/>
</g>
<g>
	<path class="st4" d="M47.9,29.4v-1.6h-4.1v-4.1h-1.6v4.1h-1.6v-4.1H39v4.1h-1.6v-4.1h-1.6v4.1h-4.1v1.6h4.1v1.6h-4.1v1.6h4.1v1.6
		h-4.1V36h4.1v4.1h1.6V36H39v4.1h1.6V36h1.6v4.1h1.6V36h4.1v-1.6h-4.1v-1.6h4.1v-1.6h-4.1v-1.6H47.9z"/>
	<path class="st1" d="M33.3,27v9.9c0,0.9,0.7,1.6,1.6,1.6h9.8c0.9,0,1.6-0.7,1.6-1.6V27c0-0.9-0.7-1.6-1.6-1.6h-9.8
		C34,25.3,33.3,26.1,33.3,27z"/>
	<path class="st5" d="M42.6,34.8h-5.7c-0.4,0-0.8-0.4-0.8-0.8v-4.1c0-0.5,0.4-0.8,0.8-0.8h5.7c0.4,0,0.8,0.4,0.8,0.8v4.1
		C43.4,34.4,43.1,34.8,42.6,34.8z"/>
</g>
</svg>
