<?xml version="1.0" encoding="iso-8859-1"?>
<!-- Generator: Adobe Illustrator 19.1.1, SVG Export Plug-In . SVG Version: 6.00 Build 0)  -->
<svg version="1.1"  xmlns="http://www.w3.org/2000/svg" xmlns:xlink="http://www.w3.org/1999/xlink" x="0px" y="0px"
	 viewBox="0 0 48 48" style="enable-background:new 0 0 48 48;" xml:space="preserve">
<rect x="2" y="9" style="fill:#3F51B5;" width="44" height="30"/>
<path style="fill:#FFEB3B;" d="M24,12l0.547,1.116l1.222,0.178l-0.884,0.868l0.209,1.227L24,14.81l-1.093,0.579l0.209-1.227
	l-0.884-0.868l1.222-0.178L24,12z M18.746,13.582l0.547,1.116l1.222,0.179l-0.884,0.868l0.209,1.227l-1.093-0.579l-1.093,0.579
	l0.208-1.227l-0.884-0.868l1.223-0.179L18.746,13.582z M15.013,17.049l0.547,1.116l1.223,0.178l-0.884,0.868l0.208,1.227
	l-1.093-0.579l-1.093,0.579l0.209-1.227l-0.884-0.868l1.222-0.178L15.013,17.049z M29.254,13.582l-0.547,1.116l-1.222,0.179
	l0.884,0.868l-0.209,1.227l1.093-0.579l1.093,0.579l-0.208-1.227l0.884-0.868l-1.223-0.179L29.254,13.582z M18.746,30.445
	l0.547,1.116l1.222,0.179l-0.884,0.868l0.209,1.227l-1.093-0.579l-1.093,0.579l0.208-1.227l-0.884-0.868l1.223-0.179L18.746,30.445z
	 M29.254,30.445l-0.547,1.116l-1.222,0.179l0.884,0.868l-0.209,1.227l1.093-0.579l1.093,0.579l-0.208-1.227l0.884-0.868
	l-1.223-0.179L29.254,30.445z M32.987,17.049l-0.547,1.116l-1.223,0.178l0.884,0.868l-0.208,1.227l1.093-0.579l1.093,0.579
	l-0.209-1.227l0.884-0.868l-1.222-0.178L32.987,17.049z M15.013,26.928l0.547,1.116l1.223,0.179l-0.884,0.868l0.208,1.227
	l-1.093-0.579l-1.093,0.579l0.209-1.227l-0.884-0.868l1.222-0.179L15.013,26.928z M32.987,26.928l-0.547,1.116l-1.223,0.179
	l0.884,0.868l-0.208,1.227l1.093-0.579l1.093,0.579l-0.209-1.227l0.884-0.868l-1.222-0.179L32.987,26.928z M34.231,22.305
	l0.547,1.116L36,23.6l-0.884,0.868l0.209,1.227l-1.093-0.579l-1.093,0.579l0.209-1.227L32.461,23.6l1.223-0.179L34.231,22.305z
	 M13.769,22.305l0.547,1.116l1.223,0.179l-0.885,0.868l0.209,1.227l-1.093-0.579l-1.093,0.579l0.209-1.227L12,23.6l1.222-0.179
	L13.769,22.305z M24,32.61l0.547,1.116l1.222,0.179l-0.884,0.868L25.093,36L24,35.421L22.907,36l0.209-1.227l-0.884-0.868
	l1.222-0.179L24,32.61z"/>
</svg>
