<?xml version="1.0" encoding="UTF-8" standalone="no"?>
<svg
   xmlns:dc="http://purl.org/dc/elements/1.1/"
   xmlns:cc="http://creativecommons.org/ns#"
   xmlns:rdf="http://www.w3.org/1999/02/22-rdf-syntax-ns#"
   xmlns:svg="http://www.w3.org/2000/svg"
   xmlns="http://www.w3.org/2000/svg"
   xmlns:sodipodi="http://sodipodi.sourceforge.net/DTD/sodipodi-0.dtd"
   xmlns:inkscape="http://www.inkscape.org/namespaces/inkscape"
   viewbox="0 0 256 256"
   id="svg2"
   data-ember-extension="1"
   version="1.1"
   sodipodi:docname="clojure.svg"
   width="256"
   height="256.005"
   inkscape:version="0.92.2 (5c3e80d, 2017-08-06)">
  <metadata
     id="metadata13">
    <rdf:RDF>
      <cc:Work
         rdf:about="">
        <dc:format>image/svg+xml</dc:format>
        <dc:type
           rdf:resource="http://purl.org/dc/dcmitype/StillImage" />
        <dc:title></dc:title>
      </cc:Work>
    </rdf:RDF>
  </metadata>
  <defs
     id="defs11" />
  <sodipodi:namedview
     pagecolor="#ffffff"
     bordercolor="#666666"
     borderopacity="1"
     objecttolerance="10"
     gridtolerance="10"
     guidetolerance="10"
     inkscape:pageopacity="0"
     inkscape:pageshadow="2"
     inkscape:window-width="2226"
     inkscape:window-height="1294"
     id="namedview9"
     showgrid="false"
     fit-margin-top="0"
     fit-margin-left="0"
     fit-margin-right="0"
     fit-margin-bottom="0"
     inkscape:zoom="2.36"
     inkscape:cx="50.847458"
     inkscape:cy="144.34087"
     inkscape:window-x="0"
     inkscape:window-y="55"
     inkscape:window-maximized="0"
     inkscape:current-layer="svg2" />
  <path
     d="M 127.999,0 C 57.423,0 0,57.423 0,128.001 0,198.585 57.423,256.005 127.999,256.005 198.577,256.005 256,198.585 256,128.001 256,57.423 198.577,0 127.999,0"
     id="path8"
     inkscape:connector-curvature="0"
     style="fill:#ffffff" />
  <path
     d="m 123.318,130.303 a 534.748,534.748 0 0 0 -3.733,8.272 c -4.645,10.524 -9.789,23.33 -11.668,31.534 -0.675,2.922 -1.093,6.543 -1.085,10.558 0,1.588 0.085,3.257 0.22,4.957 a 61.266,61.266 0 0 0 21.067,3.753 61.374,61.374 0 0 0 19.284,-3.143 c -1.425,-1.303 -2.785,-2.692 -4.023,-4.257 -8.22,-10.482 -12.806,-25.844 -20.062,-51.674"
     id="path10"
     inkscape:connector-curvature="0"
     style="fill:#91dc47" />
  <path
     d="m 92.97,78.225 c -15.699,11.064 -25.972,29.312 -26.011,49.992 0.039,20.371 10.003,38.383 25.307,49.493 3.754,-15.637 13.164,-29.955 27.275,-58.655 a 230.831,230.831 0 0 0 -2.862,-7.469 C 112.77,101.78 107.128,90.392 102.093,85.235 99.526,82.541 96.411,80.213 92.97,78.225"
     id="path12"
     inkscape:connector-curvature="0"
     style="fill:#91dc47" />
  <path
     d="m 181.394,198.367 c -8.1,-1.015 -14.785,-2.24 -20.633,-4.303 a 73.181,73.181 0 0 1 -32.642,7.643 c -40.584,0 -73.483,-32.894 -73.488,-73.49 0,-22.027 9.704,-41.773 25.056,-55.24 -4.106,-0.992 -8.388,-1.571 -12.762,-1.563 -21.562,0.203 -44.323,12.136 -53.799,44.363 -0.886,4.691 -0.675,8.238 -0.675,12.442 0,63.885 51.791,115.676 115.671,115.676 39.122,0 73.682,-19.439 94.611,-49.169 -11.32,2.821 -22.206,4.17 -31.528,4.199 -3.494,0 -6.774,-0.187 -9.811,-0.558"
     id="path14"
     inkscape:connector-curvature="0"
     style="fill:#63b132" />
  <path
     d="m 159.658,175.953 c 0.714,0.354 2.333,0.932 4.586,1.571 15.157,-11.127 25.007,-29.05 25.046,-49.307 h -0.006 C 189.227,94.446 161.898,67.121 128.119,67.054 a 61.312,61.312 0 0 0 -19.203,3.122 c 12.419,14.156 18.391,34.386 24.168,56.515 0.003,0.01 0.008,0.018 0.01,0.026 0.011,0.018 1.848,6.145 5.002,14.274 3.132,8.118 7.594,18.168 12.46,25.492 3.195,4.908 6.709,8.435 9.102,9.47"
     id="path16"
     inkscape:connector-curvature="0"
     style="fill:#90b4fe" />
  <path
     d="m 128.122,12.541 c -38.744,0 -73.016,19.073 -94.008,48.318 10.925,-6.842 22.08,-9.31 31.815,-9.222 13.446,0.039 24.017,4.208 29.089,7.06 a 53.275,53.275 0 0 1 3.527,2.247 73.183,73.183 0 0 1 29.574,-6.215 c 40.589,0.005 73.493,32.899 73.499,73.488 h -0.006 c 0,20.464 -8.37,38.967 -21.863,52.291 3.312,0.371 6.844,0.602 10.451,0.584 12.811,0.006 26.658,-2.821 37.039,-11.552 6.769,-5.702 12.44,-14.051 15.585,-26.569 0.615,-4.835 0.969,-9.75 0.969,-14.752 0,-63.882 -51.786,-115.678 -115.671,-115.678"
     id="path18"
     inkscape:connector-curvature="0"
     style="fill:#5881d8" />
</svg>
