<?xml version="1.0" encoding="utf-8"?>
<!-- Generator: Adobe Illustrator 19.2.1, SVG Export Plug-In . SVG Version: 6.00 Build 0)  -->
<svg version="1.1" id="Calque_1" xmlns="http://www.w3.org/2000/svg" xmlns:xlink="http://www.w3.org/1999/xlink" x="0px" y="0px"
	 viewBox="0 0 397.4 397.4" style="enable-background:new 0 0 397.4 397.4;" xml:space="preserve">
<style type="text/css">
	.st0{fill:url(#SVGID_1_);}
	.st1{fill:url(#SVGID_2_);}
	.st2{fill:url(#SVGID_3_);}
	.st3{fill:url(#SVGID_4_);}
	.st4{fill:url(#SVGID_5_);}
	.st5{fill:url(#SVGID_6_);}
	.st6{fill:url(#SVGID_7_);}
	.st7{fill:#330A4C;fill-opacity:0.32;}
	.st8{fill:#FFFFFF;}
	.st9{fill:#EDEDED;fill-opacity:0.6;}
</style>
<title>elixir</title>
<linearGradient id="SVGID_1_" gradientUnits="userSpaceOnUse" x1="206.7495" y1="-0.4499" x2="206.7296" y2="0.4801" gradientTransform="matrix(257.1 0 0 396.38 -52953.6289 206.6876)">
	<stop  offset="0" style="stop-color:#D9D8DC"/>
	<stop  offset="1" style="stop-color:#FFFFFF;stop-opacity:0.39"/>
</linearGradient>
<path class="st0" d="M209.8,1c-28.9,10.2-56.7,40.1-83.6,89.6c-40.3,74.2-92.4,179.8-20.7,263.3c33.2,38.6,87.9,61.5,159.8,25.3
	c57.7-29,73.8-112.3,53-151.4c-42.8-80.7-86.1-100.7-97.7-150.7C212.8,43.7,209.2,18.3,209.8,1z"/>
<linearGradient id="SVGID_2_" gradientUnits="userSpaceOnUse" x1="206.8012" y1="-0.4626" x2="206.5912" y2="0.4574" gradientTransform="matrix(197.43 0 0 392.6 -40632 207.2013)">
	<stop  offset="0" style="stop-color:#8D67AF;stop-opacity:0.67"/>
	<stop  offset="1" style="stop-color:#9F8DAF"/>
</linearGradient>
<path class="st1" d="M209.8,0c-29,10.3-56.9,40.2-83.6,89.6c-40.1,74.1-92.4,179.8-20.7,263.3c33.2,38.6,87.2,51.1,117.2,28.2
	c19.6-14.9,32.8-29.2,40.5-59.2c8.5-33.4,2-78.4-2.5-99.1c-5.7-26.2-7.5-54.9-5.6-86.1l-1.6-1.9c-15.6-19.1-27.7-35.8-33-58.8
	C212.8,42.7,209.2,17.3,209.8,0z"/>
<linearGradient id="SVGID_3_" gradientUnits="userSpaceOnUse" x1="206.6944" y1="-0.2309" x2="206.6944" y2="0.439" gradientTransform="matrix(220.53 0 0 380.15 -45365.1094 219.7206)">
	<stop  offset="0" style="stop-color:#26053D;stop-opacity:0.76"/>
	<stop  offset="1" style="stop-color:#B7B4B4;stop-opacity:0.28"/>
</linearGradient>
<path class="st2" d="M185.8,13c-27,21.3-47.1,57.2-60.3,107.5c-19.7,75.4-21.9,145-14.9,185.5c13.5,78.4,83.5,108.2,155.3,71.7
	c44.2-22.5,62.6-70.7,61.6-123.1c-1-54.2-105.8-115.6-124.3-160.9C190.7,63.6,184.9,36.7,185.8,13z"/>
<linearGradient id="SVGID_4_" gradientUnits="userSpaceOnUse" x1="206.4398" y1="-0.976" x2="206.8399" y2="-0.176" gradientTransform="matrix(257.41 0 0 195.56 -53017.8008 330.4609)">
	<stop  offset="0" style="stop-color:#91739F;stop-opacity:0.46"/>
	<stop  offset="1" style="stop-color:#32054F;stop-opacity:0.54"/>
</linearGradient>
<path class="st3" d="M254.3,154.4c32.4,41.6,39.5,70.5,21.2,86.8c-27.4,24.5-94.5,40.4-136.2,10.8c-27.8-19.7-38.3-62-31.6-126.9
	c-11.3,23.6-21.1,47.9-29.1,72.8c-7.9,24.6-10.3,50.3-7,77.2c9.9,20.1,34.1,33.5,72.5,40.3c57.6,10.1,112.1,5.1,148.7-13.3
	c24.4-12.3,35.9-24.5,34.6-36.7c0.9-18-4.7-35.1-16.6-51.4C298.8,197.9,280,178,254.3,154.4z"/>
<linearGradient id="SVGID_5_" gradientUnits="userSpaceOnUse" x1="206.9607" y1="0.161" x2="206.2507" y2="-0.589" gradientTransform="matrix(198.95 0 0 256.49 -40905.8984 318.8513)">
	<stop  offset="0" style="stop-color:#463D49;stop-opacity:0.33"/>
	<stop  offset="1" style="stop-color:#340A50;stop-opacity:0.82"/>
</linearGradient>
<path class="st4" d="M127.6,112.9c-0.3,30,7.4,58.5,23.2,85.6c23.6,40.6,51.1,80.7,92.2,113.9c27.4,22.2,49.4,29.3,65.8,21.5
	c-13.5,24.1-27.8,35.9-43,35.5c-22.8-0.7-50.6-10.7-95.1-64.2c-29.7-35.7-50-69.4-60.9-101.2c1.7-12.6,3.6-25.2,5.5-37.7
	S121.4,136.1,127.6,112.9z"/>
<linearGradient id="SVGID_6_" gradientUnits="userSpaceOnUse" x1="206.6352" y1="-0.6958" x2="206.3652" y2="0.2243" gradientTransform="matrix(118.15 0 0 272.92 -24188.7793 320.2523)">
	<stop  offset="0" style="stop-color:#715383;stop-opacity:0.15"/>
	<stop  offset="1" style="stop-color:#F4F4F4;stop-opacity:0.23"/>
</linearGradient>
<path class="st5" d="M197.2,154.1c2.5,24.5,12,63.6,0,89.6s-67.6,73.1-52.3,114.6s52.7,32.1,76.2,13s36-50.2,38.8-72
	s-6.7-63.9-9.7-100.4c-2-24.4-0.7-45.3,4.2-62.7l-7.2-9l-42.3-12.5C198.1,124.7,195.5,137.8,197.2,154.1z"/>
<linearGradient id="SVGID_7_" gradientUnits="userSpaceOnUse" x1="206.8964" y1="-0.2781" x2="205.6864" y2="-0.5082" gradientTransform="matrix(71.46 0 0 220.28 -14538.9102 238.6816)">
	<stop  offset="0" style="stop-color:#A5A1A8;stop-opacity:0.36"/>
	<stop  offset="1" style="stop-color:#370C50;stop-opacity:0.58"/>
</linearGradient>
<path class="st6" d="M212.3,33c-13.7,5.8-26.7,17.2-38.9,34.4c-18.4,25.7-27.7,41.1-20.8,92.1c4.6,34,7.9,65.3,9.9,93.8l59.3-172.2
	c-2.2-8.7-4-16.7-5.5-23.8C214.9,50.2,213.5,42.1,212.3,33z"/>
<path class="st7" d="M221.7,80.8c-15,8.8-26.7,26.8-35,54C178.4,162,170.8,200,164,248.8c9.2-31.1,15.2-53.6,18.2-67.5
	c4.5-20.9,6-50.5,17.9-70.5C208,97.4,215.2,87.4,221.7,80.8z"/>
<path class="st8" d="M152,372.2c24.8,3.5,37.7,6.7,38.8,9.4c1.7,4.1-3.1,7.9-16.9,5.4C164.8,385.3,157.5,380.3,152,372.2z"/>
<path class="st9" d="M164.4,33C151,49,139.1,66.4,129,84.7c-10,18.2-17.1,31.8-21.4,40.8c-1.3,6.7-2,16.5-1.9,29.6
	c0.1,14.6,1.3,29.1,3.4,43.5c1.9-31,7.9-61.6,17.9-91.1C137,78.2,149.5,53.3,164.4,33z"/>
</svg>
