<?xml version="1.0" encoding="utf-8"?>
<!-- Generator: Adobe Illustrator 19.2.1, SVG Export Plug-In . SVG Version: 6.00 Build 0)  -->
<svg version="1.1"
	 id="svg3944" inkscape:version="0.48.0 r9654" sodipodi:docname="groovy-logo.svg" xmlns:cc="http://creativecommons.org/ns#" xmlns:dc="http://purl.org/dc/elements/1.1/" xmlns:inkscape="http://www.inkscape.org/namespaces/inkscape" xmlns:rdf="http://www.w3.org/1999/02/22-rdf-syntax-ns#" xmlns:sodipodi="http://sodipodi.sourceforge.net/DTD/sodipodi-0.dtd" xmlns:svg="http://www.w3.org/2000/svg"
	 xmlns="http://www.w3.org/2000/svg" xmlns:xlink="http://www.w3.org/1999/xlink" x="0px" y="0px" viewBox="0 0 614.1 614.1"
	 style="enable-background:new 0 0 614.1 614.1;" xml:space="preserve">
<style type="text/css">
	.st0{fill:#333333;}
	.st1{fill:#6398AA;}
</style>
<sodipodi:namedview  bordercolor="#666666" borderopacity="1.0" fit-margin-bottom="0" fit-margin-left="0" fit-margin-right="0" fit-margin-top="0" id="base" inkscape:current-layer="layer1" inkscape:cx="288.36242" inkscape:cy="84.929822" inkscape:document-units="px" inkscape:pageopacity="0.0" inkscape:pageshadow="2" inkscape:window-height="822" inkscape:window-maximized="1" inkscape:window-width="1600" inkscape:window-x="0" inkscape:window-y="28" inkscape:zoom="1.2316035" pagecolor="#ffffff" showgrid="false">
	</sodipodi:namedview>
<g id="layer1" transform="translate(-35.396599,-30.558196)" inkscape:groupmode="layer" inkscape:label="Ebene 1">
	<path id="path4019" inkscape:connector-curvature="0" class="st0" d="M155,487.9c0-0.8,10.8-18.6,24.1-39.6
		c13.2-21,22.7-38.6,20.9-39.2c-1.7-0.6-7.7,0.5-13.2,2.4c-16.7,5.8-20.2,4.3-32.7-14.7c-13.5-20.5-14-22.7-7-30.5
		c4.6-5.1,4.3-6.3-3.2-13.8c-4.6-4.6-8.3-9.6-8.3-11.3c0-2.8-31-15.6-80-33c-11.1-3.9-20.2-7.8-20.2-8.6c0-0.8,23.5-1,52.2-0.4
		l52.2,1.1l5.1-8c21.5-33.9,54-64.6,68.5-64.6c3,0,9.1,2.9,13.6,6.4c7.3,5.7,8.3,9.2,9.5,33.9c0.8,15.1,2.4,28.5,3.6,29.7
		c1.2,1.2,5-0.4,8.4-3.5c4.4-4,9-5.1,15.6-3.6c6.8,1.5,10.6,0.5,14.2-3.7c5.3-6.3,31.9-48.9,31.9-51.1c0-0.8,5.3-9.8,11.7-20
		c6.4-10.3,13.8-22.1,16.5-26.3c4.7-7.5,5.4-6.6,33.4,40.4c28.9,48.5,44.5,66.4,52.3,60.1c5.4-4.4,34-4.6,42-0.4
		c4.5,2.4,7.4,2.4,9.9-0.1c5.2-5.2,17.6-4.3,20.9,1.5c2.6,4.6,3.2,4.6,7,0c2.3-2.8,9.1-5.1,15.2-5.1c8.5,0,11.8,1.8,14.6,8l3.6,8
		l56.1-2c30.9-1.1,56.1-1.3,56.1-0.4c0,0.9-22.9,10.1-50.9,20.5s-51.4,19.2-51.9,19.6c-0.6,0.4,0.7,9.5,2.8,20.2
		c5.5,28,1.9,46.6-11.9,61.9c-6.2,6.9-16.3,14.1-22.4,16.2c-6.1,2-11.1,4.4-11.1,5.3s6.5,11.7,14.5,24c8,12.3,13.3,22.4,11.8,22.4
		c-2.4,0-60.5-22.4-150.8-58.3c-17.8-7.1-34-12.8-36-12.8c-3.8,0-36.2,12.3-131.2,49.7C157.1,489.7,155,490.5,155,487.9L155,487.9z
		 M268.1,436.7c29.3-11.4,58.4-22.5,64.6-24.7c10.7-3.8,14.3-2.9,66.3,17.7c30.2,11.9,60,23.6,66.3,25.9c6.2,2.3,19,7.2,28.5,11
		c10.8,4.3,16.3,5.3,14.8,2.8c-16.9-28.6-17.4-29-29.1-26.8c-14.1,2.6-22.9-0.1-27.4-8.5c-2.9-5.5-2-8.1,5.3-15.7
		c10.8-11.3,9.1-21.7-4.8-29.6c-5.4-3-12.1-10.5-15.1-16.6l-5.3-11.1l-11.3,7.7c-13.9,9.5-31,10-45.1,1.3l-10.5-6.4l-12.2,8.3
		c-12.2,8.3-26.2,9.3-40.4,3.1c-3.9-1.7-5.7-1.1-5.7,2.2c0,2.6-3.7,6.4-8.2,8.4c-13.6,6.2-26.8,4.5-35.8-4.4l-8.2-8.2l-6.6,8.4
		c-3.6,4.6-12,11.8-18.7,16c-8.2,5.2-18.4,17.9-31.9,39.7c-10.9,17.6-19.8,33-19.8,34.1c0,1.1,8.4-1.5,18.6-5.8
		C206.4,460.9,238.8,448.1,268.1,436.7L268.1,436.7z M516.9,424.4c22.3-12.5,27.4-35.6,17.6-78.8c-8.2-36.1-12.3-47.9-17.2-49.5
		c-3.4-1.1-3.9,0.1-2,4.6c12.3,29.3,13,43.9,2.2,48.1c-7.4,2.8-15.2-7.8-21.4-29c-4.8-16.4-9.8-23.8-13.5-20.1
		c-0.9,0.9,0.7,6.1,3.5,11.6c2.8,5.5,6.7,22,8.6,36.7c1.9,14.7,5.6,30.1,8.2,34.2c6.8,10.7,17.6,8.1,24.5-5.9
		c6.9-13.8,7.7-4.6,1,11.4c-7,16.7-27.6,21.7-51.6,12.5c-3.8-1.5-5.1,0.1-5.1,6c0,4.4-2.9,11.7-6.5,16.3l-6.5,8.3l8.9,1.5
		C483.1,434.9,504.2,431.5,516.9,424.4z M196.5,396.9c46.5-13.4,54.8-28.9,39.3-73.8c-3.6-10.4-6.5-21.6-6.5-24.9
		c0-11.2-5.6-6-9.8,9c-5.6,19.9-22.3,36.8-36.3,36.7c-12.2-0.1-16.2-2.3-21.2-11.9c-9-17.2,0.8-43.6,26-69.5
		c18.4-19,28.5-20.7,28.5-4.9c0,24.7-17,61-26,55.5c-4.4-2.7-3.7-14.7,1.4-23.9c4.3-7.8,3.4-19.7-1.5-19.7
		c-5.7,0-16.9,20.7-18.4,33.9c-1.3,11.7-0.5,14.5,5.1,17.5c19.5,10.4,45-21.4,46.3-57.7c0.7-19.1-3-24.4-14.8-21.5
		c-17.1,4.3-63.2,63.8-63.2,81.6c0,13.9,7,23.7,19.3,27c20.9,5.6,41.1-4.4,55.5-27.4l6-9.7l0,13.2c0,19.1-12.4,29.1-51.7,41.8
		c-9.8,3.1-18.2,6.1-18.7,6.5c-1.8,1.5,16.7,27.5,19.6,27.5C176.9,402.1,186.4,399.8,196.5,396.9L196.5,396.9z M476.4,373.2
		c4.7-5.2,5.5-10.8,4.5-30.5c-1.1-21.5-2.3-25.3-10.7-34.1c-15.1-15.8-33.9-11.8-22.9,4.9c5.8,8.9,12.9,7.4,10.4-2.2
		c-2-7.6,1.7-7.8,8.2-0.4c12.2,13.9,9.1,33.1-5.3,33.1c-9.9,0-12.9-4.2-19.4-26.7c-2.9-10.2-6.5-18.6-7.9-18.6
		c-4.8,0-6.9,4.2-3.9,7.8c1.6,1.9,6.1,15.9,9.9,31C449,375.5,462.5,388.5,476.4,373.2L476.4,373.2z M292.6,373.8
		c2-1.3,2.9-7.6,2.1-14.4c-1.3-10.9-2.1-11.7-8-8.6c-8.5,4.5-17.6-4.1-20.7-19.5c-2.3-11.7-3.1-11.5,14-4.5
		c2.1,0.9,7.6-2.1,12.1-6.6c8.3-8.3,11-18.2,5-18.2c-1.8,0-3.2,1.5-3.2,3.2c0,4.6-8.8,4-10.8-0.8c-1.2-2.8-3.6-1.8-8.1,3.2
		c-3.5,4-7.8,7.3-9.5,7.3s-4.1-3.3-5.2-7.3c-2-7-2.2-7.1-6.7-1.2c-3.9,5.1-3.9,6.7-0.2,10.5c3.9,3.9,11.4,30.9,11.4,41.1
		C264.9,370.7,282.4,380.7,292.6,373.8L292.6,373.8z M351.6,356.9c12.1-12.1,15.7-30.4,9.1-46.2c-5.2-12.4-14.1-17-26.8-13.8
		c-9.4,2.4-23.7,29.8-23.8,45.5C310.1,367,333.4,375.1,351.6,356.9L351.6,356.9z M329.5,337.5c-3.6-3.6-6.4-10.5-6.4-15.4
		c0.1-8.1,0.5-8.4,4.4-3.2c4.8,6.4,13.4,7.5,16.7,2.1c1.2-1.9,0.6-5.1-1.4-7.1c-5.1-5.1-4.5-12,1.1-12c6.2,0,14.7,12.5,14.7,21.5
		c0,6.6-13.4,20.5-19.8,20.5C337.2,344,333.1,341,329.5,337.5L329.5,337.5z M415.8,356.1c13.4-14.6,12.1-37.1-3.1-53.3
		c-7.9-8.4-25.3-9.8-32.4-2.7c-6.6,6.6-13.2,32.5-10.7,42.2C374.8,363.1,402,371.2,415.8,356.1z M388.4,332.5c-5.3-3.7-7.1-8.1-7-17
		c0.2-9.9,0.7-10.7,3-5.1c3.3,8.3,10.4,11.4,16.5,7.4c3.8-2.5,3.6-3.7-1.1-7.3c-6.3-4.8-7.6-11.7-2.1-11.7
		c4.9,0,22.3,19.1,22.3,24.4c0,5.2-12.4,14.4-19.4,14.4C397.8,337.5,392.3,335.2,388.4,332.5z M578.4,318.2l33.9-12.7l-36.4-0.1
		c-32.5-0.1-36.4,0.5-36.3,5.5c0,5.1,3.3,20.3,4.4,20.1C544.2,330.9,559.7,325.2,578.4,318.2L578.4,318.2z M134.9,315.9l3.5-10.3
		l-30.5-1c-16.8-0.6-30.5-0.1-30.5,1c0,1.6,52.5,22.1,53.7,21C131.2,326.3,133,321.5,134.9,315.9z M343.8,284
		c7.2,1.1,15.2,4.1,18,6.5c4.2,3.8,6,3.5,12.6-1.8c4.2-3.4,9.7-6.2,12.1-6.2c2.5,0,4.5-0.7,4.5-1.6c0-3-46.5-79.2-48.3-79.1
		c-2.1,0.1-49.8,80.1-51.3,85.9c-0.6,2.4,1.3,3.4,5.1,2.4c3.3-0.9,8,0.7,10.3,3.5c3.7,4.5,5.3,4.1,14.1-3.3
		C329.2,283.2,332.7,282.2,343.8,284L343.8,284z"/>
	<path id="path4567" inkscape:connector-curvature="0" class="st1" d="M309.5,296.1c-0.5-0.2-1.1-0.8-2.5-2.2
		c-1.9-1.9-2.7-2.5-4.3-3.1c-2.1-0.9-4.4-1.1-6.5-0.7c-1.9,0.4-2.4,0.4-3.3,0.3c-1.4-0.3-1.9-1.1-1.5-2.6c0.5-1.8,4.3-8.9,12-22.3
		c15.6-27.1,36.5-61.2,38.9-63.3c0.3-0.2,0.3-0.2,0.5,0c1.4,1.2,9.5,13.7,20.5,31.7c15,24.3,27.4,45.6,27.4,47
		c0,0.9-1.3,1.4-4.1,1.6c-3.4,0.3-7.4,2.3-12.9,6.5c-2.6,2-3.7,2.8-5,3.4c-1,0.5-1.1,0.5-2.3,0.5c-1.1,0-1.2,0-2.1-0.5
		c-0.5-0.3-1.5-0.9-2.2-1.6c-2.2-1.8-4.8-3.1-9.1-4.6c-5.4-1.8-11.2-2.9-16.2-3c-3.9-0.1-5.7,0.2-8.7,1.7c-2.4,1.2-3.6,2-9.1,6.5
		C313.6,296.1,311.6,297.1,309.5,296.1L309.5,296.1z"/>
	<path id="path4571" inkscape:connector-curvature="0" class="st1" d="M128.6,326c-10.2-3-45.5-16.9-50.5-19.9
		c-0.7-0.4-0.7-0.5-0.5-0.6c1.1-0.8,12.3-1.2,25-0.9c5.1,0.1,35.5,1.1,35.6,1.2c0.1,0.1-6.5,19.3-7,20.4
		C131,326.5,130.5,326.5,128.6,326z"/>
	<path id="path4573" inkscape:connector-curvature="0" class="st1" d="M543.7,330.5c-1.4-2.7-3.9-15-4-19.4c0-1.7,0.2-2.4,1-3.1
		c1.8-1.6,5.4-2.2,15.3-2.5c5-0.1,28.1-0.2,44.4,0l11.4,0.1l-27.5,10.3c-25.1,9.4-39.7,14.8-40.2,15
		C543.9,330.9,543.8,330.8,543.7,330.5L543.7,330.5L543.7,330.5z"/>
	<path id="path4575" inkscape:connector-curvature="0" class="st1" d="M178.1,470.7c0-0.8,3.3-6.5,11.6-20.4
		c19.9-33.1,28.9-45.2,40.1-53c10-7.1,15.3-11.9,21.2-19.4l3.7-4.6l4.9,4.9c8.6,8.5,13.9,11,23.3,11c11.5,0.1,24.2-6.4,24.2-12.3
		c0-1.3,1-2.7,1.9-2.7c0.4,0,2.6,0.7,4.9,1.5c6.1,2.2,9.6,3,14.6,3.2c4.9,0.3,8.5-0.2,13.4-1.6c4.7-1.4,7.4-2.9,15.6-8.3
		c4.1-2.7,7.6-5,7.8-5s3.1,1.7,6.6,3.8s7.6,4.4,9.2,5.1c11.1,4.7,23,4.4,34-0.9c2-0.9,6.6-3.7,10.2-6.2s6.7-4.4,6.8-4.4
		c0.1,0.1,1.5,2.9,3.1,6.3c1.6,3.4,3.7,7.3,4.6,8.6c3.8,5.6,8.2,9.8,14.1,13.4c6.1,3.7,9.8,8.7,10.2,13.5c0.4,4.8-1.7,9-7.7,15.7
		c-4.7,5.2-5.9,7.2-5.9,10.1c0,2.9,1.7,6.2,4.7,9.2c4.8,4.8,12.3,6.3,23.4,4.5c2.5-0.4,5.6-0.7,6.9-0.7c4.3,0,6.9,2.1,11.9,9.5
		c3.4,5.1,11,17.8,11,18.4c0,0.3-0.4,0.6-0.9,0.6c-1.1,0-5.6-1.2-8.9-2.4c-4.3-1.6-57.3-22-74.7-28.9c-46.7-18.4-62-24.2-69.5-26.5
		c-8.1-2.5-13.6-3.1-18.1-1.9c-5.6,1.4-81.7,30.9-126.1,48.7c-21.9,8.8-24.7,9.9-28.8,11C178,471.3,178.1,471.3,178.1,470.7
		L178.1,470.7z"/>
</g>
</svg>
