<?xml version="1.0" standalone="no"?>
<!DOCTYPE svg PUBLIC "-//W3C//DTD SVG 20010904//EN"
 "http://www.w3.org/TR/2001/REC-SVG-20010904/DTD/svg10.dtd">
<svg version="1.0" xmlns="http://www.w3.org/2000/svg" viewBox="0 0 532 532"
 preserveAspectRatio="xMidYMid meet">
<g transform="translate(0,532) scale(0.100000,-0.100000)"
fill="#333" stroke="none">
<path d="M1403 4807 c-836 -279 -1143 -386 -1143 -397 -1 -8 54 -383 122 -832
l122 -818 1028 0 1028 0 0 1215 c0 668 -3 1215 -7 1214 -5 0 -522 -172 -1150
-382z m1017 -862 l0 -1045 -897 2 -897 3 -107 710 c-59 391 -106 711 -106 711
7 5 1985 663 1995 663 9 1 12 -214 12 -1044z"/>
<path d="M2760 3976 l0 -1216 1028 0 1027 0 123 818 c68 449 123 824 122 832
0 11 -306 117 -1137 394 -626 208 -1144 381 -1150 384 -10 3 -13 -243 -13
-1212z"/>
<path d="M540 2538 c1 -13 49 -342 108 -732 l107 -710 890 -469 c490 -258 896
-471 903 -474 9 -4 12 240 12 1201 l0 1206 -1010 0 -1010 0 0 -22z m1880
-1139 c0 -561 -4 -1019 -8 -1017 -5 2 -350 183 -769 403 l-760 400 -88 585
c-48 322 -90 600 -93 618 l-5 32 862 0 861 0 0 -1021z"/>
<path d="M2760 1354 c0 -961 3 -1205 13 -1201 6 3 412 216 902 474 l890 469
107 710 c59 390 107 719 108 732 l0 22 -1010 0 -1010 0 0 -1206z"/>
</g>
</svg>
