<?xml version="1.0" encoding="utf-8"?>
<!-- Generator: Adobe Illustrator 19.2.1, SVG Export Plug-In . SVG Version: 6.00 Build 0)  -->
<svg version="1.1" id="Calque_1" xmlns="http://www.w3.org/2000/svg" xmlns:xlink="http://www.w3.org/1999/xlink" x="0px" y="0px"
	 viewBox="0 0 200 200" style="enable-background:new 0 0 200 200;" xml:space="preserve">
<style type="text/css">
	.st0{fill:#404041;}
	.st1{fill:#027F69;}
	.st2{fill:#EE5344;}
	.st3{fill:#4BA494;}
	.st4{fill:#EDF3ED;}
</style>
<title>mosca_small</title>
<path class="st0" d="M45,184.1c0-14.5,0.2-16,2-18c2.6-2.9,6.7-3.8,10.3-2.4c2,0.7,3.6,0.8,4.8,0.2c4-2.2,10-0.3,11.8,3.7
	c0.6,1.4,1.1,8.5,1.1,17.3v15h-5.9l-0.3-15.2l-0.3-15.3h-5l-0.3,15.3l-0.3,15.2h-5.8l-0.3-15.2l-0.3-15.3h-5l-0.3,15.3l-0.3,15.2H45
	V184.1z"/>
<path class="st0" d="M82.9,198c-2.3-1.8-2.4-2.6-2.7-15.5l-0.4-13.6l3-3c3.2-3.2,6.4-3.8,10.5-1.9c3.9,1.8,4.7,5,4.7,18.5
	c0,11.9-0.1,12.6-2.5,14.9C92.5,200.5,86.3,200.8,82.9,198z M90.9,193.5c0.8-0.9,1.1-5.2,0.9-12.7l-0.3-11.4h-5l-0.3,11.4
	c-0.3,10.7,0.4,14.1,2.8,14.1C89.8,194.7,90.4,194.2,90.9,193.5z"/>
<path class="st0" d="M105.1,198c-2.4-2.4-3.8-8.8-2.3-10.3c1.8-1.8,4.7-0.4,5,2.4c0.4,3.2,2.4,5.1,4.5,4.2c3-1.1,2.4-3.1-3.4-10.9
	c-6.6-8.8-7.5-10.9-6-14.7c1.5-4,5.7-6.4,9.9-5.5c4.7,0.8,7.2,3.8,7.2,8.8c0,3.4-0.3,3.9-2.4,3.9c-1.8,0-2.5-0.7-3-3
	c-0.7-3.6-3.2-4.9-5.3-2.7c-1.5,1.4-1,2.3,4.5,9.8c6.9,9.2,7.7,12.7,4.1,17.3c-1.7,2.1-2.9,2.6-6.5,2.6
	C108.4,199.9,106.4,199.3,105.1,198z"/>
<path class="st0" d="M127.2,197.6c-2-2.2-2.2-3.3-2.2-16.1c0-13.2,0.1-13.8,2.5-16.1c5.5-5.6,14.5-1.6,14.5,6.5c0,3.6-0.3,4-2.4,4
	c-1.9,0-2.5-0.6-2.8-2.6c-0.4-3.5-3.1-5.3-5.2-3.5c-2.3,1.9-2.3,21.2,0,23.5c0.5,0.7,1.2,1.2,1.9,1.6c1.3,0,3.5-3.5,3.5-5.6
	c0-1.9,0.5-2.4,2.5-2.4c2.3,0,2.5,0.4,2.5,4.3c0,3.3-0.6,4.9-2.3,6.5C136.4,200.8,130.1,200.7,127.2,197.6z"/>
<path class="st0" d="M147,184.2c0.1-16.5,0.4-17.8,4.7-20.1c3.4-1.9,6.9-1.4,10,1.2l2.8,2.4l0.3,16.1l0.3,16.1H159v-15h-7v7.5
	c0,7.3-0.1,7.5-2.5,7.5H147V184.2z M158.8,174.8c-0.6-8.1-6.8-7.3-6.8,0.8c0,3.1,0.2,3.3,3.6,3.3S159.1,178.9,158.8,174.8
	L158.8,174.8z"/>
<path class="st0" d="M50,155c0.7-3,1.5-5.9,2.5-8.8c2.7-8.5,7-16.4,12.7-23.3c4.3-4.9,4.2-10,0-12c-2.8-1.5-5.4-3.2-7.9-5.1l-5.2-4
	l-9.9,3c-5.5,1.7-10.7,3.1-11.6,3.1c-2.2,0-2.1-3.7,0.2-4.4c0.9-0.2,5.6-1.7,10.3-3.1l8.6-2.6l-1.5-3.4c-1.3-2.8-2.8-3.8-10.1-6.7
	c-6.8-2.7-8.7-3.8-8.9-5.6c-0.4-2.8,0.3-2.8,9.3,0.8c4.2,1.7,7.8,3,8,3c1.4,0,0.2-2.6-2.6-5.8c-5.2-5.6-8-13-7.8-20.7
	c0-3.6,0.4-7.3,1.3-10.8c3.1-8.4,9.8-15.1,18.2-18.2c3.5-1.2,4-1.9,7.4-10.6c6.6-17,8.9-20.3,13.6-19.7c2.3,0.3,3.7,2.2,10.8,15.3
	l8.2,15l3.9,0.3l4,0.2l9.5-14.5c10-15.3,12.3-17.3,16-14c1.9,1.7,8.4,14.6,11.5,22.7c1.4,3.8,2.4,4.9,5,5.8c2.9,1.3,5.6,3.1,8,5.2
	c12.6,10.8,14,29.7,3.2,42.3c-0.2,0.2-0.3,0.4-0.5,0.6c-6.2,6.9-4.7,8,5.1,3.9c4.2-1.7,8.1-2.9,8.7-2.5c2.7,1.7,0,4.1-8.3,7.4
	c-7.6,3.1-9.1,4.1-10.2,6.8l-1.4,3.2l8.7,2.6c4.8,1.5,9.5,2.8,10.5,3.1c2.2,0.7,2.3,4.4,0.1,4.4c-0.9,0-6.3-1.4-12.1-3.1l-10.6-3
	l-2.6,2.4c-3.3,3.1-7.6,5.8-8.2,5.3c-0.2-0.3-0.3,1.4,0,3.7c0.3,3.3,1.4,5.3,5.2,9.6c6,7,10.5,15.2,13.3,24c3,10.1,8.8,9.1-51.4,9.1
	C70.3,155.9,50,155.5,50,155z"/>
<path class="st1" d="M54.7,152.7c1.1-6.4,6.4-17.4,11.3-23.8c5.4-7.2,5.8-8.1,3.4-10.1c-1.2-1-1.5-2.5-1.2-5.9l0.4-4.5l-5.8-3.7
	c-3.2-2.1-5.8-4.4-5.8-5.2s-1.1-2.1-2.5-3c-3.1-2-3.2-3.7-0.4-3.3c3.4,0.3,3.3-1.9-0.1-3.3c-2.7-1.1-3.1-1.7-2.8-4.4s0-3.1-2.3-3.1
	c-3.7,0-6.4-2.8-10.1-10.2c-2.8-5.8-3-6.8-2.6-14.5c0.3-5.9,1.1-9.5,2.6-12.5c4.3-8.2,12.9-14.8,20.6-15.6c1.4-0.1,2.7-0.4,4-0.8
	c0.2-0.2,2-4.4,4-9.4c3.8-9.5,7-15.5,8.4-15.5c0.4,0,4.4,6.6,8.8,14.8c7.6,13.9,8,14.8,6.2,16c-2.4,1.7-1.4,3.6,1.2,2.2
	s13.6-1.3,16.2,0.1c2.9,1.6,3.7,0.1,0.9-2l-2.3-1.8l9.5-14.2l9.5-14.2l2,2.8c2.3,4.1,4.4,8.3,6.2,12.6c3.7,8.4,4.6,9.7,6.7,9.7
	c6.5,0,15.8,7.2,20,15.4c3.5,7.2,4.1,15.4,1.8,23c-2.2,6.9-8.6,14.7-11.8,14.3c-1.9-0.2-2.2,0.2-1.9,2.9c0.2,2.4-0.2,3.3-2.3,4.2
	c-3,1.4-3.5,4.7-0.5,3.9c1.7-0.4,1.8-0.2,0.9,1.4c-0.6,1.1-1.7,1.8-2.9,1.9c-1-0.1-1.9,0.6-2,1.6c0,0.1,0,0.3,0,0.4
	c0,1.2-1.6,3.1-4,4.8c-2.6,1.8-3.7,3.2-3.3,4.2c1.2,2.8,1.5,9,0.5,9c-0.8,0.2-1.4,0.8-1.6,1.6c-0.4,1,1,3.4,4,6.7
	c5.4,5.9,9.5,12.8,12.1,20.4c4.1,11.5,9.5,10.3-46.7,10.3H54.1L54.7,152.7z M100.5,94.7c1.7,0.1,3.4,0.4,5,0.7
	c3.9,0.8,8.5-2.5,8.5-6.1c0-3.1-1.3-3.1-3.4,0.1c-1.5,2.5-4.8,3.3-7.3,1.8c-0.6-0.4-1.2-0.9-1.6-1.5l-1.6-2.3l-1.9,2.3
	c-2.4,3.1-7.2,2.7-8.7-0.5c-1.3-3-3.5-2.9-3.5,0c0,4.1,4.6,7,9.5,6C97.1,94.9,98.8,94.7,100.5,94.7z M103.6,81.4
	c2.8-2.8,2.5-4.1-1.2-5.5c-2.8-1.1-7.4,0.3-7.4,2.2c0,1.4,4,5.8,5.2,5.8C100.7,83.9,102.2,82.8,103.6,81.4z M56,62.1
	c2.5-6.7,3.8-16.2,2.2-16.2c-1.2,0-1.4,0.7-3.3,9c-0.8,3.7-2,7.2-3.5,10.7c-1.2,2.8-1.9,5.4-1.6,5.8C50.9,72.5,53.8,68.2,56,62.1z
	 M144.7,62.7c-1.6-3.8-3-7.6-4.2-11.5c-0.6-3.2-2.1-5-3.2-3.9c-1.5,1.5,4.9,19,8.4,22.8C148.6,73.3,148.3,71.2,144.7,62.7
	L144.7,62.7z M80.8,68.7c1.7-2,1.5-4.9-0.3-6.8c-2-1.7-6.2-0.5-7,2C72.1,68.3,77.6,71.9,80.8,68.7L80.8,68.7z M123.7,67.3
	c1.2-1.9,1.1-2.4-0.5-4.4c-3.6-4.5-9.9-0.1-7.2,5C117.4,70.6,121.7,70.2,123.7,67.3L123.7,67.3z"/>
<path class="st2" d="M54.7,152.7c1.1-6.4,6.4-17.4,11.3-23.8c5.4-7.2,5.8-8.1,3.4-10.1c-1.2-1-1.5-2.5-1.2-5.9l0.4-4.5l-5.8-3.7
	c-3.2-2.1-5.8-4.4-5.8-5.2s-1.1-2.1-2.5-3c-3.1-2-3.2-3.7-0.4-3.3c3.4,0.3,3.3-1.9-0.1-3.3c-1.8-0.8-3-2-3-3.1
	c0-2.3-0.1-2.3,4.3-0.4c4.7,1.9,15.1,1.9,20.8,0c6-2.1,12.2-7.8,16.2-15c3.4-6.2,5.3-7.3,10.3-6.1c1.6,0.4,3.1,2.3,4.9,6
	c3.2,6.4,8.4,11.6,14.9,14.7c5.1,2.3,15.6,2.5,21.6,0.4c5.3-1.9,5-1.9,5,0.3c-0.2,1.4-1.2,2.5-2.5,3c-3.1,1.4-3.5,4.7-0.5,3.9
	c1.7-0.4,1.8-0.2,0.9,1.4c-0.6,1.1-1.7,1.8-2.9,1.9c-1-0.1-1.9,0.6-2,1.6c0,0.1,0,0.3,0,0.4c0,1.2-1.6,3.1-4,4.8
	c-2.6,1.8-3.7,3.2-3.3,4.2c1.2,2.8,1.5,9,0.5,9c-0.8,0.2-1.4,0.8-1.6,1.6c-0.4,1,1,3.4,4,6.7c5.4,5.9,9.5,12.8,12.1,20.4
	c4.1,11.5,9.5,10.3-46.7,10.3H54.1L54.7,152.7z M100.5,94.7c1.7,0.1,3.4,0.4,5,0.7c3.9,0.8,8.5-2.5,8.5-6.1c0-3.1-1.3-3.1-3.4,0.1
	c-1.5,2.5-4.8,3.3-7.3,1.8c-0.6-0.4-1.2-0.9-1.6-1.5l-1.6-2.3l-1.9,2.3c-2.4,3.1-7.2,2.7-8.7-0.5c-1.3-3-3.5-2.9-3.5,0
	c0,4.1,4.6,7,9.5,6C97.1,94.9,98.8,94.7,100.5,94.7z M103.6,81.4c2.8-2.8,2.5-4.1-1.2-5.5c-2.8-1.1-7.4,0.3-7.4,2.2
	c0,1.4,4,5.8,5.2,5.8C100.7,83.9,102.2,82.8,103.6,81.4z"/>
<path class="st2" d="M61,85c-8.7-1.9-16.1-7.9-19.8-16c-2-4.7-2-15.5,0.2-20.3c4.2-9.8,14-16,24.6-15.8c10.8,0.1,18.9,5.3,23.6,15.5
	c6.1,13-0.5,29.5-13.9,34.9C71,85.1,66,85.7,61,85z M56,62.1c2.5-6.7,3.8-16.2,2.2-16.2c-1.2,0-1.4,0.7-3.3,9
	c-0.8,3.7-2,7.2-3.5,10.7c-1.2,2.8-1.9,5.4-1.6,5.8C50.9,72.5,53.8,68.2,56,62.1z M80.8,68.7c1.7-2,1.5-4.9-0.3-6.8
	c-2-1.7-6.2-0.5-7,2C72.1,68.3,77.6,71.9,80.8,68.7L80.8,68.7z"/>
<path class="st2" d="M129,85c-19.8-4.2-27.8-28.1-14.6-43.8c9.6-11.3,30.3-11,39.6,0.7c9,11.4,7.4,29.2-3.3,37.4
	C144.3,84.2,135.8,86.4,129,85z M144.7,62.7c-1.6-3.8-3-7.6-4.2-11.5c-0.6-3.2-2.1-5-3.2-3.9c-1.5,1.5,4.9,19,8.4,22.8
	C148.6,73.3,148.3,71.2,144.7,62.7L144.7,62.7z M123.7,67.3c1.2-1.9,1.1-2.4-0.5-4.4c-3.6-4.5-9.9-0.1-7.2,5
	C117.4,70.6,121.7,70.2,123.7,67.3L123.7,67.3z"/>
<path class="st2" d="M95,58.8c0-5.6-2.7-13.2-6.5-18.2C84,34.7,74.7,29.9,67.9,29.9h-4.8l4.3-10.5c4.4-10.7,7-15.5,8.4-15.5
	c0.4,0,4.4,6.6,8.8,14.7c7.6,14,8,14.9,6.2,16.1c-2.4,1.7-1.4,3.6,1.2,2.2s13.6-1.3,16.2,0.1c2.9,1.6,3.7,0.1,0.9-2l-2.3-1.8
	l9.5-14.2l9.5-14.2l1.9,2.8c1.7,2.3,10.3,20.7,10.3,21.9c0,0.2-2.2,0.4-4.8,0.4C118,29.9,105,42.8,105,57.8v4.6H95V58.8z"/>
<path class="st3" d="M54.7,152.7c1.1-6.4,6.4-17.4,11.5-24.2c4.7-6.3,5.2-6.7,6-4.6c0.6,1.5,0.2,3.6-1.2,6.7
	c-2.6,6-2.5,9.7,0.2,12.3c4.8,4.4,9.9,3.3,18-4c4.5-3.9,4.7-4.3,3.3-6.3c-1.8-2.6-1.9-10.3-0.2-13.7c1.2-2.4,1-2.8-3.6-7
	c-2.4-2.2-5-4.3-7.6-6.2c-3.6-2.5-8.6-2.3-11,0.4l-2,2.1l-5.6-3.7c-3-2-5.5-4.2-5.5-5s-1.1-2.1-2.5-3c-3.1-2-3.2-3.7-0.4-3.3
	c3.4,0.3,3.3-1.9-0.1-3.3c-1.8-0.8-3-2-3-3.1c0-2.3-0.1-2.3,4.3-0.4c4.7,1.9,15.1,1.9,20.8,0c6-2.1,12.2-7.8,16.2-15
	c3.4-6.2,5.3-7.3,10.3-6.1c1.6,0.4,3.1,2.3,4.9,6c3.2,6.4,8.4,11.6,14.9,14.7c5.1,2.3,15.6,2.5,21.6,0.4c5.3-1.9,5-1.9,5,0.3
	c-0.2,1.4-1.2,2.5-2.5,3c-3.1,1.4-3.5,4.7-0.5,3.9c1.7-0.4,1.8-0.2,0.9,1.4c-0.6,1.1-1.7,1.8-2.9,1.9c-1-0.1-1.9,0.5-2,1.5
	c0,0.1,0,0.3,0,0.4c0,1.1-1.6,3.2-3.6,4.7c-3,2.3-3.9,2.6-5.5,1.6c-2.4-1.5-6.8-1.5-9.5,0.1c-2.7,1.9-5.2,3.9-7.7,6.1
	c-5.5,4.8-5.6,4.9-4.1,7.7c1.8,4.1,1.8,8.7-0.1,12.8c-1.4,2.8-1.4,3,2.9,6.9c4.9,4.5,9.5,7.2,12.5,7.2c3,0,8.1-4.8,8.1-7.7
	c-0.4-2.6-1.1-5-2.1-7.4c-1.9-4.3-2-5.4-0.9-7.7l1.2-2.7l4.4,4.9c5.4,5.8,9.6,12.7,12.1,20.3c4.1,11.5,9.5,10.3-46.7,10.3H54.1
	L54.7,152.7z M107.4,132.8c2.2-1.7,2.6-2.8,2.6-7.3c0-6.5-2.3-9.1-8-9.1s-8,2.6-8,8.9c0,5.6,0.5,6.7,3.5,8.4
	C100.7,135.5,104.6,135.1,107.4,132.8L107.4,132.8z M100.5,94.7c1.7,0.1,3.4,0.4,5,0.7c3.9,0.8,8.5-2.5,8.5-6.1
	c0-3.1-1.3-3.1-3.4,0.1c-1.5,2.5-4.8,3.3-7.3,1.8c-0.6-0.4-1.2-0.9-1.6-1.5l-1.6-2.3l-1.9,2.3c-2.4,3.1-7.2,2.7-8.7-0.5
	c-1.3-3-3.5-2.9-3.5,0c0,4.1,4.6,7,9.5,6C97.1,94.9,98.8,94.7,100.5,94.7z M103.6,81.4c2.8-2.8,2.5-4.1-1.2-5.5
	c-2.8-1.1-7.4,0.3-7.4,2.2c0,1.4,4,5.8,5.2,5.8C100.7,83.9,102.2,82.8,103.6,81.4z"/>
<path class="st3" d="M61,85c-8.7-1.9-16.1-7.9-19.8-16c-2-4.7-2-15.5,0.2-20.3c4.2-9.8,14-16,24.6-15.8c10.8,0.1,18.9,5.3,23.6,15.5
	c6.1,13-0.5,29.5-13.9,34.9C71,85.1,66,85.7,61,85z M56,62.1c2.5-6.7,3.8-16.2,2.2-16.2c-1.2,0-1.4,0.7-3.3,9
	c-0.8,3.7-2,7.2-3.5,10.7c-1.2,2.8-1.9,5.4-1.6,5.8C50.9,72.5,53.8,68.2,56,62.1z M80.8,68.7c1.7-2,1.5-4.9-0.3-6.8
	c-2-1.7-6.2-0.5-7,2C72.1,68.3,77.6,71.9,80.8,68.7L80.8,68.7z"/>
<path class="st3" d="M129,85c-19.8-4.2-27.8-28.1-14.6-43.8c9.6-11.3,30.3-11,39.6,0.7c9,11.4,7.4,29.2-3.3,37.4
	C144.3,84.2,135.8,86.4,129,85z M144.7,62.7c-1.6-3.8-3-7.6-4.2-11.5c-0.6-3.2-2.1-5-3.2-3.9c-1.5,1.5,4.9,19,8.4,22.8
	C148.6,73.3,148.3,71.2,144.7,62.7L144.7,62.7z M123.7,67.3c1.2-1.9,1.1-2.4-0.5-4.4c-3.6-4.5-9.9-0.1-7.2,5
	C117.4,70.6,121.7,70.2,123.7,67.3L123.7,67.3z"/>
<path class="st3" d="M95,58.8c0-5.6-2.7-13.2-6.5-18.2C84,34.7,74.7,29.9,67.9,29.9h-4.8l4.3-10.5c4.4-10.7,7-15.5,8.4-15.5
	c0.4,0,4.4,6.6,8.8,14.7c7.6,14,8,14.9,6.2,16.1c-2.4,1.7-1.4,3.6,1.2,2.2s13.6-1.3,16.2,0.1c2.9,1.6,3.7,0.1,0.9-2l-2.3-1.8
	l9.5-14.2l9.5-14.2l1.9,2.8c1.7,2.3,10.3,20.7,10.3,21.9c0,0.2-2.2,0.4-4.8,0.4C118,29.9,105,42.8,105,57.8v4.6H95V58.8z"/>
<path class="st4" d="M54.7,152.7c1.1-6.4,6.4-17.4,11.5-24.2c4.7-6.3,5.2-6.7,6-4.6c0.6,1.5,0.2,3.6-1.2,6.7
	c-2.6,6-2.5,9.7,0.2,12.3c4.8,4.4,9.9,3.3,18-4c4.5-3.9,4.7-4.3,3.3-6.3c-1.8-2.6-1.9-10.3-0.2-13.7c1.2-2.4,1-2.8-3.6-7
	c-2.4-2.2-5-4.3-7.6-6.2c-3.6-2.5-8.6-2.3-11,0.4l-2,2.1l-5.6-3.7c-3-2-5.5-4.2-5.5-5s-1.1-2.1-2.5-3c-3.1-2-3.2-3.7-0.4-3.3
	c3.4,0.3,3.3-1.9-0.1-3.3c-1.8-0.8-3-2-3-3.1c0-1.9,0.1-1.9,3.3-0.2c2.3,1.3,5.4,1.8,11.2,1.8c6.7,0,8.8-0.5,13-2.7
	c6.3-3.3,11.4-8.6,14.5-15c1.6-3.6,2.7-4.8,5-5.3c4-0.9,6.4,0.7,8.9,5.7c6.7,13.9,21.1,20.6,35.3,16.4c6.8-1.9,6.8-1.9,6.8-0.3
	c0,0.8-1.1,1.9-2.5,2.5c-3.1,1.4-3.5,4.7-0.5,3.9c1.7-0.4,1.8-0.2,0.9,1.4c-0.6,1.1-1.7,1.8-2.9,1.9c-1-0.1-1.9,0.5-2,1.5
	c0,0.1,0,0.3,0,0.4c0,1.1-1.6,3.2-3.6,4.7c-3,2.3-3.9,2.6-5.5,1.6c-2.4-1.5-6.8-1.5-9.5,0.1c-2.7,1.9-5.2,3.9-7.7,6.1
	c-5.5,4.8-5.6,4.9-4.1,7.7c1.8,4.1,1.8,8.7-0.1,12.8c-1.4,2.8-1.4,3,2.9,6.9c4.9,4.5,9.5,7.2,12.5,7.2c3,0,8.1-4.8,8.1-7.7
	c-0.4-2.6-1.1-5-2.1-7.4c-1.9-4.3-2-5.4-0.9-7.7l1.2-2.7l4.4,4.9c5.4,5.8,9.6,12.7,12.1,20.3c4.1,11.5,9.5,10.3-46.7,10.3H54.1
	L54.7,152.7z M107.4,132.8c2.2-1.7,2.6-2.8,2.6-7.3c0-6.5-2.3-9.1-8-9.1s-8,2.6-8,8.9c0,5.6,0.5,6.7,3.5,8.4
	C100.7,135.5,104.6,135.1,107.4,132.8L107.4,132.8z M100.5,94.7c1.7,0.1,3.4,0.4,5,0.7c3.9,0.8,8.5-2.5,8.5-6.1
	c0-3.1-1.3-3.1-3.4,0.1c-1.5,2.5-4.8,3.3-7.3,1.8c-0.6-0.4-1.2-0.9-1.6-1.5l-1.6-2.3l-1.9,2.3c-2.4,3.1-7.2,2.7-8.7-0.5
	c-1.3-3-3.5-2.9-3.5,0c0,4.1,4.6,7,9.5,6C97.1,94.9,98.8,94.7,100.5,94.7z M103.6,81.4c2.8-2.8,2.5-4.1-1.2-5.5
	c-2.8-1.1-7.4,0.3-7.4,2.2c0,1.4,4,5.8,5.2,5.8C100.7,83.9,102.2,82.8,103.6,81.4z"/>
<path class="st4" d="M56.7,83.5c-5.6-2.2-10.4-6.2-13.4-11.4c-2.5-4.1-2.8-5.7-2.8-13.2c0-9.7,1-12.3,7.6-18.7
	c10.2-9.8,26.4-9.6,36.3,0.6c0.2,0.2,0.4,0.5,0.6,0.7c4.7,5.4,6.3,9.9,6.3,17.4c0,14.6-9.7,24.8-24.3,25.7
	C63.5,84.9,60,84.5,56.7,83.5z M56,62.1c2.5-6.7,3.8-16.2,2.2-16.2c-1.2,0-1.4,0.7-3.3,9c-0.8,3.7-2,7.2-3.5,10.7
	c-1.2,2.8-1.9,5.4-1.6,5.8C50.9,72.5,53.8,68.2,56,62.1z M80.8,68.7c1.7-2,1.5-4.9-0.3-6.8c-2-1.7-6.2-0.5-7,2
	C72.1,68.3,77.6,71.9,80.8,68.7L80.8,68.7z"/>
<path class="st4" d="M124.2,83.1c-12.3-4.9-19.4-20.6-14.7-32.8c2.6-6.2,7.1-11.4,12.9-14.7c5.8-3,17.4-3,23.1,0
	c5.1,2.9,9.3,7.1,12.1,12.3c2.7,5.1,2.5,17.2-0.3,22.5C150.9,82.4,136.5,88,124.2,83.1z M144.7,62.7c-1.6-3.8-3-7.6-4.2-11.5
	c-0.6-3.2-2.1-5-3.2-3.9c-1.5,1.5,4.9,19,8.4,22.8C148.6,73.3,148.3,71.2,144.7,62.7z M123.7,67.3c1.2-1.9,1.1-2.4-0.5-4.4
	c-3.6-4.5-9.9-0.1-7.2,5C117.4,70.6,121.7,70.2,123.7,67.3z"/>
<path class="st4" d="M95,57c0-13.3-11.7-25.8-25.9-27.7c-6-0.8-6,0.1,0-13.8C72.7,7.2,75.4,2.9,76.4,4c0.2,0.2,4,6.9,8.3,14.9
	c7.6,13.7,7.9,14.6,6.1,15.8c-2.4,1.7-1.4,3.6,1.2,2.2s13.6-1.3,16.2,0.1c2.9,1.6,3.7,0.1,0.9-2l-2.3-1.8l9.5-14.2l9.5-14.2l2,2.8
	c2,2.9,9.2,18.7,9.2,20.3c0,0.6-1.5,1-3.3,1c-14.4,0-27.9,12.7-29.4,27.5l-0.6,5.5H95V57z"/>
</svg>
