<?xml version="1.0" encoding="utf-8"?>
<!-- Generator: Adobe Illustrator 19.2.1, SVG Export Plug-In . SVG Version: 6.00 Build 0)  -->
<svg version="1.1" id="Calque_1" xmlns="http://www.w3.org/2000/svg" xmlns:xlink="http://www.w3.org/1999/xlink" x="0px" y="0px"
	 viewBox="0 0 224 224" style="enable-background:new 0 0 224 224;" xml:space="preserve">
<style type="text/css">
	.st0{fill:#000000;}
</style>
<g transform="translate(0.000000,144.000000) scale(0.100000,-0.100000)">
	<path class="st0" d="M1497.5,754.4c-58.7-75.8-150.5-195.3-203.9-266.8l-96.1-131.3l-93.9,133.4
		c-58.7,81.1-102.5,132.3-113.1,133.4c-10.7,0-19.2-3.2-19.2-6.4c0-3.2,41.6-64,93.9-135.5c51.2-70.4,96.1-134.5,100.3-142
		c5.3-7.5-32-68.3-96.1-154.8C938.2,5.2,943.6,14.8,970.2,14.8c14.9,0,50.2,40.6,120.6,138.8c54.4,75.8,102.5,138.8,105.7,138.8
		c4.3,0,52.3-61.9,106.7-138.8c61.9-85.4,107.8-138.8,119.5-138.8c9.6,0,18.1,3.2,18.1,6.4s-48,72.6-106.7,153.7
		s-106.7,150.5-106.7,153.7c0,6.4,271.1,402.4,349,511.2C1645.9,934.8,1604.2,890,1497.5,754.4z"/>
	<path class="st0" d="M0.1,319C0.1,22.3,1.1,14.8,21.4,14.8s21.3,8.5,23.5,277.5l3.2,276.4l165.4-241.2
		C376.8,89.5,584.9-199.7,617-230.7c8.5-8.5-115.3,179.3-276.4,419.5C98.3,550.6,44.9,623.2,24.6,623.2H0.1V319z"/>
	<path class="st0" d="M512.4,319V14.8h208.1c178.2,0,208.1,2.1,208.1,16s-27.8,16-186.8,16H555.1v133.4v133.4l172.9,2.1
		c125.9,2.1,172.9,6.4,177.2,17.1c3.2,9.6-36.3,12.8-172.9,12.8H555.1v122.7v122.7h186.8c159,0,186.8,2.1,186.8,16
		c0,13.9-29.9,16-208.1,16H512.4V319z"/>
	<path class="st0" d="M1462.3,607.1c0-12.8,19.2-16,106.7-16h106.7V303c0-280.7,0-288.2,21.3-288.2s21.3,7.5,21.3,288.2v288.2h106.7
		c87.5,0,106.7,3.2,106.7,16c0,13.9-33.1,16-234.8,16S1462.3,621,1462.3,607.1z"/>
	<path class="st0" d="M2143.2,173.8c-10.7-5.3-19.2-22.4-19.2-37.4c0-21.3,9.6-31,49.1-47c27.8-12.8,47-26.7,44.8-35.2
		c-6.4-18.1-49.1-22.4-68.3-6.4c-20.3,17.1-32,4.3-14.9-17.1c16-19.2,64-21.3,89.7-2.1c29.9,22.4,16,53.4-33.1,76.8
		c-25.6,11.7-45.9,26.7-45.9,34.2c0,19.2,41.6,27.8,59.8,12.8c8.5-6.4,19.2-9.6,23.5-5.3c9.6,10.7-28.8,38.4-50.2,38.4
		C2168.8,185.6,2152.8,180.2,2143.2,173.8z"/>
	<path class="st0" d="M2060,122.6c0-28.8-3.2-59.8-6.4-69.4c-7.5-20.3-42.7-22.4-50.2-3.2c-2.1,6.4-8.5,9.6-12.8,5.3
		s-5.3-14.9-2.1-24.5c9.6-23.5,68.3-21.3,82.2,4.3c13.9,26.7,13.9,139.8,0,139.8C2065.3,174.9,2060,151.4,2060,122.6z"/>
	<path class="st0" d="M1926.6,35.1c-10.7-16,3.2-26.7,17.1-12.8c7.5,7.5,7.5,13.9,1.1,18.1C1938.3,43.6,1929.8,41.5,1926.6,35.1z"/>
</g>
</svg>
