<?xml version="1.0" encoding="utf-8"?>
<!-- Generator: Adobe Illustrator 19.2.1, SVG Export Plug-In . SVG Version: 6.00 Build 0)  -->
<svg version="1.1" id="Calque_1" xmlns="http://www.w3.org/2000/svg" xmlns:xlink="http://www.w3.org/1999/xlink" x="0px" y="0px"
	 viewBox="0 0 256 256" style="enable-background:new 0 0 256 256;" xml:space="preserve">
<style type="text/css">
	.st0{fill:#FD4F00;}
</style>
<title>phoenix</title>
<path class="st0" d="M96.1,162.6l-2-0.4c-14.3-2.7-23.3-11.3-27.6-24.9c-2.7-8.5,2.2-14.7,11.1-15.1c7.3-0.3,12.3,3.8,16.7,8.7
	c5.7,6.3,10.9,13,16.5,19.3c8,9.2,17.5,15.1,30.4,13.2c11.3-1.5,22-6.4,30.5-14c1.3-1.1,2.8-2.2,4.2-3.2l-0.9-1
	c-7.3,2.2-15,3.1-22.6,2.7c-11.6-0.6-22.8-3-32.7-9.4c-9.1-5.8-15.7-13.7-18.9-24.1c-2.6-8.4,2.7-14.3,11.4-13.1
	c3.3,0.5,6.5,2,9,4.2c2.1,1.8,4.2,3.7,6.3,5.4c10.2,8.2,24.5,8.7,37.4-0.2c-21.3-0.1-35.8-11.8-48.5-26.7c-5-5.8-9.8-11.7-14.9-17.4
	c-9.9-11.1-20.8-20.8-35.8-24.1c-19.1-4.2-37.5-1.5-55.2,6.6C6.7,50.8,3.2,53,0,55.6h3.8c8.9-0.2,15.6,3.7,20.4,11
	c3.5,5.4,5.2,11.4,6.4,17.5c1.9,9.2,0.9,18.5,2,27.7c2.8,23.7,14.9,40.2,37.4,48.7C78.3,163.8,87.4,164.5,96.1,162.6L96.1,162.6
	L96.1,162.6L96.1,162.6z M39.2,54.6c-3.6,0.9-6.4-0.5-9.3-3.5c4.7-1.1,9.4-1.8,14.2-1.9C43.9,51.8,41.9,54.1,39.2,54.6z
	 M155.9,192.8c-0.3-2.3-2.3-3.3-3.8-4.5c-6.8-5.3-14.7-7.1-23.1-7.3c-5-0.1-10-0.5-14.7-2.2c-2.2-0.8-4.6-1.8-4.5-4.6
	s2.5-3.6,4.8-4.3c1.8-0.6,3.7-0.9,5.8-1.4c-5.3-3.4-10.5-3.9-17.5-1.1c-10.9,4.4-21.7,3.9-32.5-0.1c-6.1-2.2-11.6-5.7-17.3-8.8
	l-0.2,0.1l0.2-0.1c-0.1-0.4-0.4-0.4-0.7-0.2l0.4,0.4c4.8,7.5,11,14.1,18.2,19.2c13.8,10.2,28.9,16.3,46.6,13.6
	c5.7-0.9,11.5-1.6,17.2-2C142.1,189,149,191,155.9,192.8z M122.5,82.2c-0.4-0.3-0.8-1-1.5-0.2c6.2,8.5,14.6,15,24.4,18.9
	c15.9,6.4,32,7.5,48.5,1.9c12.8-4.4,22-0.1,26.8,12.3c0.7-14.4-7.8-24.9-21.3-27c-7.6-1.2-14.6,1.4-21.7,3.4
	C157.8,97.2,139.3,94.4,122.5,82.2z M221.3,138.4l7.7,0.7c-5.8-5.1-12.9-5.5-20.1-5.1c-10.9,0.6-18.8,6.9-26,14.5
	c-6.3,6.6-12.1,14.1-21.5,16.8c0.1,0.2,0.1,0.3,0.2,0.4c1.3,0,2.6,0.1,3.8,0c13.7-0.6,26.7-3.5,37-13.5c3.2-3.1,6.1-6.6,9.3-9.9
	C214.1,139.6,217.6,138.1,221.3,138.4L221.3,138.4L221.3,138.4z M189.4,121.4c-10.2,0.9-19.1,5.1-27.5,10.7
	c-6.4,4.3-13.3,6.3-21.1,5c-1.4-0.2-2.7-0.4-4.1-0.6v0.6c0.5,0.2,1,0.6,1.5,0.8c1.3,0.6,2.6,1.1,3.9,1.4c14.9,3.5,29.1,1.7,42-6.6
	c8.1-5.2,16.5-6.2,25.6-4.9c0.9,0.1,1.8,0.3,2.8,0.4s1.8,0.9,2.9,0C207.3,122.5,198.7,120.6,189.4,121.4L189.4,121.4L189.4,121.4z
	 M152.7,86.6c5.7,0.4,11.4-1,16.4-3.9c-1.6,0.2-2.4,0.1-3,0.3c-7.4,1.6-15.1-0.2-20.9-5c-2.3-1.8-4.6-3.6-6.9-5.3
	c-9.1-7-19.6-9.3-31-9.1c0.1,0.4,0.2,0.8,0.4,1.1C120.1,77.3,134.5,86,152.7,86.6z M242.9,151.2c-7.7-7.6-18.1-8.6-27.6-2
	c6.3,0.3,11.1,2.3,14.9,6.3c1.4,1.4,2.8,2.8,4.3,4c5.8,4.7,15.7,4.9,21.5,0.6C249.2,157.5,249.2,157.5,242.9,151.2L242.9,151.2
	L242.9,151.2z M166.1,209.8c-6.8-12.6-18.2-15.4-31.3-14.6c3.9,1.1,7.5,2.8,10.9,5.1c3,2.2,5.7,4.7,8.2,7.5c5,5.4,12.9,8.7,18.1,7.6
	C169.5,213.8,167.4,212.2,166.1,209.8L166.1,209.8L166.1,209.8z M229.1,139.4v-0.2H229l0.1,0.1L229.1,139.4z M156.2,193.1l-0.3-0.1
	c0,0.1,0,0.1,0.1,0.2C156.1,193.1,156.1,193.1,156.2,193.1L156.2,193.1L156.2,193.1z M155.9,193v-0.1h-0.1L155.9,193L155.9,193z"/>
</svg>
