<svg xmlns="http://www.w3.org/2000/svg" viewBox="0 0 182.19 138.25"><defs><style>.a{fill:#60bdea;}.b{fill:#f04035;}</style></defs><title>php-change-commerce</title><path class="a" d="M150,124a52.78,52.78,0,0,1-45-1.31v0A44.5,44.5,0,0,1,93,114.87c-3.44-3.11-7.71-8.17-11.38-12.25l26-15.58L109,88.4c6.27,6.59,9.77,8.11,9.77,8.11a23.71,23.71,0,1,0-11.25-31.93L80.8,51.76A52.72,52.72,0,0,1,107.47,26,53.42,53.42,0,1,1,150,124" transform="translate(0 -21.61)"/><path class="b" d="M75.33,93l-1-.86c-4.88-4.07-6-4.86-10.43-7.18A24.2,24.2,0,0,0,44,84.67a23.72,23.72,0,1,0,18.9,43.51,24.08,24.08,0,0,0,12-11.4l26.63,12.93a53.41,53.41,0,1,1-24.6-71.26l0,0a83.61,83.61,0,0,1,12.5,8C93,69.18,97.07,73.6,101,77.69L75.33,93" transform="translate(0 -21.61)"/></svg>