<svg xmlns="http://www.w3.org/2000/svg" version="1" viewBox="0 0 2333.305 2456.083" id="svg305"><g id="layer101" transform="translate(-8460.866 -1462.98)" fill="#b9c2bf"><path d="M8875 3671c-3-6 3-15 14-21 12-6 22-6 26-1 3 6-3 15-14 21-12 6-22 6-26 1z" id="path2"/><path d="M8848 3653c-7-14-3-33 6-33 12-1 17 28 6 35-5 3-10 2-12-2z" id="path4"/><path d="M9403 3517c-19-24-23-36-14-41 5-3 16 5 25 19 16 24 6 45-11 22z" id="path6"/><path d="M9185 3500c-4-6-10-8-15-5s-11 1-14-4c-4-5-2-12 3-15 5-4 12-2 16 4s10 8 15 5 11-1 14 4c4 5 2 12-3 15-5 4-12 2-16-4z" id="path8"/><path d="M9345 3466c-11-8-14-16-8-19 6-4 18 0 28 7 11 8 14 16 8 19-6 4-18 0-28-7z" id="path10"/><path d="M8805 3390c-25-27-7-32 78-23 81 9 89 28 13 29-29 1-58 4-63 7-6 4-18-2-28-13z" id="path12"/><path d="M10606 3352c-3-6 1-15 8-21 8-7 17-8 20-3 3 6-1 15-8 21-8 7-17 8-20 3z" id="path14"/><path d="M9170 3251c-6-12-6-22-1-26 6-3 15 3 21 14 6 12 6 22 1 26-6 3-15-3-21-14z" id="path16"/><path d="M9135 3150c-4-6-3-16 3-22s12-6 17 2c4 6 3 16-3 22s-12 6-17-2z" id="path18"/><path d="M9125 3007c-9-22-2-62 10-60 6 1 11 14 13 29 4 32-14 56-23 31z" id="path20"/><path d="M9134 2826c-8-21 3-49 16-41 5 3 10 15 10 25 0 25-18 36-26 16z" id="path22"/><path d="M9147 2723c-4-6 0-18 7-28 8-11 16-14 19-8 4 6 0 18-7 28-8 11-16 14-19 8z" id="path24"/><path d="M10675 2620c-4-6-3-16 3-22s12-6 17 2c4 6 3 16-3 22s-12 6-17-2z" id="path26"/><path d="M9216 2561c-4-5-2-12 4-16s8-10 5-15-1-11 4-14c5-4 12-2 15 3 4 5 2 12-4 16s-8 10-5 15 1 11-4 14c-5 4-12 2-15-3z" id="path28"/><path d="M10054 2546c-4-10-2-22 4-28 8-8 13-7 18 6 4 10 2 22-4 28-8 8-13 7-18-6z" id="path30"/><path d="M10636 2491c-10-11-13-22-8-25s17 3 26 13c10 11 13 22 8 25s-17-3-26-13z" id="path32"/><path d="M10520 2231c-6-12-6-22-1-26 6-3 15 3 21 14 6 12 6 22 1 26-6 3-15-3-21-14z" id="path34"/><path d="M9405 2070c-4-6-2-17 4-24s9-15 7-17c-3-2 3-15 13-28 11-14 21-19 24-14 4 6-2 21-12 34s-16 29-14 36c5 15-14 26-22 13z" id="path36"/><path d="M9936 1892c-3-6 1-15 8-21 8-7 17-8 20-3 3 6-1 15-8 21-8 7-17 8-20 3z" id="path38"/><path d="M9805 1830c-67-20-109-25-100-11 14 24-15 17-39-8-62-64-5-88 117-50 40 12 99 25 132 28 56 6 60 8 60 31s-3 25-55 27c-30 0-82-7-115-17z" id="path40"/></g><g id="layer102" transform="translate(-8460.866 -1462.98)" fill="#818b80"><path d="M9236 3741c-19-21-12-31 25-31 38 0 44 14 15 33-22 15-25 15-40-2z" id="path43"/><path d="M8676 3671c-4-6-13-8-20-5-8 3-17 1-20-4-3-6-15-8-25-5-22 6-64-14-56-27 5-8 33-5 65 7 8 4 20 7 25 8 6 1 13 3 18 5 4 1 12 3 17 4 11 1 15 15 7 22-3 3-8 1-11-5z" id="path45"/><path d="M9245 3580c-8-12 20-24 35-15 6 3 8 11 5 16-8 12-32 12-40-1z" id="path47"/><path d="M10296 3572c-3-5 3-17 14-27s20-15 20-10c0 4 6 2 14-4 9-8 16-8 20-2 4 5 2 12-4 16-5 3-10 3-10-1s-11 3-24 15-27 18-30 13z" id="path49"/><path d="M10386 3531c-4-5-2-12 4-16 5-3 10-3 10 1 0 3 6 1 14-5 10-8 16-9 21-1 3 5 4 11 1 11-3 1-9 2-13 3-5 1-13 5-20 9-6 4-14 3-17-2z" id="path51"/><path d="M9095 3500c-6-9-1-12 38-24 19-5 59 13 52 24-8 13-82 13-90 0z" id="path53"/><path d="M8835 3490c-8-12 20-24 35-15 6 3 8 11 5 16-8 12-32 12-40-1z" id="path55"/><path d="M8779 3485c-1-3-3-9-4-15-1-5-3-13-4-16 0-4-8-1-16 6s-16 10-16 6c-1-3-3-10-4-16-1-5-3-13-4-16 0-4-7-1-15 5-10 8-16 9-21 1-3-5-4-11-1-11 3-1 9-2 14-3 4-1 13-5 20-9 6-5 13-6 13-3 1 3 3 11 4 16 1 6 3 13 4 16 0 4 8 1 16-6 16-13 50-6 40 9-3 5-1 12 5 16s8 11 5 16c-6 9-34 13-36 4z" id="path57"/><path d="M8936 3453c-4-5-13-8-19-8-7-1-11-7-9-14 2-10-6-12-28-9-30 5-60-15-46-29 7-8 86-4 99 4 4 3 3 11-4 19-6 8-8 15-3 15 5 1 14 2 19 3 13 1 19 20 8 23-5 2-13 0-17-4z" id="path59"/><path d="M9291 3426c-7-8-8-17-3-20 6-3 15 1 21 8 7 8 8 17 3 20-6 3-15-1-21-8z" id="path61"/><path d="M10646 3312c-3-5 3-17 13-26 11-10 22-13 25-8s-3 17-13 26c-11 10-22 13-25 8z" id="path63"/><path d="M10694 3206c-10-8-23-14-29-15-5 0-11-5-11-11-1-5-3-13-4-17-1-5-2-11-1-15 2-11-13-10-25 2-8 8-15 6-24-5-7-8-10-15-7-15s-5-12-18-26c-14-15-22-30-19-35s36-9 74-9 72-5 75-10c11-18 25 0 25 31 0 19-6 31-17 35-33 10-48 21-49 35 0 18 16 40 26 34 4-2 15 2 25 9 24 17 4 29-21 12z" id="path65"/><path d="M10684 2926c-8-21 3-49 16-41 5 3 10 15 10 25 0 25-18 36-26 16z" id="path67"/><path d="M9125 2920c-4-6-3-16 3-22s12-6 17 2c4 6 3 16-3 22s-12 6-17-2z" id="path69"/><path d="M9406 2871c-3-5-21-13-38-17-18-3-39-10-48-15-31-16-106-41-134-45-38-5-54-20-38-36 14-14 118 7 145 30 9 8 17 11 17 7 0-5 5-4 12 3s22 12 33 12c12 0 25 3 29 7 3 4 16 8 29 10 33 5 39 18 18 37-11 10-21 13-25 7z" id="path71"/><path d="M10674 2806c-4-10-2-22 4-28 8-8 13-7 18 6 4 10 2 22-4 28-8 8-13 7-18-6z" id="path73"/><path d="M10642 2554c-29-12-32-16-22-34 6-11 8-25 5-30-11-17 12-19 27-2 20 24 39 70 30 76-4 2-22-2-40-10z" id="path75"/><path d="M10315 2248c-58-21-67-39-23-44 49-6 174-31 190-38 23-10 59 57 40 76-16 16-169 20-207 6z" id="path77"/><path d="M9835 2215c-22-7-87-25-145-40-147-37-136-33-119-50 12-12 27-11 108 11 139 37 226 68 224 79-3 15-24 15-68 0z" id="path79"/><path d="M9490 2068c-69-26-75-31-60-58 11-21 25-20 25 2 0 6 27 20 60 32 33 11 59 26 58 31-3 17-26 15-83-7z" id="path81"/><path d="M9628 2052c-120-30-117-63 4-36 83 19 111 31 103 45-8 12-27 11-107-9z" id="path83"/><path d="M9960 2044c-25-13-57-23-72-23-32-1-43-14-25-30 16-13 128 21 148 45 22 27-5 31-51 8z" id="path85"/><path d="M9445 1951c-4-8-1-19 8-28 19-20 30-1 13 22-10 14-15 15-21 6z" id="path87"/><path d="M9777 1944c-38-20-24-38 14-19 16 9 27 20 24 25-7 12-4 13-38-6z" id="path89"/><path d="M9845 1914c-33-7-65-13-70-13-17-1-77-60-71-70 4-5 33-1 68 10 34 10 82 21 107 24 69 9 72 11 62 36-10 28-21 29-96 13z" id="path91"/></g><g id="layer103" transform="translate(-8460.866 -1462.98)" fill="#95adb6"><path d="M9246 3747c-22-16-12-25 24-23 15 0 25 7 25 16 0 20-26 24-49 7z" id="path94"/><path d="M8865 3670c-3-5-2-10 2-12 13-7 33-3 36 6 3 12-31 17-38 6z" id="path96"/><path d="M8927 3655l-28-22 28-19c35-23 44-24 66-6 21 19 22 36 1 53-24 20-37 19-67-6zm58-20c0-15-6-21-20-21-15 0-21 6-21 21s6 21 21 21c14 0 20-6 20-21z" id="path98"/><path d="M8610 3633c-35-7-44-18-31-42 18-32 41-40 91-31 56 10 67 1 40-33l-22-27 24-9c15-7 17-10 7-10-9-1-22-8-29-16-10-12-9-20 4-40 16-24 20-25 84-20 52 5 63 4 49-5-30-19-9-28 52-23 53 5 58 4 64-16 7-29 42-27 78 4 16 13 29 27 29 31s-17 8-38 8c-30 1-37 5-37 20 0 11-5 21-12 23-17 6-55-16-48-28 4-5-4-9-16-9-18 0-20 3-11 12 23 23-4 34-70 27-35-4-74-10-87-14-17-6-22-5-17 3 4 7 16 12 26 12s21 4 25 9c3 6 27 13 53 16s58 11 71 16l24 10-24 22c-13 12-26 22-29 22-6 0-64 37-109 70-34 25-74 30-141 18zm246-105c3-4-3-8-13-8s-36-3-58-7c-37-6-39-5-26 11 14 17 87 20 97 4z" id="path100"/><path d="M8865 3610c-3-5-2-10 2-12 13-7 33-3 36 6 3 12-31 17-38 6z" id="path102"/><path d="M9175 3500c-4-6-10-8-15-5s-11 1-14-4c-4-5-2-12 3-15 5-4 12-2 16 4s10 8 15 5 11-1 14 4c4 5 2 12-3 15-5 4-12 2-16-4z" id="path104"/><path d="M9271 3406c-7-8-8-17-3-20 6-3 15 1 21 8 7 8 8 17 3 20-6 3-15-1-21-8z" id="path106"/><path d="M10626 3332c-3-6 1-15 8-21 8-7 17-8 20-3 3 6-1 15-8 21-8 7-17 8-20 3z" id="path108"/><path d="M10676 3282c-3-6 1-15 8-21 8-7 17-8 20-3 3 6-1 15-8 21-8 7-17 8-20 3z" id="path110"/><path d="M10672 3197c-18-5-46-27-62-47-31-39-31-57 0-38 13 9 31 9 65 1 53-12 58-7 53 53-3 43-10 46-56 31z" id="path112"/><path d="M10705 3050c-4-6-3-16 3-22s12-6 17 2c4 6 3 16-3 22s-12 6-17-2z" id="path114"/><path d="M9125 3030c-4-6-3-16 3-22s12-6 17 2c4 6 3 16-3 22s-12 6-17-2z" id="path116"/><path d="M9124 2946c-4-10-2-22 4-28 8-8 13-7 18 6 4 10 2 22-4 28-8 8-13 7-18-6z" id="path118"/><path d="M9134 2856c-4-10-2-22 4-28 8-8 13-7 18 6 4 10 2 22-4 28-8 8-13 7-18-6z" id="path120"/><path d="M9145 2740c-4-6-3-16 3-22s12-6 17 2c4 6 3 16-3 22s-12 6-17-2z" id="path122"/><path d="M9306 2724c-39-14-86-27-105-29-23-2-35-8-34-17 5-36 75-186 96-203 13-12 22-26 19-33-5-17 27-27 41-12 9 9 8 15-5 23-14 9-4 15 55 34 82 26 108 28 125 11 27-27 4-135-48-220-21-35-36-66-34-70 2-3 22-4 43-1 34 5 41 2 56-21 22-33 16-39-55-63-58-20-69-36-47-67 14-19 16-19 83 5 59 21 70 28 78 54 8 29 15 32 150 69 77 21 148 39 156 41 9 1 14 10 12 21-5 26-42 85-51 80-7-5-228-69-272-80-26-6-26-4-27 41-1 38 4 52 28 80 17 18 30 38 30 42 0 15 77 24 99 12 12-7 22-7 26-1 10 16-51 40-84 34-26-6-30-4-25 10 5 12 10 14 19 6 54-45-18 130-82 201-19 21-39 36-44 33s-26 7-46 21c-46 31-68 31-157-1z" id="path124"/><path d="M9835 2601c-7-12 12-24 25-16 11 7 4 25-10 25-5 0-11-4-15-9z" id="path126"/><path d="M9992 2598c-7-7-12-8-12-3 0 4-9 0-20-10s-17-22-14-27 15-1 26 9 25 18 31 18c14 0 22 18 10 22-5 2-14-2-21-9z" id="path128"/><path d="M10658 2553c-8-14-3-38 7-41 12-3 16 36 4 43-4 3-9 2-11-2z" id="path130"/><path d="M9835 2481c-7-12 12-24 25-16 11 7 4 25-10 25-5 0-11-4-15-9z" id="path132"/><path d="M9985 2480c-8-12 20-24 35-15 6 3 8 11 5 16-8 12-32 12-40-1z" id="path134"/><path d="M10610 2421c-6-12-6-22-1-26 6-3 15 3 21 14 6 12 6 22 1 26-6 3-15-3-21-14z" id="path136"/><path d="M9776 2382c-3-6 1-15 8-21 8-7 17-8 20-3 3 6-1 15-8 21-8 7-17 8-20 3z" id="path138"/><path d="M9316 2352c-3-5 5-19 18-31 13-13 26-18 30-13 3 5-5 19-18 31-13 13-26 18-30 13z" id="path140"/><path d="M10510 2221c-11-23-16-42-10-46 5-3 18 12 30 34 11 23 16 42 10 46-5 3-18-12-30-34z" id="path142"/><path d="M9740 2040c-136-22-195-40-217-68-13-15-23-30-23-34 0-5-7-8-15-8-17 0-30-24-21-38 3-5 70 6 148 24 169 39 155 38 155 19 0-8-4-12-8-9-5 2-15-9-24-25-9-18-11-32-5-36 5-3 16 8 25 24 8 17 24 35 35 41s19 16 17 23c-1 7 4 11 10 10 7-2 20 8 29 21 12 19 13 29 4 45-11 22-29 24-110 11z" id="path144"/><path d="M9963 2011c-60-23-64-30-52-75 6-21 9-39 7-40-13-9-190-46-197-41-11 6-53-50-44-59 11-11 57-6 131 14 39 11 90 20 113 20h41l-7-127c-4-71-8-132-9-138 0-5 9-9 22-7 21 3 22 1 16-35-13-82 56-79 78 3 7 25 21 53 31 62 41 37 97 97 97 104 0 5-9 17-21 29-11 11-18 23-16 26 3 2 35 6 71 7 67 3 101 19 92 42-3 7-1 16 5 19 5 4 7 11 3 16-3 5-10 7-15 3-5-3-7-9-4-14 10-15-24-32-52-26-16 4-35 8-43 10s-26 8-40 13c-22 9-85 26-102 27-3 1-10 4-14 9-4 4-16 7-26 7-27 0-31 20-15 88 18 76 9 87-50 63zm10-122c-4-13-9-17-15-11-11 11-3 32 12 32 4 0 6-9 3-21z" id="path146"/></g><g id="layer104" transform="translate(-8460.866 -1462.98)" fill="#6f8283"><path d="M8795 3890c3-5 12-10 20-10s17 5 20 10c4 6-5 10-20 10s-24-4-20-10z" id="path149"/><path d="M8549 3748c-10-18-9-51 3-108 7-33 17-38 55-29 21 5 54 9 73 9 39 0 101-33 98-52-2-7 3-13 11-13 33 0 18 26-48 83-38 33-67 63-64 66s-2 8-11 12c-9 3-14 10-11 15 3 4-4 13-15 19s-20 9-20 6-14-1-30 4c-25 7-32 5-41-12z" id="path151"/><path d="M9640 3740c-9-16-6-22 20-35 17-9 36-12 43-8 6 4 29 7 49 8 44 0 51 17 11 26-15 3-38 11-50 17-32 18-61 15-73-8z" id="path153"/><path d="M9214 3728c-4-6-2-14 4-20 12-12 77-7 77 7 0 13-74 25-81 13z" id="path155"/><path d="M8851 3666c-7-8-8-17-3-20 6-3 15 1 21 8 7 8 8 17 3 20-6 3-15-1-21-8z" id="path157"/><path d="M8925 3664c-10-8-20-21-21-28-3-18 42-50 51-36 3 5-3 15-14 21-19 12-19 13 2 29 25 21 9 34-18 14z" id="path159"/><path d="M8992 3627c-17-18-19-26-10-35 30-30 77 4 57 41-13 23-21 22-47-6z" id="path161"/><path d="M8846 3622c-3-6 1-15 8-21 8-7 17-8 20-3 3 6-1 15-8 21-8 7-17 8-20 3z" id="path163"/><path d="M9235 3580c-4-6-3-16 3-22s12-6 17 2c4 6 3 16-3 22s-12 6-17-2z" id="path165"/><path d="M9505 3566c-11-8-14-16-8-19 6-4 18 0 28 7 11 8 14 16 8 19-6 4-18 0-28-7z" id="path167"/><path d="M8815 3561c-3-6 3-15 14-21 12-6 22-6 26-1 3 6-3 15-14 21-12 6-22 6-26 1z" id="path169"/><path d="M8879 3535c-1-5-2-17-3-25-1-10-10-14-30-13-17 1-35-2-42-8-6-5-19-7-28-3s-18 0-22-9c-3-9-11-14-18-11-6 2-19-1-29-8-15-11-16-16-4-32 13-17 16-18 48-3 24 11 46 14 74 8 39-7 39-7 17-19-12-7-20-17-17-23 4-6 13-5 25 1 10 5 32 10 48 10 19 0 35 8 46 23 12 17 14 18 9 3-8-23 20-46 54-46 14 0 45 12 71 26 26 15 48 26 50 25 1 0 2 1 2 4v11c0 4-6 1-14-5-10-9-17-7-27 5-9 11-23 14-44 11-44-7-98 14-133 54-17 19-32 30-33 24z" id="path171"/><path d="M9211 3526c-7-8-8-17-3-20 6-3 15 1 21 8 7 8 8 17 3 20-6 3-15-1-21-8z" id="path173"/><path d="M9134 3509c-3-6-15-9-25-6-24 6-61-19-39-26 47-16 70-14 84 8s12 35-5 35c-4 0-11-5-15-11z" id="path175"/><path d="M10516 3442c-3-6 1-15 8-21 8-7 17-8 20-3 3 6-1 15-8 21-8 7-17 8-20 3z" id="path177"/><path d="M10565 3371c-3-6 3-15 14-21 12-6 22-6 26-1 3 6-3 15-14 21-12 6-22 6-26 1z" id="path179"/><path d="M9170 3240c-6-11-8-20-4-20s-1-9-10-19c-10-11-16-28-14-38 1-10-3-33-11-50-8-20-11-46-7-69 4-20 9-82 11-138 6-150 13-197 32-218 19-22 39-19 147 18 87 30 103 30 149-1 20-14 41-24 46-21 13 8 45-32 85-106l37-66-25-37c-30-43-26-58 12-49 35 9 52 22 52 42 0 30-76 167-121 216-25 28-51 66-57 85-22 62-73 131-118 157-24 14-44 28-44 31 0 2 17 4 38 3 20-1 40-2 44-1 5 1-12 28-37 62-49 66-50 71-34 100 9 17 5 22-27 35-20 8-42 13-49 10-7-2-16 2-19 11-6 14-8 14-25-1-18-16-20-16-34 5-14 19-14 24-1 44 10 15 11 25 5 29-5 4-15-3-21-14z" id="path181"/><path d="M10675 3201c-3-6-10-9-14-7-12 8-52-24-45-35 3-5 20 1 37 13 18 13 33 22 35 20 1-1 2 1 3 4 2 12-9 15-16 5z" id="path183"/><path d="M10675 3120c-8-12 20-24 35-15 6 3 8 11 5 16-8 12-32 12-40-1z" id="path185"/><path d="M10550 3078c-11-18-16-36-12-40s45-8 92-9c84-2 85-2 85 22 0 23-4 24-68 27-37 2-65 7-62 12s1 11-5 15c-5 3-19-9-30-27z" id="path187"/><path d="M10684 2956c-4-10-2-22 4-28 8-8 13-7 18 6 4 10 2 22-4 28-8 8-13 7-18-6z" id="path189"/><path d="M10685 2890c-4-6-3-16 3-22s12-6 17 2c4 6 3 16-3 22s-12 6-17-2z" id="path191"/><path d="M9875 2867c-22-5-48-13-57-18-10-5-24-9-33-9-8 0-19-9-25-20s-9-20-6-20 1-13-4-30c-7-24-4-36 20-69 16-22 39-42 52-46 25-8 73-28 128-53 19-9 46-16 58-17 13 0 31-11 41-23 19-26 35-19 20 9-8 16-6 19 15 19 14 0 28-4 31-10 12-20 33-9 54 26 25 42 26 56 5 120-28 82-81 125-174 139-72 11-83 11-125 2z" id="path193"/><path d="M10674 2777c-7-20-2-47 11-50 14-3 19 43 6 56-7 7-12 6-17-6z" id="path195"/><path d="M10675 2660c-4-6-3-16 3-22s12-6 17 2c4 6 3 16-3 22s-12 6-17-2z" id="path197"/><path d="M9805 2588c-35-28-20-43 16-16l29 22 29-22c34-24 51-14 22 12-28 25-68 26-96 4z" id="path199"/><path d="M9934 2546c-4-10-2-22 4-28 8-8 13-7 18 6 4 10 2 22-4 28-8 8-13 7-18-6z" id="path201"/><path d="M10606 2539c-25-20-25-21-10-58 11-28 12-44 5-64-16-42 7-44 24-3 17 39 26 134 14 141-3 3-18-4-33-16z" id="path203"/><path d="M9786 2511c-8-13 29-42 59-45 28-4 79 30 70 45-4 5-19-1-36-13l-29-22-29 22c-17 12-32 18-35 13z" id="path205"/><path d="M10031 2491c-14-11-19-21-13-25 5-3 20 2 33 12 29 24 11 36-20 13z" id="path207"/><path d="M9675 2451c-3-6 3-15 14-21 12-6 22-6 26-1 3 6-3 15-14 21-12 6-22 6-26 1z" id="path209"/><path d="M9756 2402c-3-6 1-15 8-21 8-7 17-8 20-3 3 6-1 15-8 21-8 7-17 8-20 3z" id="path211"/><path d="M9806 2362c-3-5 3-17 13-26 11-10 22-13 25-8s-3 17-13 26c-11 10-22 13-25 8z" id="path213"/><path d="M10544 2309c-11-12-18-23-16-25 1-2 1-6 1-9-1-3-3-9-4-15-1-5-3-13-4-16 0-4-8-1-16 6-8 6-19 9-25 5-14-9-1-28 15-21 7 2 17 0 23-6s12-6 16 1c4 6 4 11 0 11-3 0-1 7 6 15s9 15 4 15c-4 0 3 11 15 24s18 27 13 30-18-4-28-15z" id="path215"/><path d="M9847 2314c-3-4 0-16 8-28 8-11 15-25 15-32 0-6-62-28-137-48-175-47-183-50-177-74 7-24-9-35-76-57-70-22-78-30-57-53 9-10 17-30 17-43 0-30 26-69 45-69 8 0 25 16 37 35 19 29 32 36 78 45 30 6 69 15 85 20 52 16 147 17 153 2 2-8-18-35-46-60-27-26-54-57-61-69-13-25 1-40 18-19 10 12 79 30 151 40 22 3 25 8 23 38-1 31 3 36 34 47 19 7 37 11 39 8 3-3-1-34-8-69-16-78-16-84-1-81 7 2 25-2 40-9 15-6 35-12 43-14 40-5 99-26 110-39 8-10 17-12 24-6s17 6 26 1c8-6 28-10 43-10 22 0 31 7 42 33 7 17 27 51 45 75 17 23 30 48 29 55-2 7 5 29 14 51 9 21 17 45 17 54 0 8 7 23 16 33s11 19 5 23c-14 9-51-42-51-70 0-12-5-26-11-30-6-3-9-15-6-25 8-30-9-31-41-4-16 13-33 21-37 17s-3 3 4 15c13 26 13 27-77 51-71 19-73 19-83 1-5-11-7-25-3-32 5-6-8 5-28 26-24 25-41 35-52 31s-23 3-36 19c-11 13-30 27-43 31-18 4-33 26-62 91-37 83-56 111-68 99z" id="path217"/><path d="M10365 2260c-3-5 0-13 9-16 21-8 71-1 71 11 0 14-72 19-80 5z" id="path219"/><path d="M10305 2246c-11-7-24-14-30-14-18-2-76-53-70-63 4-5 18-9 33-9 29-1 190-41 209-53 6-4 19 6 32 26 21 32 21 32 1 48-10 9-41 20-67 23-26 4-61 9-78 13-29 6-29 6-7 14 13 5 20 13 17 19-8 13-17 13-40-4z" id="path221"/><path d="M9815 1870c-4-6-10-8-15-5s-11 1-14-4c-4-5-2-12 3-15 5-4 12-2 16 4s10 8 15 5 11-1 14 4c4 5 2 12-3 15-5 4-12 2-16-4z" id="path223"/><path d="M9996 1672c-3-6 1-15 8-21 8-7 17-8 20-3 3 6-1 15-8 21-8 7-17 8-20 3z" id="path225"/></g><g id="layer105" transform="translate(-8460.866 -1462.98)" fill="#535f5c"><path d="M8785 3890c4-6 10-8 15-5s12 0 15-6c4-6 32-9 66-8 32 1 62-1 66-4 10-10 71-8 78 2 10 18-18 24-132 28-77 2-112 0-108-7z" id="path228"/><path d="M9045 3871c-6-11 21-29 52-34 25-5 73-24 105-42 30-17 54-19 63-5 7 11-98 62-122 59-10-2-32 5-50 14-37 20-40 20-48 8z" id="path230"/><path d="M8590 3795c-26-27-31-38-22-47s8-16-4-29c-11-12-12-19-4-24 12-8 52 23 45 35-2 4 2 7 10 7s16-5 17-11c0-6 2-15 2-21 3-20 17-35 34-35 9 0 28-11 42-24 14-14 41-41 61-60 30-29 38-32 50-21 17 16 75 9 83-10 6-15-20-13-53 4-12 7-22 7-26 1-3-5 8-16 25-25 16-8 30-12 30-8s11-9 25-30c14-20 27-37 28-37s33-11 70-24c55-19 75-22 103-14 39 10 52 31 34 53-13 16-12 17 37 19 18 0 33 6 33 11 0 6-32 9-80 8-44-1-80 0-80 3 0 2 28 31 62 62 38 36 59 63 54 70-4 7-26 22-49 35-39 20-57 22-230 24-103 1-197 5-207 8-22 7-26 20-10 30 14 9 13 58-2 73-20 20-43 14-78-23zm313-143c13-14 14-21 5-30-21-21-48-14-48 11 0 40 17 48 43 19zm85-19c3-19-1-23-21-23-25 0-42 23-31 41 11 19 49 5 52-18z" id="path232"/><path d="M9242 3754c-12-8-19-20-16-26 4-6 2-8-3-5-14 9-37-19-28-33 4-6 20-8 40-4 24 4 33 2 32-8-1-7 3-13 8-13 6 0 10 5 10 10 1 6 7 20 14 33 26 48-11 78-57 46zm38-24c0-5-9-10-21-10-11 0-17 5-14 10 3 6 13 10 21 10s14-4 14-10z" id="path234"/><path d="M9616 3731c-17-19-12-33 9-25 7 3 35-6 63-21 48-25 53-26 133-15 46 5 104 10 129 9 39 0 42-1 21-10-23-9-23-11-9-26 12-11 45-18 122-22 97-7 109-10 143-37 56-44 221-145 241-148 9-2 19-11 21-22 5-26 38-57 89-83 77-39 66-11-31 84-94 91-145 125-187 125-11 0-33 13-48 28-48 51-106 89-142 95-64 10-108 24-140 47-29 20-40 22-168 19-75-2-145-7-156-12-13-6-26-3-46 11-27 20-29 20-44 3z" id="path236"/><path d="M9265 3630c-3-5-4-14-1-19 7-10-16-21-44-21-9 0-23-7-30-15-10-12-7-16 16-25 30-12 59-6 50 9-4 5 1 11 10 13 10 2 18 15 20 30 3 29-10 46-21 28z" id="path238"/><path d="M9383 3486c-23-24-21-39 3-29 18 7 37 40 26 47-4 2-17-6-29-18z" id="path240"/><path d="M9300 3423c-42-38-143-200-145-234-2-22 51-54 61-38 4 6 11 6 19-1s19-9 24-6c16 10 61-5 61-20 0-8-6-11-15-8-19 8-37-5-28-19 4-7 8-18 9-25 4-24 26-44 37-33 7 7 18 0 34-22 20-27 22-33 8-35-9-2-24-1-33 3-21 8-26 5-29-17-2-11 15-28 51-49 53-32 104-99 121-159 4-14 24-43 45-65 45-47 96-131 119-195 9-25 18-45 21-45s20-10 38-23c17-13 32-20 32-15 0 4 5 0 11-10 6-9 14-15 19-12 4 3 15-7 24-20 9-14 21-23 25-20 5 2 14-2 21-10s9-15 4-15c-5-1 0-9 11-18 11-10 21-22 22-28 1-5 17-45 37-87 29-65 41-80 69-92 19-8 37-23 40-35 4-16 12-20 37-18s36-4 56-30c14-18 33-32 43-32 9 0 22-5 28-11 8-8 13-8 17 0 4 6 12 11 19 11s8-3 1-10c-6-6-8-27-5-48 6-36 7-37 46-33 53 4 58 8 52 45-3 17-3 25 0 18 2-7 17-19 32-27 33-16 51-5 51 31 0 13 5 26 10 29 6 3 10 17 10 30s12 38 26 55c20 23 24 34 15 43-6 6-59 23-117 37-101 25-105 27-82 41 40 26 82 42 100 40 9-1 19 3 23 9 10 16-23 24-40 10-8-7-15-10-15-6 0 3-11 1-24-4-18-7-34-5-58 8-18 9-43 17-56 18-47 2-43 19 30 119 39 55 95 143 123 195 28 53 61 106 73 118s23 31 23 42c1 11 2 26 3 33 4 32-147 167-188 167-7 0-19 7-26 15s-23 15-36 15c-12 0-25 4-29 9-3 6-13 10-23 9-9 0-42 4-72 8-59 9-123 10-380 5-144-3-217 0-283 12-9 2-28 18-40 37l-24 33 24 48c30 64 43 238 19 259-9 7-16 21-16 31 0 32-17 30-60-8zm32-65c-7-7-12-20-12-29 0-10-18-38-39-63-31-35-41-42-45-29-9 23 72 127 104 132 2 1-1-4-8-11zm142-404c9-24 7-28-9-14-17 14-20 30-6 30 5 0 12-7 15-16zm526-109c52-8 102-29 123-53 17-20 47-107 47-136-1-33-35-72-52-59-12 10-123 29-142 24-9-2-44 10-91 30-11 4-36 14-55 22-47 19-70 61-58 105 9 34 27 46 103 67 42 11 52 11 125 0zm-310-233c0-13-12-22-22-16s-1 24 13 24c5 0 9-4 9-8zm195-32c20-8 24-14 19-34-10-40 11-38 46 4 36 43 68 51 94 24 20-20 20-58 0-78-33-34-68-42-69-18-1 18-27 52-36 47-6-4-5-13 1-25 15-28 12-33-12-27-12 4-29 1-37-6-11-9-13-9-8 0 4 6 3 14-2 17-19 12-20-12-1-29 12-11 18-26 15-35-4-12 6-26 29-44 19-14 39-25 43-24 5 2 22-8 38-21l30-23-35 7c-38 8-60 21-136 77-28 21-54 38-58 38-3 0-29 18-57 40s-58 44-67 49-13 13-9 17 21 0 37-9c35-21 51-5 24 24-9 10-14 22-11 25 3 4 17-7 31-22 25-28 26-28 32-8 5 21 36 42 61 43 6 1 23-3 38-9zm334-551c28-6 53-14 55-18 9-14-69-5-99 11-35 20-24 22 44 7z" id="path242"/><path d="M10697 3253c-4-3-2-12 3-18 7-9 6-16-5-25-8-7-15-9-15-5s-7 1-17-6c-9-8-18-13-20-11-1 1-3 0-3-3v-11c0-4 7-1 15 6s15 9 15 5 7-2 15 5 15 9 15 5 7-2 15 5c12 10 13 15 3 28-7 8-11 17-10 19 6 8-4 13-11 6z" id="path244"/><path d="M10601 3156c-7-8-8-17-3-20 6-3 15 1 21 8 7 8 8 17 3 20-6 3-15-1-21-8z" id="path246"/><path d="M9176 3131c-6-8 5-20 31-35 23-13 22 12-2 28-13 9-26 12-29 7z" id="path248"/><path d="M10571 3116c-7-8-8-17-3-20 6-3 15 1 21 8 7 8 8 17 3 20-6 3-15-1-21-8z" id="path250"/><path d="M10526 3048c-36-61-48-100-37-111 14-14 84-11 95 5 6 8 28 21 49 27 34 12 40 11 52-6 15-19 17-17 29 36 9 40-9 51-86 51-58 0-69 3-65 15 4 8 2 17-3 20s-20-14-34-37z" id="path252"/><path d="M9134 3009c-10-17 23-46 38-31 8 8 8 15-2 27-15 18-26 19-36 4z" id="path254"/><path d="M10455 2880c-4-6-3-16 3-22s12-6 17 2c4 6 3 16-3 22s-12 6-17-2z" id="path256"/><path d="M10681 2858c-5-13-7-27-4-31 6-11 33 12 33 29 0 24-20 26-29 2z" id="path258"/><path d="M10675 2728c-9-22-2-68 10-71 14-3 19 63 6 76-7 7-12 5-16-5z" id="path260"/><path d="M10664 2594c-8-28-84-64-139-64-24 0-46-3-48-7-10-17 13-51 40-57 15-4 40-19 55-34l28-26-21-22c-11-12-16-25-11-28s17 3 27 14 15 20 11 20c-3 0 1 11 10 25 15 23 15 28 0 65l-16 40 27 11c49 19 58 26 61 44 2 9-1 22-7 28-9 9-13 6-17-9z" id="path262"/><path d="M10525 2290c-4-6-3-16 3-22s12-6 17 2c4 6 3 16-3 22s-12 6-17-2z" id="path264"/><path d="M10435 2260c-8-13 20-24 40-17 8 4 17 2 20-4 4-5 11-7 16-3 5 3 7 10 3 15-3 5-9 7-14 4s-11-1-15 5c-8 13-42 13-50 0z" id="path266"/><path d="M10067 1954c-3-4-2-16 4-26 8-15 14-17 22-9s7 15-4 26c-8 9-18 13-22 9z" id="path268"/></g><g id="layer106" transform="translate(-8460.866 -1462.98)" fill="#373e3b"><path d="M8558 3906c-131-19-129-58 3-71 38-4 71-11 74-15 3-5-7-17-22-28-22-16-25-23-16-33 9-9 17-8 37 5 20 12 26 13 26 3 0-7-6-19-12-26-11-10-6-18 22-41 37-31 55-36 65-20 9 15 136 13 133-2-2-7 4-13 12-13s14 6 12 14c-4 21 172 10 218-13 19-10 37-20 39-22s-26-33-63-68c-62-59-66-65-49-75 33-17 164-2 191 23 22 19 22 21 6 33-14 10-14 13-3 13 8 0 25 6 39 13 18 9 48 11 110 6 47-4 99-8 115-9l30-1-30-24c-16-13-42-27-57-31-16-3-33-14-38-24s-32-32-60-49-48-36-45-42c5-7 11-6 20 1 15 12 35 6 35-10 0-5-11-12-25-16-14-3-33-19-42-35-10-16-21-29-25-29-24 0-57-113-36-126 12-8 97 86 126 139l22 42-2-32c-1-17-5-31-9-30s-7-2-7-8c0-5 4-9 8-8 15 4-3-113-25-158l-22-46 44-62c25-34 49-59 54-55 5 3 7 10 4 15-4 5 1 9 10 9 12 0 15-5 11-16-3-9-6-23-6-31 0-14-3-14-19 1-27 24-48 11-25-15 10-12 26-17 40-15 13 3 26 0 29-5 4-5 13-9 22-9s24-7 33-15c15-14 19-14 29-1 10 12 9 17-7 25-10 5-31 26-46 45-26 34-26 35-4 29 13-3 100-4 193-2 266 5 326 4 385-5 30-4 63-8 72-8 10 1 20-3 23-9 4-5 17-9 29-9 13 0 29-7 36-15s19-15 26-15c20 0 114-67 145-104 19-22 25-39 22-59-5-35-71-123-89-119-19 4-28-17-9-24 13-5 10-16-19-68-53-97-145-221-165-222-10-1-23-4-30-8-15-10-3-29 15-22 11 4 11 1-2-18-9-15-11-27-5-30 5-4 13-1 16 5 4 5 14 7 24 3 9-3 25-7 36-9 28-3 64-18 64-27 1-12 3-12 59 6 50 17 123 18 207 4 15-2 21 3 23 23 2 15 12 35 23 45 10 9 19 26 19 37 0 12 10 31 21 43l21 23-33 31c-19 18-46 36-61 42-38 14-35 28 6 28 18 0 59 11 89 25 66 31 63 18 72 281 5 125 3 174-5 179-14 9-101-14-115-30-14-17-37-23-57-16-16 6-16 10 6 56 37 80 110 171 142 179 35 9 54 24 54 42 0 26-72 93-127 119-47 21-54 27-43 40 13 15 8 19-22 16-10-1-18 4-18 12 0 16-25 40-46 43-14 2-187 108-217 133-31 26-9 24 26-3 22-17 38-23 42-17 3 6 3 12-2 12-4 1 55 7 132 14 228 20 305 34 332 61 24 24 23 44-4 75-18 21-40 25-263 50-343 37-1151 36-1196-2-8-7-14-6-19 1-9 14-56 34-74 31-7-1-10 2-7 7s26 13 50 16c51 8 85 36 63 54-24 21-189 32-442 31-137-1-285-7-327-13zm742-165c0-14-23-28-60-34l-35-7 28 25c27 24 67 34 67 16zm424-16c15-11 54-15 155-17 75-1 116-3 91-5-25-1-87-8-138-13-88-10-97-9-138 12-24 12-44 25-44 30 0 13 54 8 74-7zm401-76c13-5-2-8-45-8-36 0-72 4-80 9-12 8-11 10 7 10 12 0 24 4 27 9 6 9 37 2 91-20zm89-25c5-13 3-14-6-7-7 6-20 13-28 16-10 4-8 6 6 6 12 1 25-6 28-15z" id="path271"/><path d="M8915 3650c-4-6-3-16 3-22s12-6 17 2c4 6 3 16-3 22s-12 6-17-2z" id="path273"/><path d="M8798 3604c-15-14 8-46 46-63 22-11 53-28 68-38 27-17 28-17 50 4l22 22-27 10c-15 6-26 16-25 23 2 7-24 19-62 29-36 10-65 18-66 19l-6-6z" id="path275"/><path d="M9465 2881c-4-8-1-19 8-28 19-20 30-1 13 22-10 14-15 15-21 6z" id="path277"/><path d="M9530 2855c-9-11-10-19-3-26s14-5 23 6 10 19 3 26-14 5-23-6z" id="path279"/><path d="M9601 2786c-7-8-8-17-3-20 6-3 15 1 21 8 7 8 8 17 3 20-6 3-15-1-21-8z" id="path281"/><path d="M10375 2760c-4-6-3-16 3-22s12-6 17 2c4 6 3 16-3 22s-12 6-17-2z" id="path283"/><path d="M9592 2698c-8-8-4-25 14-59 13-27 28-49 32-49s8-13 9-30c2-33 31-83 43-75 10 6 70-43 70-56 0-5-11-2-24 6-13 9-26 12-29 8-3-5 25-31 61-58 44-33 78-68 99-103 17-29 35-53 40-53 4 0 12-7 16-15 7-12 12-11 32 2 14 9 25 22 25 28 0 14-86 81-103 81-7 0-12 8-12 18 0 18-26 39-54 43-7 2-18 7-24 13-8 8-6 11 8 11 10 0 41-17 69-38 104-77 147-93 180-69 18 13 16 16-26 45-25 17-48 29-51 26-7-7-56 27-57 39 0 5 5 5 11 2 6-4 13 2 16 14 4 16 11 20 30 17 30-6 76 10 68 24-3 5-17 10-30 10-34 0-57 27-53 64 2 22-2 30-11 28-7-2-21 4-31 13-22 20-33 8-15-19 32-45 8-96-45-96-40 0-60 31-50 76 8 33-2 55-15 34-3-5-9-10-13-10-12 0-87 73-87 84 0 6-7 11-15 11-9 0-14-7-12-19 3-17 2-18-12-7-12 10-13 17-6 26 14 17-32 49-48 33z" id="path285"/><path d="M10145 2460c-4-6-3-16 3-22s12-6 17 2c4 6 3 16-3 22s-12 6-17-2z" id="path287"/><path d="M10049 2278c-5-20-4-50 3-54 15-9 30 7 19 20-6 7-8 15-5 18s1 9-5 13c-6 3-11 5-12 3z" id="path289"/></g></svg>