<svg viewBox="0 0 24 24" xmlns="http://www.w3.org/2000/svg"><path d="M16.87,8.65l-.1-.06a.5.5,0,0,0-.77.49.68.68,0,0,1-.17.56A1.16,1.16,0,0,1,15,10a1.05,1.05,0,0,1-1-1,4.46,4.46,0,0,1,.23-1.6,5.39,5.39,0,0,0,.27-1.9c0-2-.24-3.08-2.66-5.36A.5.5,0,0,0,11,.6C11.58,3.46,9.83,5,7.61,6.87,7,7.43,6.29,8,5.65,8.65,2.63,11.66,2,14.31,2,16c0,3,1.11,6.79,6.39,8h.12a.5.5,0,0,0,.25-.94C6.87,21.31,6.5,20.43,6.5,19.5a4.38,4.38,0,0,1,1.19-2.58A2.07,2.07,0,0,0,8,18.09,2.42,2.42,0,0,0,10,19c1.18,0,2-1,2-2.5a2.94,2.94,0,0,0-1.07-1.94A2.55,2.55,0,0,1,10,13a3,3,0,0,1,.24-1.16,3.25,3.25,0,0,0,1,1.06c.25.18.62.42,1.05.69,1.66,1,4.74,3,4.74,4.9,0,2.48-.91,3.24-2.79,4.59a.5.5,0,0,0,.29.91h.11c3.63-.8,7.39-4,7.39-8S18.54,9.74,16.87,8.65Z" style="fill:#303c42"/></svg>
