<svg xmlns="http://www.w3.org/2000/svg" viewBox="0 0 182.19 138.25"><g fill-rule="evenodd"><path d="M150.034 102.428c-15.067 6.545-31.413 5.53-44.978-1.31l.012-.022c-1.635-.687-6.791-3.07-12.052-7.832-3.442-3.114-7.71-8.169-11.377-12.254l26.004-15.576c.434.45.904.922 1.323 1.362 6.267 6.593 9.769 8.107 9.769 8.107 5.94 2.768 12.98 3.106 19.463.29 12.015-5.22 17.524-19.188 12.306-31.203-5.218-12.015-19.188-17.524-31.203-12.305-5.369 2.331-9.425 6.416-11.819 11.288l-26.684-12.82c5.31-11.095 14.452-20.412 26.674-25.72 27.06-11.753 58.525.656 70.279 27.716 11.754 27.061-.655 58.525-27.716 70.279" fill="#60bdea"/><path d="M75.335 71.415c-.342-.286-.688-.58-1.024-.861-4.88-4.074-6.048-4.863-10.433-7.18-6.072-2.841-13.318-3.169-19.901-.31-12.014 5.217-17.524 19.189-12.305 31.202 5.219 12.015 19.189 17.524 31.203 12.305 5.383-2.337 9.503-6.472 11.958-11.4l26.634 12.933c-5.372 11.097-14.555 20.415-26.751 25.712-27.06 11.754-58.525-.655-70.279-27.715-11.753-27.061.655-58.526 27.716-70.278 14.915-6.48 31.157-5.59 44.71 1.022l.017-.034s5.768 2.832 12.498 7.984c3.632 2.781 7.694 7.196 11.604 11.283L75.335 71.415" fill="#f04035"/></g></svg>