<svg xmlns="http://www.w3.org/2000/svg" viewBox="0 0 2290 1718.57"><defs><style>.a{fill:#646363;}.b{fill:#808181;}.c{fill:#aeafaf;}.d{fill:#c60000;}.e{fill:#f1f1f1;}.f{fill:#191919;}</style></defs><title>scalatra</title><path class="a" d="M136,1988c-4-5-12-8-17-8s-9-3-9-7c0-8,3-9,18-7,4,1,12,2,17,3,13,1,19,20,8,23C148,1994,140,1992,136,1988Zm169-13c-3-5,8-16,24-25,18-9,32-11,36-5,3,5-8,16-24,25C323,1979,309,1981,305,1975Zm620-19c-7-12,12-24,24-16,5,3,12,1,16-5s11-8,16-4c5,3,7,10,3,15-3,5-9,7-14,4s-11-1-15,5C947,1968,933,1968,925,1956Zm437-7c-26-18-21-39,6-25,9,5,25,12,35,15s15,10,12,16C1406,1969,1388,1967,1362,1949Zm653,6c-4-6-10-8-15-5s-11,1-14-4c-4-5-2-12,3-15,5-4,12-2,16,4s10,8,15,5,11-1,14,4c4,5,2,12-3,15C2026,1963,2019,1961,2015,1955Zm150,1c-6-11,13-26,22-17,3,3,18-4,34-14,15-12,30-16,33-11,7,11-33,43-45,35-4-2-10,0-14,6C2187,1968,2173,1968,2165,1956ZM625,1946c-3-6,3-15,14-21,12-6,22-6,26-1,3,6-3,15-14,21C639,1951,629,1951,625,1946Zm190,0c-3-6,3-15,14-21,12-6,22-6,26-1,3,6-3,15-14,21C829,1951,819,1951,815,1946Zm231-10c-9-9-13-22-9-26,5-5,1-4-9,3-20,16-34-1-15-17,10-8,20-4,41,18,15,16,23,31,18,35C1067,1952,1055,1946,1046,1936Zm80,10c-4-5,3-15,14-21s20-8,20-4c0,3,6,1,14-5,10-8,16-8,25,3,8,9,8,16,2,20-5,4-12,2-16-4s-15-4-30,6C1141,1950,1130,1952,1126,1946Zm929,0c-3-6,3-15,14-21,12-6,22-6,26-1,3,6-3,15-14,21C2069,1951,2059,1951,2055,1946ZM717,1924c-10-13-17-17-22-10-3,6-11,9-16,5-14-8,8-33,27-30s47,43,35,51C736,1943,725,1936,717,1924Zm163,2c-6-12-6-22-1-26,6-3,15,3,21,14,6,12,6,22,1,26C895,1943,886,1937,880,1926Zm755,10c-3-6,3-15,14-21,12-6,22-6,26-1,3,6-3,15-14,21C1649,1941,1639,1941,1635,1936Zm142-27c-4-4-3-12,1-18a66.51,66.51,0,0,0,8-18,103.79,103.79,0,0,1,4-13,102,102,0,0,0,4-15c0-5,4-10,9-10h13c4,0,1,7-6,15s-9,15-5,15,1,7-6,17c-8,9-12,18-11,20C1794,1910,1784,1915,1777,1909ZM406,1896c-4-5-2-12,4-16s8-10,5-15-1-11,4-14c5-4,12-2,15,3,4,5,2,12-4,16s-8,10-5,15,1,11-4,14C416,1903,409,1901,406,1896Zm1873-3c-5-17-4-50,3-54,4-3,8,9,8,25,0,17-2,31-5,31A8.45,8.45,0,0,1,2279,1893Zm-1043-15c-8-9-8-48,2-57,4-4,7-12,7-17s3-9,8-9c7,0,8,3,6,18-1,4,0,19,1,34C1261,1873,1249,1890,1236,1878Zm-462-17c-4-10-2-22,4-28,8-8,13-7,18,6,4,10,2,22-4,28C784,1875,779,1874,774,1861Zm1121,4c-8-13,20-24,41-16,8,3,12,10,9,16C1937,1878,1903,1878,1895,1865Zm-811-14c-3-9-3-24,1-33,3-10,6-19,5-21-3-10,33-61,40-57,6,4,3,19-7,38-9,18-16,42-14,54C1112,1858,1092,1873,1084,1851Zm-159-16c-4-6-3-16,3-22s12-6,17,2c4,6,3,16-3,22S930,1843,925,1835Zm460-10c-4-6-3-16,3-22s12-6,17,2c4,6,3,16-3,22S1390,1833,1385,1825Zm-598-16c-9-10,22-66,33-59,6,4,4,18-5,36C798,1817,797,1818,787,1809Zm1028-14c-3-5-1-11,5-15s8-10,5-15-1-11,4-14c12-8,34,20,29,35S1822,1807,1815,1795Zm-880-10c-4-6-3-16,3-22s12-6,17,2c4,6,3,16-3,22S940,1793,935,1785Zm-810-9c-3-6,3-15,14-21,12-6,22-6,26-1,3,6-3,15-14,21C139,1781,129,1781,125,1776Zm1270-1c-4-6-3-16,3-22s12-6,17,2c4,6,3,16-3,22S1400,1783,1395,1775Zm504,6c-5-23-2-46,5-48,12-4,15,41,4,48C1904,1784,1900,1784,1899,1781ZM286,1748c-3-3-14-7-24-8-26-2-30-18-4-20,27-2,60,19,45,28C297,1752,290,1752,286,1748Zm281,0c-4-6,0-18,7-28,8-11,16-14,19-8,4,6,0,18-7,28C578,1751,570,1754,567,1748Zm709-2c-3-5,6-19,21-31,26-20,28-20,40-4,15,20,6,41-10,25-8-8-16-6-28,5C1289,1750,1280,1752,1276,1746Zm-661-21c-4-6-3-16,3-22s12-6,17,2c4,6,3,16-3,22S620,1733,615,1725Zm329-4c-4-10-2-22,4-28,8-8,13-7,18,6,4,10,2,22-4,28C954,1735,949,1734,944,1721Zm1171,4c-4-6-3-16,3-22s12-6,17,2c4,6,3,16-3,22S2120,1733,2115,1725Zm-710-10c-4-6-3-16,3-22s12-6,17,2c4,6,3,16-3,22S1410,1723,1405,1715Zm-1020-9c-7-12,12-24,25-16,11,7,4,25-10,25C395,1715,389,1711,385,1706Zm705,9c-6-23-4-62,2-66,4-3,12,4,17,14,7,14,6,24-4,38C1097,1712,1090,1718,1090,1715Zm57-6c-9-10,22-66,33-59,6,4,4,18-5,36C1158,1717,1157,1718,1147,1709Zm-692-14c-8-12,20-24,35-15,6,3,8,11,5,16C487,1708,463,1708,455,1695Zm1121,2c-3-6,1-15,8-21,8-7,17-8,20-3,3,6-1,15-8,21C1588,1701,1579,1702,1576,1697Zm329-2c-4-6-3-16,3-22s12-6,17,2c4,6,3,16-3,22S1910,1703,1905,1695Zm-420-10c-4-6-3-16,3-22s12-6,17,2c4,6,3,16-3,22S1490,1693,1485,1685Zm-1118-6c-9-9,12-46,23-39,4,3,7,13,6,22C393,1680,378,1689,367,1679Zm1348-4c-3-5-2-10,2-12,13-7,33-3,36,6C1756,1681,1722,1686,1715,1675Zm-301-11c-6-10,6-14,33-14,13,0,24,5,25,10C1475,1671,1421,1675,1414,1664ZM106,1636c-15-16-23-31-18-35,5-3,21,8,36,23,15,16,23,31,18,35C137,1662,121,1651,106,1636Zm1453-3c-6-21-5-39,1-43,11-7,32,30,23,39C1577,1635,1561,1637,1559,1633Zm-352-44c-3-4-1-16,5-28,7-11,12-24,13-28,0-3,3-9,7-13s4-13,2-20c-6-16,12-29,21-15,3,5,3,16-2,23-4,6-8,15-9,20-1,4-2,8-4,10-1,1-3,10-5,21C1231,1582,1216,1598,1207,1589Zm-100-10c-4-4-3-12,1-18a66.51,66.51,0,0,0,8-18,103.79,103.79,0,0,1,4-13,102,102,0,0,0,4-15c0-5,4-10,9-10h13c4,0,1,7-6,15s-9,15-5,15,1,7-6,17c-8,9-12,18-11,20C1124,1580,1114,1585,1107,1579Zm-673-17c-7-20-2-47,11-50,14-3,19,43,6,56C444,1575,439,1574,434,1562Zm1133,7c-4-4-3-12,1-18a66.51,66.51,0,0,0,8-18,103.79,103.79,0,0,1,4-13,102,102,0,0,0,4-15c0-5,4-10,9-10h13c4,0,1,7-6,15s-9,15-5,15,1,7-6,17c-8,9-12,18-11,20C1584,1570,1574,1575,1567,1569Zm90-1c-4-6,0-18,7-28,8-11,16-14,19-8,4,6,0,18-7,28C1668,1571,1660,1574,1657,1568ZM360,1526c-6-12-6-22-1-26,6-3,15,3,21,14,6,12,6,22,1,26C375,1543,366,1537,360,1526Zm815-61c-4-6-3-16,3-22s12-6,17,2c4,6,3,16-3,22S1180,1473,1175,1465Zm-130-259c-7-12,12-24,25-16,11,7,4,25-10,25C1055,1215,1049,1211,1045,1206Zm80-10c-7-12,12-24,25-16,11,7,4,25-10,25C1135,1205,1129,1201,1125,1196Zm60-10c-7-12,12-24,25-16,11,7,4,25-10,25C1195,1195,1189,1191,1185,1186Zm60-10c-7-12,12-24,25-16,11,7,4,25-10,25C1255,1185,1249,1181,1245,1176Zm90-20c-7-12,12-24,24-16,5,3,13,0,16-6,4-5,13-8,21-5,7,3,16,1,19-5,4-5,11-7,16-3,5,3,7,10,3,15-3,5-9,7-14,4s-12,0-15,6c-4,5-13,8-21,5-7-3-16-1-19,4C1357,1168,1343,1168,1335,1156Zm120-31c-3-5-4-11-1-11,16-4,26-7,31-9,3-1,10-4,15-5,6-1,12-4,15-5s10-4,15-5c6-1,12-4,15-5a103.79,103.79,0,0,1,13-4c4-1,17-7,29-14,13-7,24-8,28-3,3,6-4,15-15,21s-20,8-20,4c0-3-7-1-15,6s-15,9-15,5-7-2-15,5-15,9-15,5-7-2-15,5-15,9-15,5-6-2-14,4C1466,1132,1460,1133,1455,1125Zm190-70c-3-5,8-16,24-25,18-9,32-11,36-5,3,5-8,16-24,25C1663,1059,1649,1061,1645,1055Zm-784-10c-75-11-133-35-165-69-24-25-28-39-32-103-3-43,0-86,6-103l11-30,21,27c24,34,100,58,201,63l72,4,3,86c3,82,4,85,25,80,12-3,81-11,152-20,165-18,220-30,270-58l40-23,3-89c2-77,0-93-17-116-27-36-9-48,18-13,20,26,21,26,48,9,25-17,27-17,39,0,11,15,13,13,16-17,5-51,29-42,45,17,20,79,17,108-17,140l-29,28-10-24c-9-22-10-21-10,14-1,34-6,40-55,72-114,73-258,116-405,120-56,2-106,6-109,9C975,1056,930,1055,861,1045Zm854-29c-3-6,3-15,14-21,12-6,22-6,26-1,3,6-3,15-14,21C1729,1021,1719,1021,1715,1016Zm62-39c-4-5,9-23,27-41,19-18,36-29,39-23,4,5-9,23-27,41C1797,972,1780,983,1777,977Z" transform="translate(-10 -292.87)"/><path class="a" d="M1121,801c-9-10-9-16-1-21,13-8,42,14,34,26C1146,819,1134,817,1121,801Zm-96-15c-7-12,12-24,25-16,11,7,4,25-10,25C1035,795,1029,791,1025,786Z" transform="translate(-10 -292.87)"/><path class="b" d="M575,1955c-8-12,20-24,35-15,6,3,8,11,5,16C607,1968,583,1968,575,1955Zm190,0c-3-5-2-10,2-12,13-7,33-3,36,6C806,1961,772,1966,765,1955Zm140-4c-11-8-14-16-8-19,6-4,18,0,28,7,11,8,14,16,8,19C927,1962,915,1958,905,1951Zm170,5c-7-12,12-24,25-16,11,7,4,25-10,25C1085,1965,1079,1961,1075,1956Zm150,1c-4-4-11-7-16-7s-9-3-9-7c0-8,4-9,15-7,3,1,14,2,25,3,11,0,21,5,23,10C1265,1960,1234,1966,1225,1957Zm340-1c-7-12,12-24,25-16,11,7,4,25-10,25C1575,1965,1569,1961,1565,1956Zm440-1c-3-5-2-10,2-12,13-7,33-3,36,6C2046,1961,2012,1966,2005,1955Zm149-2c-6-9-4-10,26-11,11-1,19,3,18,8C2194,1962,2161,1964,2154,1953ZM376,1937c-3-6,1-15,8-21,8-7,17-8,20-3,3,6-1,15-8,21C388,1941,379,1942,376,1937Zm1145-6c-7-8-8-17-3-20,6-3,15,1,21,8,7,8,8,17,3,20C1536,1942,1527,1938,1521,1931ZM501,1921c-7-8-8-17-3-20,6-3,15,1,21,8,7,8,8,17,3,20C516,1932,507,1928,501,1921Zm423-60c-4-10-2-22,4-28,8-8,13-7,18,6,4,10,2,22-4,28C934,1875,929,1874,924,1861Zm1102-35c-4-5-2-12,4-16s8-10,5-15-1-11,4-14c5-4,12-2,15,3,4,5,2,12-4,16s-8,10-5,15,1,11-4,14C2036,1833,2029,1831,2026,1826Zm-131-61c-4-6-3-16,3-22s12-6,17,2c4,6,3,16-3,22S1900,1773,1895,1765Zm-1719-9c-4-5-2-12,4-16,5-3,10-3,10,1,0,3,6,1,14-5,10-8,16-9,21-1,3,5,4,11,1,11-3,1-9,2-13,3-5,1-13,5-20,9C187,1762,179,1761,176,1756Zm509-31c-4-6-3-16,3-22s12-6,17,2c4,6,3,16-3,22S690,1733,685,1725Zm1400,1c-3-6,3-15,14-21,12-6,22-6,26-1,3,6-3,15-14,21C2099,1731,2089,1731,2085,1726ZM396,1647c-3-6,1-15,8-21,8-7,17-8,20-3,3,6-1,15-8,21C408,1651,399,1652,396,1647Zm1278-146c-4-10-2-22,4-28,8-8,13-7,18,6,4,10,2,22-4,28C1684,1515,1679,1514,1674,1501ZM795,1208c-11-2-56-11-100-19-120-23-222-75-269-137-77-101-16-222,164-321,57-31,66-40,68-66,1-17,18-72,37-123,18-50,37-105,41-122,11-46,52-102,86-116,17-7,54-12,82-11,28,0,172,2,319,4l269,3,23,27c13,15,26,45,30,67,4,23,11,43,16,47,5,3,9,13,9,22s7,30,15,46c8,15,15,35,15,42,0,8,6,16,13,18,196,57,277,130,277,251,0,55-89,156-187,211-176,99-546,186-784,183C862,1213,806,1211,795,1208Zm360-58c285-42,548-138,637-232,52-54,63-132,27-189-20-33-110-85-171-100-32-7-32-7-13,66,25,92,22,105-42,169-129,126-361,203-618,202-126,0-213-19-262-57-56-43-65-65-66-163l-1-90-49,27c-253,137-185,307,147,367C842,1168,1035,1168,1155,1150ZM986,1018c10-15,15-16,25-5,26,25,194,7,314-33,55-19,160-68,188-89,13-10,19-35,24-106l6-93-25,17c-46,30-39,0,7-32,29-20,45-39,45-53,0-37-82-253-104-273-21-18-46-19-246-4-8,0-85-7-171-18-138-16-160-16-194-3-50,19-74,53-85,120-4,30-20,86-34,125-51,141-68,353-32,393,23,26,89,51,157,61C949,1038,972,1036,986,1018Zm624-243c0-15-3-42-6-60-10-48-24-17-24,54,0,51,2,57,15,46C1603,808,1610,790,1610,775Z" transform="translate(-10 -292.87)"/><path class="b" d="M875,845c-3-5,0-13,8-16,23-8,82,0,82,11C965,854,883,859,875,845ZM762,823c-7-7-12-9-12-5s-9,3-20-3-18-15-15-21c4-5,15-4,28,3,12,7,25,12,29,13,12,0,19,13,10,19C777,832,768,829,762,823Zm349-22c-7-8-8-17-3-20,6-3,15,1,21,8,7,8,8,17,3,20C1126,812,1117,808,1111,801Z" transform="translate(-10 -292.87)"/><path class="c" d="M175,1995c-3-5,0-13,9-16,21-8,71-1,71,11C255,2004,183,2009,175,1995Zm-53-12c-7-7-12-9-12-5s-9,3-20-3-18-15-15-21c4-5,15-4,28,3,12,7,25,12,29,13,12,0,19,13,10,19C137,1992,128,1989,122,1983Zm163,2c-3-5-4-11-1-11,3-1,9-2,14-3,4-1,17-7,29-14,13-7,24-8,28-3,3,6-4,15-15,21s-20,8-20,4c0-3-6-1-14,5C296,1992,290,1993,285,1985Zm270-29c-7-12,12-24,25-16,11,7,4,25-10,25C565,1965,559,1961,555,1956Zm51,0c-4-5-2-12,4-16,5-3,10-3,10,1,0,3,6,1,14-5,10-8,16-9,21-1,3,5,4,11,1,11-3,1-9,2-13,3-5,1-13,5-20,9C617,1962,609,1961,606,1956Zm139-5c-11-8-14-16-8-19,6-4,18,0,28,7,11,8,14,16,8,19C767,1962,755,1958,745,1951Zm319,2c-6-9-4-10,26-11,11-1,19,3,18,8C1104,1962,1071,1964,1064,1953Zm481,0c-23-13-8-30,15-18,11,6,23,9,29,8,5-2,8,1,8,7C1595,1962,1566,1964,1545,1953Zm179,0c-5-8,3-12,18-9,7,1,45-49,47-61,1-5,2-10,2-13,1-3,2-9,3-15,0-5,4-10,9-10h13c4,0,2,6-4,13-6,6-11,15-11,20-1,4-1,8-2,10,0,1-2,10-4,20C1788,1947,1739,1978,1724,1953Zm312,3c-4-5-2-12,4-16,5-3,10-3,10,1,0,3,6,1,14-5,10-8,16-9,21-1,3,5,4,11,1,11-3,1-9,2-13,3-5,1-13,5-20,9C2047,1962,2039,1961,2036,1956ZM36,1936c-10-11-13-22-8-25s17,3,26,13c10,11,13,22,8,25S45,1946,36,1936Zm1099,10c-3-6,3-15,14-21,12-6,22-6,26-1,3,6-3,15-14,21C1149,1951,1139,1951,1135,1946Zm836-5c-7-8-8-17-3-20,6-3,15,1,21,8,7,8,8,17,3,20C1986,1952,1977,1948,1971,1941Zm-524-4c-4-5,9-23,27-41,19-18,36-29,39-23,4,5-9,23-27,41C1467,1932,1450,1943,1447,1937Zm-592-12c-3-4,1-13,9-19,10-9,16-8,26,4,7,8,11,15,9,16C868,1932,859,1932,855,1925Zm1240,1c-3-6,3-15,14-21,12-6,22-6,26-1,3,6-3,15-14,21C2109,1931,2099,1931,2095,1926Zm-711-65c-8-21,3-49,16-41,5,3,10,15,10,25C1410,1870,1392,1881,1384,1861ZM84,1851c-8-21,3-49,16-41,5,3,10,15,10,25C110,1860,92,1871,84,1851Zm340-20c-4-10-2-22,4-28,8-8,13-7,18,6,4,10,2,22-4,28C434,1845,429,1844,424,1831Zm823-13c-4-3-2-12,4-20,6-7,8-13,5-13-4,0-2-9,4-20s15-18,21-15c5,4,4,15-3,28-7,12-12,25-13,29C1265,1818,1254,1825,1247,1818Zm-925-33c-23-31-14-51,10-22,23,27,29,40,20,46C347,1812,334,1801,322,1785Zm775,24c-9-10,32-86,43-79,6,4,1,23-10,46C1108,1817,1107,1819,1097,1809Zm719-3c-4-5-2-12,4-16s8-10,5-15-1-11,4-14c5-4,12-2,15,3,4,5,2,12-4,16s-8,10-5,15,1,11-4,14C1826,1813,1819,1811,1816,1806ZM656,1787c-3-6,1-15,8-21,8-7,17-8,20-3,3,6-1,15-8,21C668,1791,659,1792,656,1787Zm-391-46c-11-8-14-16-8-19,6-4,18,0,28,7,11,8,14,16,8,19C287,1752,275,1748,265,1741Zm1290,4c-8-13,13-52,25-45,9,6,2,43-11,50C1565,1753,1559,1751,1555,1745Zm511,2c-3-6,1-15,8-21,8-7,17-8,20-3,3,6-1,15-8,21C2078,1751,2069,1752,2066,1747ZM855,1731c-18-13-18-14,3-25,12-6,22-10,23-9C892,1739,882,1751,855,1731Zm-354-30c-9-10-9-16-1-21,17-10,37,12,24,25C516,1713,509,1711,501,1701Zm-326-10c-11-8-14-16-8-19,6-4,18,0,28,7,11,8,14,16,8,19C197,1702,185,1698,175,1691Zm910,4c-4-6-3-16,3-22s12-6,17,2c4,6,3,16-3,22S1090,1703,1085,1695Zm72,4c-3-4,10-38,30-78,21-39,38-74,39-78a103.79,103.79,0,0,1,4-13,102,102,0,0,0,4-15c0-5,4-10,9-10h13c4,0,1,7-6,15s-9,15-5,15,2,7-5,15-10,15-6,15c3,0-10,32-29,70C1168,1708,1167,1709,1157,1699Zm245-17c-16-19-3-30,16-14q16.5,12,9,0c-4-6-3-14,2-17,19-12,20,12,2,28C1416,1693,1411,1693,1402,1682Zm193,3c-3-5,0-13,8-16,23-9,122,0,122,11C1725,1694,1603,1699,1595,1685Zm130-19c-7-12,12-24,25-16,11,7,4,25-10,25C1735,1675,1729,1671,1725,1666Zm-625-21c-11-21-5-44,9-35,13,7,20,44,11,50C1115,1663,1106,1656,1100,1645Zm-683-16c-9-10,22-66,33-59,6,4,4,18-5,36C428,1637,427,1638,417,1629Zm1230-30c-9-10,22-66,33-59,6,4,4,18-5,36C1658,1607,1657,1608,1647,1599Zm-540-10c-4-4-3-12,1-18a66.51,66.51,0,0,0,8-18,103.79,103.79,0,0,1,4-13c1-3,4-9,5-15,1-5,4-12,5-15a102,102,0,0,0,4-15c0-5,4-10,9-10,7,0,8,4,6,15a154.63,154.63,0,0,0-4,15c-1,6-4,12-5,15s-4,10-5,15c-1,6-4,12-5,15a127.46,127.46,0,0,0-4,14C1124,1588,1114,1596,1107,1589Zm470-41c-4-3-2-12,4-20,6-7,8-13,5-13-4,0-2-9,4-20s15-18,21-15c5,4,4,15-3,28-7,12-12,25-13,29C1595,1548,1584,1555,1577,1548ZM166,1527c-3-6,1-15,8-21,8-7,17-8,20-3,3,6-1,15-8,21C178,1531,169,1532,166,1527Zm169-22c-4-6-10-8-15-5s-11,1-14-4c-4-5-2-12,3-15,5-4,12-2,16,4s10,8,15,5,11-1,14,4c4,5,2,12-3,15C346,1513,339,1511,335,1505Zm821-38c-3-6,1-15,8-21,8-7,17-8,20-3,3,6-1,15-8,21C1168,1471,1159,1472,1156,1467Zm89-5c-9-22-2-62,10-60,6,1,11,14,13,29C1272,1463,1254,1487,1245,1462ZM737,1199c-3-3-4-11-1-18,3-8-16-16-53-24-84-17-172-63-215-110-21-23-38-47-38-52,0-6-6-10-14-8s-15,0-15-4c-1-5,2-7,5-5,4,1,13-18,20-43,8-29,28-60,56-87,54-53,157-115,181-109,13,3,17-2,17-20,0-13-4-23-9-22-5,2-9-1-10-7-1-5,4-10,10-10,7,0,20-27,29-60,24-87,49-140,59-129,6,5-3,44-20,94-20,59-28,101-27,135,3,47,5,51,43,70,31,15,63,20,143,22,57,1,106,4,109,7,12,11-51,26-111,26-80,0-162-24-197-59l-27-27-6,38c-6,34-2,86,10,145,6,33,62,70,129,88,71,19,248,21,350,5,234-37,463-160,477-258,2-18,2-35-1-38-10-10-39-124-32-128,9-5,53-1,79,8,12,4,21,4,20-1-2-4,1-8,7-8a8.46,8.46,0,0,1,8,10c-2,6,20,22,47,37s60,44,72,63c13,19,30,34,38,32,8-1,15,4,15,11,0,6-4,12-9,11-14-1-26,24-21,42,14,44-51,126-145,184-181,110-546,192-817,183-78-3-140-2-138,3C761,1195,745,1207,737,1199Zm542-79c310-63,519-169,549-277,13-48-1-102-34-133-27-25-95-60-139-71-27-7-27-6-19,27,4,19,8,44,9,56,1,13,5,26,8,30,29,28-34,115-128,178-92,61-243,114-397,140-35,5-38,8-38,40s2,35,31,35C1138,1145,1209,1134,1279,1120ZM397,938c-4-3-2-12,4-20,6-7,8-13,5-13-4,0-2-9,4-20s15-18,21-15c5,4,4,15-3,28-7,12-12,25-13,29C415,938,404,945,397,938Z" transform="translate(-10 -292.87)"/><path class="c" d="M1065,795c-8-13,20-24,41-16,20,8,9,26-16,26C1080,805,1068,800,1065,795Zm-70-9c-7-12,12-24,25-16,11,7,4,25-10,25C1005,795,999,791,995,786Zm-40-21c-4-6-3-16,3-22s12-6,17,2c4,6,3,16-3,22S960,773,955,765Zm515-55c-7-8-10-16-6-16,3-1,11-3,16-4,6-1,14-3,18-4,5,0,22-15,39-32l32-30-47-132c-25-73-51-135-56-139-6-4-21-8-33-8s-25-5-28-10c-12-19,27-23,60-7,26,12,37,26,46,57,7,22,17,39,23,38,7-2,11,2,11,7,0,6-3,9-7,8-10-4-10-2,3,36,6,17,17,30,24,29,8-2,13,2,12,7-1,6-5,9-9,8-11-4-10,3,6,41,27,66,12,101-65,150C1486,724,1481,724,1470,710Zm265-79c-11-8-14-16-8-19,6-4,18,0,28,7,11,8,14,16,8,19C1757,642,1745,638,1735,631Zm-650-75c-7-12,12-24,25-16,11,7,4,25-10,25C1095,565,1089,561,1085,556Zm80-10c-7-12,12-24,25-16,11,7,4,25-10,25C1175,555,1169,551,1165,546ZM756,457c-3-5-3-30-1-56,4-49,20-80,36-70,5,3,8,0,7-8-4-15,186-22,292-10,60,6,64,9,64,32,0,17-11,32-39,52-51,34-121,62-140,54-37-14,2-105,46-107,8,0,3-5-11-11-34-14-138-10-172,8-30,15-58,61-58,93C780,455,765,470,756,457Zm425-106c-15-18,1-30,31-20,17,5,20,3,15-10-4-10-1-16,9-16,8,0,13,4,10,9s1,11,9,15c16,6,29-9,20-24-3-5,1-10,10-10s14,4,11,9,4,11,15,14c27,7,14,29-14,25-12-1-26,0-32,4C1238,363,1193,365,1181,351Z" transform="translate(-10 -292.87)"/><path class="d" d="M967,1019c-4-4-7-49-7-101,0-107-2-106,106-118,184-21,386-64,399-85,16-25,25,8,25,89,0,78-2,90-22,108-54,49-112,66-311,88-73,9-143,18-157,21C986,1023,971,1023,967,1019Zm-6-263c-6-11-11-56-11-100,0-66,3-82,18-90,9-5,76-16,147-25,167-22,253-40,311-65,25-12,50-18,55-15s9,45,9,95v89l-41,29c-49,36-125,54-319,76-79,9-148,19-152,21C974,774,966,767,961,756Z" transform="translate(-10 -292.87)"/><path class="e" d="M160,2009c-58-11-70-15-99-40-45-38-28-47,31-16,41,21,65,26,123,26,124,0,204-59,209-154,3-51,13-60,26-24,24,61-20,153-90,189C332,2004,203,2017,160,2009Zm400-31c-24-9-70-55-64-64,2-4,20,1,40,13,43,25,92,20,138-16l33-25,25,30c31,34,55,36,107,9,38-19,39-19,56,0,24,27,55,25,101-6l38-26,19,26c21,29,35,31,91,11,34-12,42-12,60,1,29,20,58,17,99-10l36-25,16,25c25,38,70,30,127-24,24-22,28-23,34-8,12,31-67,96-116,96-11,0-28-8-38-18-18-18-20-18-53,0-40,21-65,22-98,4-21-11-30-11-57,0-47,20-67,17-94-11l-23-24-29,24c-35,30-78,32-103,6-17-20-17-20-53,0-49,25-74,24-111-7l-30-25-29,21C653,1977,587,1989,560,1978Z" transform="translate(-10 -292.87)"/><path class="e" d="M1541,1959c-34-29-32-53,2-29,29,20,43,19,106-10,36-17,58-22,64-16,14,14-10,41-58,62C1601,1991,1577,1990,1541,1959Zm184,6c-10-11-14-20-9-21s18-2,29-3c15-1,26-21,51-86,30-82,46-101,52-62,4,24-43,150-65,174C1762,1990,1747,1990,1725,1965Zm261-1c-34-27-25-40,18-27,29,9,41,7,77-11,28-15,45-19,52-12,13,13-6,37-44,57C2050,1991,2017,1989,1986,1964Zm159,1c-10-11-16-20-14-21s23-2,46-3c47-2,103-45,103-77,0-10,5-21,10-24,6-4,10,12,10,39,0,42-3,48-42,76C2210,1990,2171,1993,2145,1965Zm-275-95c-22-23-20-31,5-25,6,2,26,6,45,9,44,8,48,35,5,39C1903,1895,1888,1889,1870,1870Zm160,6c-16-31,4-95,45-139,26-28,37-34,46-25s4,20-19,50c-28,35-39,60-46,106C2052,1895,2042,1898,2030,1876ZM97,1879c-4-4-7-24-7-45,0-44,25-67,103-93,66-22,81-20,122,15,41,37,37,59-6,27-27-20-33-21-77-9-68,18-106,43-110,72C118,1874,107,1888,97,1879Zm690,0c-24-24,17-133,60-161,40-26,48-2,14,41-17,21-35,54-42,74C806,1875,797,1888,787,1879Zm147-9c-8-21,13-165,27-179,17-19,22,29,10,103C957,1875,945,1900,934,1870Zm310,2c-21-57,62-195,96-161,8,8,3,21-20,45-17,19-36,52-42,74C1264,1880,1253,1894,1244,1872Zm152,6c-10-10-7-74,8-135,9-39,10-60,3-67-14-14,12-23,55-19,40,4,46,31,7,36-24,3-26,8-39,93C1418,1872,1410,1892,1396,1878Zm779-4c-4-6-2-47,5-92,16-107,18-113,32-99,13,13,13,67-2,139C2198,1876,2187,1894,2175,1874Zm-1079-6c-16-17,0-64,63-186,45-86,74-155,81-195,13-66,26-85,37-56,14,37-19,141-88,271-38,73-69,139-69,147C1120,1866,1106,1877,1096,1868Zm-542-18c-8-19,3-90,17-116,5-10,18-23,29-29,30-16,37,13,11,46-12,15-24,44-27,66C577,1860,563,1875,554,1850Zm1000-10c-10-26,2-112,20-139,15-23,23-26,79-26,35,0,68-5,75-12,9-9,13-7,18,5,12,31-14,47-76,47-69,0-78,9-87,79C1577,1848,1564,1868,1554,1840Zm-929-35c-9-14,3-30,24-30,10,0,24-15,34-36,18-38,37-38,37,0C720,1789,646,1840,625,1805Zm1279-24c-9-24,8-108,21-104,6,2,9,25,8,52C1930,1783,1915,1810,1904,1781ZM377,1725c-28-18-11-28,59-35,66-8,100,3,78,24C499,1729,397,1737,377,1725Zm1418-3c-9-22-2-62,10-60,6,1,11,14,13,29C1822,1723,1804,1747,1795,1722ZM121,1665c-45-44-47-79-2-37,14,13,38,32,53,42,28,17,29,35,4,35C168,1705,144,1687,121,1665Zm974,11c-14-24,35-189,65-216,17-16,20-16,26-2,3,8-1,26-9,39-9,13-25,57-37,98C1117,1675,1106,1693,1095,1676Zm-748-7c-11-12,3-24,28-24,29,0,56-37,64-88,8-49,25-47,29,3,4,58-31,109-79,113C370,1675,351,1673,347,1669Zm1289-43c-4-5,3-26,15-45,12-20,23-58,25-84s3-49,4-52c0-3,7,4,15,14,21,28,18,75-7,126C1665,1630,1647,1644,1636,1626Zm-71-11c-8-13,19-108,39-135,11-15,17-17,27-8,9,9,7,21-10,55-11,25-21,51-21,60C1600,1608,1574,1629,1565,1615ZM153,1559c-8-22,44-73,84-80,65-12,157,24,139,55-6,9-11,9-23-1-9-7-42-13-75-13-54,0-63,3-82,28C171,1579,162,1581,153,1559Zm924-402c-3-4-7-27-8-51l-4-45,110-22c194-38,326-96,412-180,60-59,61-65,33-169-10-38-15-73-12-77,11-11,121,31,169,63,50,35,76,78,76,129,0,136-217,262-574,335C1151,1165,1085,1171,1077,1157Z" transform="translate(-10 -292.87)"/><path class="e" d="M787,821c-104-28-119-82-68-235,16-47,32-107,36-133,9-58,35-102,77-129,29-18,44-20,118-15,148,10,225,18,236,27,6,5,45,1,88-7,88-18,175-12,204,14,11,9,40,77,65,150l46,132-34,35c-54,53-68,58-94,31-19-20-20-24-6-36,11-9,15-33,15-96V476l-45,20c-48,21-147,44-230,53-71,8-123,15-175,24l-45,8-3,91-3,92,38,6c99,17,115,21,116,30,2,13-137,34-223,34C864,834,813,828,787,821Zm280-418c53-26,61-33,47-41-21-12-99-3-119,13-17,14-20,60-4,60C997,435,1032,421,1067,403Z" transform="translate(-10 -292.87)"/><path class="f" d="M127,1983c-21-6-56-27-78-48-36-34-39-41-39-93,0-53,2-57,42-91,23-20,59-42,80-48s38-14,38-17c-1-3-23-24-50-46-47-38-50-43-50-87,0-90,80-147,205-148,53,0,78,5,105,21,55,33,70,57,70,116,0,42-5,58-27,84l-27,32,34-6c19-3,76-9,125-13,83-6,92-4,118,16,34,27,36,75,6,114-36,46-88,22-68-31,9-25-2-31-19-10-14,17-29,86-24,114,2,14,13,25,28,29,39,10,90-31,120-96,28-61,65-104,106-126,31-16,74-18,83-4,3,6,14,10,24,10,36,0,40,20,24,113-8,49-12,91-10,94,3,2,17-3,31-12,23-15,26-24,26-72,0-133,61-311,128-376,47-45,76-53,107-33,51,34,24,158-70,326-55,99-72,141-60,159,13,22,42-9,64-67,34-96,134-174,182-143,22,13,32,14,25,2-10-15,25-35,71-41,45-5,45-5,62-60,33-106,67-150,117-150,23,0,38,7,48,22,22,31,20,101-4,150-11,23-20,43-20,45s17,3,38,3,42,4,47,9c6,5,24,11,40,13,22,2,31,9,33,24,3,22,3,22,27-2,26-26,66-32,83-11,7,8,7,28,2,57-13,66-12,70,13,70,15,0,29-12,45-40,40-70,144-126,167-90,3,6,17,10,31,10,35,0,39,21,22,116-8,47-11,87-7,90,5,2,26-11,47-30,22-20,42-33,46-29,3,3,6,26,6,50,0,39-4,46-42,73-47,35-87,38-112,11-18-19-18-19-49,0-18,10-44,19-59,19-32,0-88-45-88-71,0-14-7-19-25-19-32,0-75-27-75-47,0-28-19-2-36,50-27,86-56,105-94,67l-20-20-40,20c-21,11-51,20-65,20-29,0-87-38-79-52,11-17-10-7-43,22-40,35-82,39-108,10-18-20-18-20-50,0-38,24-88,26-105,5-11-13-16-13-47,0-50,21-76,19-103-10l-23-24-29,24c-35,30-78,32-102,6-18-19-18-19-49,0-44,26-85,24-118-7l-26-25-38,25c-57,39-106,36-157-12-37-35-40-42-40-90,0-32,8-67,20-93l21-41-37,6c-20,3-48,6-61,6H387l22,24c63,68,27,187-73,238C288,1992,185,2000,127,1983Zm153-94c68-27,81-84,29-128-37-31-39-31-116-5-72,24-96,46-91,86C108,1897,200,1921,280,1889Zm549-33c6-10,15-39,20-63,6-25,13-53,17-64,4-13-4-9-25,13-30,32-57,105-46,123C805,1880,818,1877,829,1856Zm457,7c4-6,13-35,20-62,6-28,15-59,19-69,6-13,4-16-10-11-20,8-65,98-65,132C1250,1876,1274,1883,1286,1863Zm782-1c6-7,16-35,22-62,6-28,16-58,21-68,9-16,7-17-11-7-26,14-60,81-60,120C2040,1877,2051,1883,2068,1862Zm-621-29c27-29,32-42,35-95,3-65-2-73-41-73-13,0-18,9-19,34-1,18-6,53-11,77-13,54-14,89-3,89C1412,1865,1430,1850,1447,1833Zm208,9c36-20,41-29,56-88,9-36,20-72,24-80,6-11,5-12-6-1-7,7-39,12-72,12-45,0-63,4-73,18-14,18-20,143-7,155C1589,1870,1614,1865,1655,1842ZM336,1638c1-16,8-46,17-68,15-38,15-41-5-57-26-23-124-25-156-2-26,18-29,56-6,75,21,18,126,76,139,78C331,1664,336,1653,336,1638Zm819-114c13-38,20-67,15-64-10,6-44,94-54,140C1106,1648,1128,1606,1155,1524Zm454,8c11-26,16-47,10-47-10,0-24,31-35,78C1575,1601,1585,1588,1609,1532Zm-552-305c-26-4-48-11-48-17,0-5,37-15,83-22,310-44,556-123,681-218,25-19,59-56,73-82l28-46,18,23c53,65-12,170-149,239C1578,1187,1227,1250,1057,1227Zm3-435c-63-9-85-16-85-27,0-16,11-18,228-45,71-8,154-24,185-35,56-18,57-18,76,0,39,38,0,66-135,94C1218,802,1155,805,1060,792Z" transform="translate(-10 -292.87)"/></svg>