<svg version="1" xmlns="http://www.w3.org/2000/svg" viewBox="0 0 2310 1740"><g id="layer101" fill="#646363"><path d="M136 1703c-4-5-12-8-17-8s-9-3-9-7c0-8 3-9 18-7 4 1 12 2 17 3 13 1 19 20 8 23-5 2-13 0-17-4zM305 1690c-3-5 8-16 24-25 18-9 32-11 36-5 3 5-8 16-24 25-18 9-32 11-36 5zM925 1671c-7-12 12-24 24-16 5 3 12 1 16-5s11-8 16-4c5 3 7 10 3 15-3 5-9 7-14 4s-11-1-15 5c-8 13-22 13-30 1zM1362 1664c-26-18-21-39 6-25 9 5 25 12 35 15s15 10 12 16c-9 14-27 12-53-6zM2015 1670c-4-6-10-8-15-5s-11 1-14-4c-4-5-2-12 3-15 5-4 12-2 16 4s10 8 15 5 11-1 14 4c4 5 2 12-3 15-5 4-12 2-16-4zM2165 1671c-6-11 13-26 22-17 3 3 18-4 34-14 15-12 30-16 33-11 7 11-33 43-45 35-4-2-10 0-14 6-8 13-22 13-30 1zM625 1661c-3-6 3-15 14-21 12-6 22-6 26-1 3 6-3 15-14 21-12 6-22 6-26 1zM815 1661c-3-6 3-15 14-21 12-6 22-6 26-1 3 6-3 15-14 21-12 6-22 6-26 1zM1046 1651c-9-9-13-22-9-26 5-5 1-4-9 3-20 16-34-1-15-17 10-8 20-4 41 18 15 16 23 31 18 35-5 3-17-3-26-13zM1126 1661c-4-5 3-15 14-21s20-8 20-4c0 3 6 1 14-5 10-8 16-8 25 3 8 9 8 16 2 20-5 4-12 2-16-4s-15-4-30 6c-14 9-25 11-29 5zM2055 1661c-3-6 3-15 14-21 12-6 22-6 26-1 3 6-3 15-14 21-12 6-22 6-26 1zM717 1639c-10-13-17-17-22-10-3 6-11 9-16 5-14-8 8-33 27-30s47 43 35 51c-5 3-16-4-24-16zM880 1641c-6-12-6-22-1-26 6-3 15 3 21 14 6 12 6 22 1 26-6 3-15-3-21-14zM1635 1651c-3-6 3-15 14-21 12-6 22-6 26-1 3 6-3 15-14 21-12 6-22 6-26 1zM1777 1624c-4-4-3-12 1-18s7-14 8-18c1-5 3-10 4-13s3-9 4-15c0-5 4-10 9-10h13c4 0 1 7-6 15s-9 15-5 15 1 7-6 17c-8 9-12 18-11 20 6 8-4 13-11 7zM406 1611c-4-5-2-12 4-16s8-10 5-15-1-11 4-14c5-4 12-2 15 3 4 5 2 12-4 16s-8 10-5 15 1 11-4 14c-5 4-12 2-15-3zM2279 1608c-5-17-4-50 3-54 4-3 8 9 8 25 0 17-2 31-5 31s-5-1-6-2zM1236 1593c-8-9-8-48 2-57 4-4 7-12 7-17s3-9 8-9c7 0 8 3 6 18-1 4 0 19 1 34 1 26-11 43-24 31zM774 1576c-4-10-2-22 4-28 8-8 13-7 18 6 4 10 2 22-4 28-8 8-13 7-18-6zM1895 1580c-8-13 20-24 41-16 8 3 12 10 9 16-8 13-42 13-50 0zM1084 1566c-3-9-3-24 1-33 3-10 6-19 5-21-3-10 33-61 40-57 6 4 3 19-7 38-9 18-16 42-14 54 3 26-17 41-25 19zM925 1550c-4-6-3-16 3-22s12-6 17 2c4 6 3 16-3 22s-12 6-17-2zM1385 1540c-4-6-3-16 3-22s12-6 17 2c4 6 3 16-3 22s-12 6-17-2zM787 1524c-9-10 22-66 33-59 6 4 4 18-5 36-17 31-18 32-28 23zM1815 1510c-3-5-1-11 5-15s8-10 5-15-1-11 4-14c12-8 34 20 29 35s-36 21-43 9zM935 1500c-4-6-3-16 3-22s12-6 17 2c4 6 3 16-3 22s-12 6-17-2zM125 1491c-3-6 3-15 14-21 12-6 22-6 26-1 3 6-3 15-14 21-12 6-22 6-26 1zM1395 1490c-4-6-3-16 3-22s12-6 17 2c4 6 3 16-3 22s-12 6-17-2zM1899 1496c-5-23-2-46 5-48 12-4 15 41 4 48-4 3-8 3-9 0zM286 1463c-3-3-14-7-24-8-26-2-30-18-4-20 27-2 60 19 45 28-6 4-13 4-17 0zM567 1463c-4-6 0-18 7-28 8-11 16-14 19-8 4 6 0 18-7 28-8 11-16 14-19 8zM1276 1461c-3-5 6-19 21-31 26-20 28-20 40-4 15 20 6 41-10 25-8-8-16-6-28 5-10 9-19 11-23 5zM615 1440c-4-6-3-16 3-22s12-6 17 2c4 6 3 16-3 22s-12 6-17-2zM944 1436c-4-10-2-22 4-28 8-8 13-7 18 6 4 10 2 22-4 28-8 8-13 7-18-6zM2115 1440c-4-6-3-16 3-22s12-6 17 2c4 6 3 16-3 22s-12 6-17-2zM1405 1430c-4-6-3-16 3-22s12-6 17 2c4 6 3 16-3 22s-12 6-17-2zM385 1421c-7-12 12-24 25-16 11 7 4 25-10 25-5 0-11-4-15-9zM1090 1430c-6-23-4-62 2-66 4-3 12 4 17 14 7 14 6 24-4 38-8 11-15 17-15 14zM1147 1424c-9-10 22-66 33-59 6 4 4 18-5 36-17 31-18 32-28 23zM455 1410c-8-12 20-24 35-15 6 3 8 11 5 16-8 12-32 12-40-1zM1576 1412c-3-6 1-15 8-21 8-7 17-8 20-3 3 6-1 15-8 21-8 7-17 8-20 3zM1905 1410c-4-6-3-16 3-22s12-6 17 2c4 6 3 16-3 22s-12 6-17-2zM1485 1400c-4-6-3-16 3-22s12-6 17 2c4 6 3 16-3 22s-12 6-17-2zM367 1394c-9-9 12-46 23-39 4 3 7 13 6 22-3 18-18 27-29 17zM1715 1390c-3-5-2-10 2-12 13-7 33-3 36 6 3 12-31 17-38 6zM1414 1379c-6-10 6-14 33-14 13 0 24 5 25 10 3 11-51 15-58 4zM106 1351c-15-16-23-31-18-35 5-3 21 8 36 23 15 16 23 31 18 35-5 3-21-8-36-23zM1559 1348c-6-21-5-39 1-43 11-7 32 30 23 39-6 6-22 8-24 4zM1207 1304c-3-4-1-16 5-28 7-11 12-24 13-28 0-3 3-9 7-13s4-13 2-20c-6-16 12-29 21-15 3 5 3 16-2 23-4 6-8 15-9 20-1 4-2 8-4 10-1 1-3 10-5 21-4 23-19 39-28 30zM1107 1294c-4-4-3-12 1-18s7-14 8-18c1-5 3-10 4-13s3-9 4-15c0-5 4-10 9-10h13c4 0 1 7-6 15s-9 15-5 15 1 7-6 17c-8 9-12 18-11 20 6 8-4 13-11 7zM434 1277c-7-20-2-47 11-50 14-3 19 43 6 56-7 7-12 6-17-6zM1567 1284c-4-4-3-12 1-18s7-14 8-18c1-5 3-10 4-13s3-9 4-15c0-5 4-10 9-10h13c4 0 1 7-6 15s-9 15-5 15 1 7-6 17c-8 9-12 18-11 20 6 8-4 13-11 7zM1657 1283c-4-6 0-18 7-28 8-11 16-14 19-8 4 6 0 18-7 28-8 11-16 14-19 8zM360 1241c-6-12-6-22-1-26 6-3 15 3 21 14 6 12 6 22 1 26-6 3-15-3-21-14zM1175 1180c-4-6-3-16 3-22s12-6 17 2c4 6 3 16-3 22s-12 6-17-2zM1045 921c-7-12 12-24 25-16 11 7 4 25-10 25-5 0-11-4-15-9zM1125 911c-7-12 12-24 25-16 11 7 4 25-10 25-5 0-11-4-15-9zM1185 901c-7-12 12-24 25-16 11 7 4 25-10 25-5 0-11-4-15-9zM1245 891c-7-12 12-24 25-16 11 7 4 25-10 25-5 0-11-4-15-9zM1335 871c-7-12 12-24 24-16 5 3 13 0 16-6 4-5 13-8 21-5 7 3 16 1 19-5 4-5 11-7 16-3 5 3 7 10 3 15-3 5-9 7-14 4s-12 0-15 6c-4 5-13 8-21 5-7-3-16-1-19 4-8 13-22 13-30 1zM1455 840c-3-5-4-11-1-11 16-4 26-7 31-9 3-1 10-4 15-5 6-1 12-4 15-5s10-4 15-5c6-1 12-4 15-5s8-3 13-4c4-1 17-7 29-14 13-7 24-8 28-3 3 6-4 15-15 21s-20 8-20 4c0-3-7-1-15 6s-15 9-15 5-7-2-15 5-15 9-15 5-7-2-15 5-15 9-15 5-6-2-14 4c-10 8-16 9-21 1zM1645 770c-3-5 8-16 24-25 18-9 32-11 36-5 3 5-8 16-24 25-18 9-32 11-36 5zM861 760c-75-11-133-35-165-69-24-25-28-39-32-103-3-43 0-86 6-103l11-30 21 27c24 34 100 58 201 63l72 4 3 86c3 82 4 85 25 80 12-3 81-11 152-20 165-18 220-30 270-58l40-23 3-89c2-77 0-93-17-116-27-36-9-48 18-13 20 26 21 26 48 9 25-17 27-17 39 0 11 15 13 13 16-17 5-51 29-42 45 17 20 79 17 108-17 140l-29 28-10-24c-9-22-10-21-10 14-1 34-6 40-55 72-114 73-258 116-405 120-56 2-106 6-109 9-7 7-52 6-121-4zM1715 731c-3-6 3-15 14-21 12-6 22-6 26-1 3 6-3 15-14 21-12 6-22 6-26 1zM1777 692c-4-5 9-23 27-41 19-18 36-29 39-23 4 5-9 23-27 41-19 18-36 29-39 23z"/><path d="M1121 516c-9-10-9-16-1-21 13-8 42 14 34 26-8 13-20 11-33-5zM1025 501c-7-12 12-24 25-16 11 7 4 25-10 25-5 0-11-4-15-9z"/></g><g id="layer102" fill="#808181"><path d="M575 1670c-8-12 20-24 35-15 6 3 8 11 5 16-8 12-32 12-40-1zM765 1670c-3-5-2-10 2-12 13-7 33-3 36 6 3 12-31 17-38 6zM905 1666c-11-8-14-16-8-19 6-4 18 0 28 7 11 8 14 16 8 19-6 4-18 0-28-7zM1075 1671c-7-12 12-24 25-16 11 7 4 25-10 25-5 0-11-4-15-9zM1225 1672c-4-4-11-7-16-7s-9-3-9-7c0-8 4-9 15-7 3 1 14 2 25 3 11 0 21 5 23 10 2 11-29 17-38 8zM1565 1671c-7-12 12-24 25-16 11 7 4 25-10 25-5 0-11-4-15-9zM2005 1670c-3-5-2-10 2-12 13-7 33-3 36 6 3 12-31 17-38 6zM2154 1668c-6-9-4-10 26-11 11-1 19 3 18 8-4 12-37 14-44 3zM376 1652c-3-6 1-15 8-21 8-7 17-8 20-3 3 6-1 15-8 21-8 7-17 8-20 3zM1521 1646c-7-8-8-17-3-20 6-3 15 1 21 8 7 8 8 17 3 20-6 3-15-1-21-8zM501 1636c-7-8-8-17-3-20 6-3 15 1 21 8 7 8 8 17 3 20-6 3-15-1-21-8zM924 1576c-4-10-2-22 4-28 8-8 13-7 18 6 4 10 2 22-4 28-8 8-13 7-18-6zM2026 1541c-4-5-2-12 4-16s8-10 5-15-1-11 4-14c5-4 12-2 15 3 4 5 2 12-4 16s-8 10-5 15 1 11-4 14c-5 4-12 2-15-3zM1895 1480c-4-6-3-16 3-22s12-6 17 2c4 6 3 16-3 22s-12 6-17-2zM176 1471c-4-5-2-12 4-16 5-3 10-3 10 1 0 3 6 1 14-5 10-8 16-9 21-1 3 5 4 11 1 11-3 1-9 2-13 3-5 1-13 5-20 9-6 4-14 3-17-2zM685 1440c-4-6-3-16 3-22s12-6 17 2c4 6 3 16-3 22s-12 6-17-2zM2085 1441c-3-6 3-15 14-21 12-6 22-6 26-1 3 6-3 15-14 21-12 6-22 6-26 1zM396 1362c-3-6 1-15 8-21 8-7 17-8 20-3 3 6-1 15-8 21-8 7-17 8-20 3zM1674 1216c-4-10-2-22 4-28 8-8 13-7 18 6 4 10 2 22-4 28-8 8-13 7-18-6zM795 923c-11-2-56-11-100-19-120-23-222-75-269-137-77-101-16-222 164-321 57-31 66-40 68-66 1-17 18-72 37-123 18-50 37-105 41-122 11-46 52-102 86-116 17-7 54-12 82-11 28 0 172 2 319 4l269 3 23 27c13 15 26 45 30 67 4 23 11 43 16 47 5 3 9 13 9 22s7 30 15 46c8 15 15 35 15 42 0 8 6 16 13 18 196 57 277 130 277 251 0 55-89 156-187 211-176 99-546 186-784 183-57-1-113-3-124-6zm360-58c285-42 548-138 637-232 52-54 63-132 27-189-20-33-110-85-171-100-32-7-32-7-13 66 25 92 22 105-42 169-129 126-361 203-618 202-126 0-213-19-262-57-56-43-65-65-66-163l-1-90-49 27C344 635 412 805 744 865c98 18 291 18 411 0zM986 733c10-15 15-16 25-5 26 25 194 7 314-33 55-19 160-68 188-89 13-10 19-35 24-106l6-93-25 17c-46 30-39 0 7-32 29-20 45-39 45-53 0-37-82-253-104-273-21-18-46-19-246-4-8 0-85-7-171-18-138-16-160-16-194-3-50 19-74 53-85 120-4 30-20 86-34 125-51 141-68 353-32 393 23 26 89 51 157 61 88 13 111 11 125-7zm624-243c0-15-3-42-6-60-10-48-24-17-24 54 0 51 2 57 15 46 8-7 15-25 15-40z"/><path d="M875 560c-3-5 0-13 8-16 23-8 82 0 82 11 0 14-82 19-90 5zM762 538c-7-7-12-9-12-5s-9 3-20-3-18-15-15-21c4-5 15-4 28 3 12 7 25 12 29 13 12 0 19 13 10 19-5 3-14 0-20-6zM1111 516c-7-8-8-17-3-20 6-3 15 1 21 8 7 8 8 17 3 20-6 3-15-1-21-8z"/></g><g id="layer103" fill="#aeafaf"><path d="M175 1710c-3-5 0-13 9-16 21-8 71-1 71 11 0 14-72 19-80 5zM122 1698c-7-7-12-9-12-5s-9 3-20-3-18-15-15-21c4-5 15-4 28 3 12 7 25 12 29 13 12 0 19 13 10 19-5 3-14 0-20-6zM285 1700c-3-5-4-11-1-11 3-1 9-2 14-3 4-1 17-7 29-14 13-7 24-8 28-3 3 6-4 15-15 21s-20 8-20 4c0-3-6-1-14 5-10 8-16 9-21 1zM555 1671c-7-12 12-24 25-16 11 7 4 25-10 25-5 0-11-4-15-9zM606 1671c-4-5-2-12 4-16 5-3 10-3 10 1 0 3 6 1 14-5 10-8 16-9 21-1 3 5 4 11 1 11-3 1-9 2-13 3-5 1-13 5-20 9-6 4-14 3-17-2zM745 1666c-11-8-14-16-8-19 6-4 18 0 28 7 11 8 14 16 8 19-6 4-18 0-28-7zM1064 1668c-6-9-4-10 26-11 11-1 19 3 18 8-4 12-37 14-44 3zM1545 1668c-23-13-8-30 15-18 11 6 23 9 29 8 5-2 8 1 8 7-2 12-31 14-52 3zM1724 1668c-5-8 3-12 18-9 7 1 45-49 47-61 1-5 2-10 2-13 1-3 2-9 3-15 0-5 4-10 9-10h13c4 0 2 6-4 13-6 6-11 15-11 20-1 4-1 8-2 10 0 1-2 10-4 20-7 39-56 70-71 45zM2036 1671c-4-5-2-12 4-16 5-3 10-3 10 1 0 3 6 1 14-5 10-8 16-9 21-1 3 5 4 11 1 11-3 1-9 2-13 3-5 1-13 5-20 9-6 4-14 3-17-2zM36 1651c-10-11-13-22-8-25s17 3 26 13c10 11 13 22 8 25s-17-3-26-13zM1135 1661c-3-6 3-15 14-21 12-6 22-6 26-1 3 6-3 15-14 21-12 6-22 6-26 1zM1971 1656c-7-8-8-17-3-20 6-3 15 1 21 8 7 8 8 17 3 20-6 3-15-1-21-8zM1447 1652c-4-5 9-23 27-41 19-18 36-29 39-23 4 5-9 23-27 41-19 18-36 29-39 23zM855 1640c-3-4 1-13 9-19 10-9 16-8 26 4 7 8 11 15 9 16-31 6-40 6-44-1zM2095 1641c-3-6 3-15 14-21 12-6 22-6 26-1 3 6-3 15-14 21-12 6-22 6-26 1zM1384 1576c-8-21 3-49 16-41 5 3 10 15 10 25 0 25-18 36-26 16zM84 1566c-8-21 3-49 16-41 5 3 10 15 10 25 0 25-18 36-26 16zM424 1546c-4-10-2-22 4-28 8-8 13-7 18 6 4 10 2 22-4 28-8 8-13 7-18-6zM1247 1533c-4-3-2-12 4-20 6-7 8-13 5-13-4 0-2-9 4-20s15-18 21-15c5 4 4 15-3 28-7 12-12 25-13 29 0 11-11 18-18 11zM322 1500c-23-31-14-51 10-22 23 27 29 40 20 46-5 3-18-8-30-24zM1097 1524c-9-10 32-86 43-79 6 4 1 23-10 46-22 41-23 43-33 33zM1816 1521c-4-5-2-12 4-16s8-10 5-15-1-11 4-14c5-4 12-2 15 3 4 5 2 12-4 16s-8 10-5 15 1 11-4 14c-5 4-12 2-15-3zM656 1502c-3-6 1-15 8-21 8-7 17-8 20-3 3 6-1 15-8 21-8 7-17 8-20 3zM265 1456c-11-8-14-16-8-19 6-4 18 0 28 7 11 8 14 16 8 19-6 4-18 0-28-7zM1555 1460c-8-13 13-52 25-45 9 6 2 43-11 50-4 3-10 1-14-5zM2066 1462c-3-6 1-15 8-21 8-7 17-8 20-3 3 6-1 15-8 21-8 7-17 8-20 3zM855 1446c-18-13-18-14 3-25 12-6 22-10 23-9 11 42 1 54-26 34zM501 1416c-9-10-9-16-1-21 17-10 37 12 24 25-8 8-15 6-23-4zM175 1406c-11-8-14-16-8-19 6-4 18 0 28 7 11 8 14 16 8 19-6 4-18 0-28-7zM1085 1410c-4-6-3-16 3-22s12-6 17 2c4 6 3 16-3 22s-12 6-17-2zM1157 1414c-3-4 10-38 30-78 21-39 38-74 39-78 1-5 3-10 4-13s3-9 4-15c0-5 4-10 9-10h13c4 0 1 7-6 15s-9 15-5 15 2 7-5 15-10 15-6 15c3 0-10 32-29 70-37 73-38 74-48 64zM1402 1397c-16-19-3-30 16-14 11 8 14 8 9 0-4-6-3-14 2-17 19-12 20 12 2 28-15 14-20 14-29 3zM1595 1400c-3-5 0-13 8-16 23-9 122 0 122 11 0 14-122 19-130 5zM1725 1381c-7-12 12-24 25-16 11 7 4 25-10 25-5 0-11-4-15-9zM1100 1360c-11-21-5-44 9-35 13 7 20 44 11 50-5 3-14-4-20-15zM417 1344c-9-10 22-66 33-59 6 4 4 18-5 36-17 31-18 32-28 23zM1647 1314c-9-10 22-66 33-59 6 4 4 18-5 36-17 31-18 32-28 23zM1107 1304c-4-4-3-12 1-18s7-14 8-18c1-5 3-10 4-13s4-9 5-15c1-5 4-12 5-15s3-9 4-15c0-5 4-10 9-10 7 0 8 4 6 15-1 3-3 10-4 15-1 6-4 12-5 15s-4 10-5 15c-1 6-4 12-5 15s-3 9-4 14c-2 14-12 22-19 15zM1577 1263c-4-3-2-12 4-20 6-7 8-13 5-13-4 0-2-9 4-20s15-18 21-15c5 4 4 15-3 28-7 12-12 25-13 29 0 11-11 18-18 11zM166 1242c-3-6 1-15 8-21 8-7 17-8 20-3 3 6-1 15-8 21-8 7-17 8-20 3zM335 1220c-4-6-10-8-15-5s-11 1-14-4c-4-5-2-12 3-15 5-4 12-2 16 4s10 8 15 5 11-1 14 4c4 5 2 12-3 15-5 4-12 2-16-4zM1156 1182c-3-6 1-15 8-21 8-7 17-8 20-3 3 6-1 15-8 21-8 7-17 8-20 3zM1245 1177c-9-22-2-62 10-60 6 1 11 14 13 29 4 32-14 56-23 31zM737 914c-3-3-4-11-1-18 3-8-16-16-53-24-84-17-172-63-215-110-21-23-38-47-38-52 0-6-6-10-14-8s-15 0-15-4c-1-5 2-7 5-5 4 1 13-18 20-43 8-29 28-60 56-87 54-53 157-115 181-109 13 3 17-2 17-20 0-13-4-23-9-22-5 2-9-1-10-7-1-5 4-10 10-10 7 0 20-27 29-60 24-87 49-140 59-129 6 5-3 44-20 94-20 59-28 101-27 135 3 47 5 51 43 70 31 15 63 20 143 22 57 1 106 4 109 7 12 11-51 26-111 26-80 0-162-24-197-59l-27-27-6 38c-6 34-2 86 10 145 6 33 62 70 129 88 71 19 248 21 350 5 234-37 463-160 477-258 2-18 2-35-1-38-10-10-39-124-32-128 9-5 53-1 79 8 12 4 21 4 20-1-2-4 1-8 7-8 5 0 9 5 8 10-2 6 20 22 47 37s60 44 72 63c13 19 30 34 38 32 8-1 15 4 15 11 0 6-4 12-9 11-14-1-26 24-21 42 14 44-51 126-145 184-181 110-546 192-817 183-78-3-140-2-138 3 6 9-10 21-18 13zm542-79c310-63 519-169 549-277 13-48-1-102-34-133-27-25-95-60-139-71-27-7-27-6-19 27 4 19 8 44 9 56 1 13 5 26 8 30 29 28-34 115-128 178-92 61-243 114-397 140-35 5-38 8-38 40s2 35 31 35c17 0 88-11 158-25zM397 653c-4-3-2-12 4-20 6-7 8-13 5-13-4 0-2-9 4-20s15-18 21-15c5 4 4 15-3 28-7 12-12 25-13 29 0 11-11 18-18 11z"/><path d="M1065 510c-8-13 20-24 41-16 20 8 9 26-16 26-10 0-22-5-25-10zM995 501c-7-12 12-24 25-16 11 7 4 25-10 25-5 0-11-4-15-9zM955 480c-4-6-3-16 3-22s12-6 17 2c4 6 3 16-3 22s-12 6-17-2zM1470 425c-7-8-10-16-6-16 3-1 11-3 16-4 6-1 14-3 18-4 5 0 22-15 39-32l32-30-47-132c-25-73-51-135-56-139-6-4-21-8-33-8s-25-5-28-10c-12-19 27-23 60-7 26 12 37 26 46 57 7 22 17 39 23 38 7-2 11 2 11 7 0 6-3 9-7 8-10-4-10-2 3 36 6 17 17 30 24 29 8-2 13 2 12 7-1 6-5 9-9 8-11-4-10 3 6 41 27 66 12 101-65 150-23 15-28 15-39 1zM1735 346c-11-8-14-16-8-19 6-4 18 0 28 7 11 8 14 16 8 19-6 4-18 0-28-7zM1085 271c-7-12 12-24 25-16 11 7 4 25-10 25-5 0-11-4-15-9zM1165 261c-7-12 12-24 25-16 11 7 4 25-10 25-5 0-11-4-15-9zM756 172c-3-5-3-30-1-56 4-49 20-80 36-70 5 3 8 0 7-8-4-15 186-22 292-10 60 6 64 9 64 32 0 17-11 32-39 52-51 34-121 62-140 54-37-14 2-105 46-107 8 0 3-5-11-11-34-14-138-10-172 8-30 15-58 61-58 93 0 21-15 36-24 23zM1181 66c-15-18 1-30 31-20 17 5 20 3 15-10-4-10-1-16 9-16 8 0 13 4 10 9s1 11 9 15c16 6 29-9 20-24-3-5 1-10 10-10s14 4 11 9 4 11 15 14c27 7 14 29-14 25-12-1-26 0-32 4-27 16-72 18-84 4z"/></g><g id="layer104" fill="#c60000"><path d="M967 734c-4-4-7-49-7-101 0-107-2-106 106-118 184-21 386-64 399-85 16-25 25 8 25 89 0 78-2 90-22 108-54 49-112 66-311 88-73 9-143 18-157 21-14 2-29 2-33-2zM961 471c-6-11-11-56-11-100 0-66 3-82 18-90 9-5 76-16 147-25 167-22 253-40 311-65 25-12 50-18 55-15s9 45 9 95v89l-41 29c-49 36-125 54-319 76-79 9-148 19-152 21-4 3-12-4-17-15z"/></g><g id="layer105" fill="#f1f1f1"><path d="M160 1724c-58-11-70-15-99-40-45-38-28-47 31-16 41 21 65 26 123 26 124 0 204-59 209-154 3-51 13-60 26-24 24 61-20 153-90 189-28 14-157 27-200 19zM560 1693c-24-9-70-55-64-64 2-4 20 1 40 13 43 25 92 20 138-16l33-25 25 30c31 34 55 36 107 9 38-19 39-19 56 0 24 27 55 25 101-6l38-26 19 26c21 29 35 31 91 11 34-12 42-12 60 1 29 20 58 17 99-10l36-25 16 25c25 38 70 30 127-24 24-22 28-23 34-8 12 31-67 96-116 96-11 0-28-8-38-18-18-18-20-18-53 0-40 21-65 22-98 4-21-11-30-11-57 0-47 20-67 17-94-11l-23-24-29 24c-35 30-78 32-103 6-17-20-17-20-53 0-49 25-74 24-111-7l-30-25-29 21c-29 22-95 34-122 23z"/><path d="M1541 1674c-34-29-32-53 2-29 29 20 43 19 106-10 36-17 58-22 64-16 14 14-10 41-58 62-54 25-78 24-114-7zM1725 1680c-10-11-14-20-9-21s18-2 29-3c15-1 26-21 51-86 30-82 46-101 52-62 4 24-43 150-65 174-21 23-36 23-58-2zM1986 1679c-34-27-25-40 18-27 29 9 41 7 77-11 28-15 45-19 52-12 13 13-6 37-44 57-39 20-72 18-103-7zM2145 1680c-10-11-16-20-14-21s23-2 46-3c47-2 103-45 103-77 0-10 5-21 10-24 6-4 10 12 10 39 0 42-3 48-42 76-48 35-87 38-113 10zM1870 1585c-22-23-20-31 5-25 6 2 26 6 45 9 44 8 48 35 5 39-22 2-37-4-55-23zM2030 1591c-16-31 4-95 45-139 26-28 37-34 46-25s4 20-19 50c-28 35-39 60-46 106-4 27-14 30-26 8zM97 1594c-4-4-7-24-7-45 0-44 25-67 103-93 66-22 81-20 122 15 41 37 37 59-6 27-27-20-33-21-77-9-68 18-106 43-110 72-4 28-15 42-25 33zM787 1594c-24-24 17-133 60-161 40-26 48-2 14 41-17 21-35 54-42 74-13 42-22 55-32 46zM934 1585c-8-21 13-165 27-179 17-19 22 29 10 103-14 81-26 106-37 76zM1244 1587c-21-57 62-195 96-161 8 8 3 21-20 45-17 19-36 52-42 74-14 50-25 64-34 42zM1396 1593c-10-10-7-74 8-135 9-39 10-60 3-67-14-14 12-23 55-19 40 4 46 31 7 36-24 3-26 8-39 93-12 86-20 106-34 92zM2175 1589c-4-6-2-47 5-92 16-107 18-113 32-99 13 13 13 67-2 139-12 54-23 72-35 52zM1096 1583c-16-17 0-64 63-186 45-86 74-155 81-195 13-66 26-85 37-56 14 37-19 141-88 271-38 73-69 139-69 147 0 17-14 28-24 19zM554 1565c-8-19 3-90 17-116 5-10 18-23 29-29 30-16 37 13 11 46-12 15-24 44-27 66-7 43-21 58-30 33zM1554 1555c-10-26 2-112 20-139 15-23 23-26 79-26 35 0 68-5 75-12 9-9 13-7 18 5 12 31-14 47-76 47-69 0-78 9-87 79-6 54-19 74-29 46zM625 1520c-9-14 3-30 24-30 10 0 24-15 34-36 18-38 37-38 37 0 0 50-74 101-95 66zM1904 1496c-9-24 8-108 21-104 6 2 9 25 8 52-3 54-18 81-29 52zM377 1440c-28-18-11-28 59-35 66-8 100 3 78 24-15 15-117 23-137 11zM1795 1437c-9-22-2-62 10-60 6 1 11 14 13 29 4 32-14 56-23 31zM121 1380c-45-44-47-79-2-37 14 13 38 32 53 42 28 17 29 35 4 35-8 0-32-18-55-40zM1095 1391c-14-24 35-189 65-216 17-16 20-16 26-2 3 8-1 26-9 39-9 13-25 57-37 98-23 80-34 98-45 81zM347 1384c-11-12 3-24 28-24 29 0 56-37 64-88 8-49 25-47 29 3 4 58-31 109-79 113-19 2-38 0-42-4zM1636 1341c-4-5 3-26 15-45 12-20 23-58 25-84s3-49 4-52c0-3 7 4 15 14 21 28 18 75-7 126-23 45-41 59-52 41zM1565 1330c-8-13 19-108 39-135 11-15 17-17 27-8 9 9 7 21-10 55-11 25-21 51-21 60 0 21-26 42-35 28zM153 1274c-8-22 44-73 84-80 65-12 157 24 139 55-6 9-11 9-23-1-9-7-42-13-75-13-54 0-63 3-82 28-25 31-34 33-43 11zM1077 872c-3-4-7-27-8-51l-4-45 110-22c194-38 326-96 412-180 60-59 61-65 33-169-10-38-15-73-12-77 11-11 121 31 169 63 50 35 76 78 76 129 0 136-217 262-574 335-128 25-194 31-202 17z"/><path d="M787 536c-104-28-119-82-68-235 16-47 32-107 36-133 9-58 35-102 77-129 29-18 44-20 118-15 148 10 225 18 236 27 6 5 45 1 88-7 88-18 175-12 204 14 11 9 40 77 65 150l46 132-34 35c-54 53-68 58-94 31-19-20-20-24-6-36 11-9 15-33 15-96v-83l-45 20c-48 21-147 44-230 53-71 8-123 15-175 24l-45 8-3 91-3 92 38 6c99 17 115 21 116 30 2 13-137 34-223 34-36 0-87-6-113-13zm280-418c53-26 61-33 47-41-21-12-99-3-119 13-17 14-20 60-4 60 6 0 41-14 76-32z"/></g><g id="layer106" fill="#191919"><path d="M127 1698c-21-6-56-27-78-48-36-34-39-41-39-93 0-53 2-57 42-91 23-20 59-42 80-48s38-14 38-17c-1-3-23-24-50-46-47-38-50-43-50-87 0-90 80-147 205-148 53 0 78 5 105 21 55 33 70 57 70 116 0 42-5 58-27 84l-27 32 34-6c19-3 76-9 125-13 83-6 92-4 118 16 34 27 36 75 6 114-36 46-88 22-68-31 9-25-2-31-19-10-14 17-29 86-24 114 2 14 13 25 28 29 39 10 90-31 120-96 28-61 65-104 106-126 31-16 74-18 83-4 3 6 14 10 24 10 36 0 40 20 24 113-8 49-12 91-10 94 3 2 17-3 31-12 23-15 26-24 26-72 0-133 61-311 128-376 47-45 76-53 107-33 51 34 24 158-70 326-55 99-72 141-60 159 13 22 42-9 64-67 34-96 134-174 182-143 22 13 32 14 25 2-10-15 25-35 71-41 45-5 45-5 62-60 33-106 67-150 117-150 23 0 38 7 48 22 22 31 20 101-4 150-11 23-20 43-20 45s17 3 38 3 42 4 47 9c6 5 24 11 40 13 22 2 31 9 33 24 3 22 3 22 27-2 26-26 66-32 83-11 7 8 7 28 2 57-13 66-12 70 13 70 15 0 29-12 45-40 40-70 144-126 167-90 3 6 17 10 31 10 35 0 39 21 22 116-8 47-11 87-7 90 5 2 26-11 47-30 22-20 42-33 46-29 3 3 6 26 6 50 0 39-4 46-42 73-47 35-87 38-112 11-18-19-18-19-49 0-18 10-44 19-59 19-32 0-88-45-88-71 0-14-7-19-25-19-32 0-75-27-75-47 0-28-19-2-36 50-27 86-56 105-94 67l-20-20-40 20c-21 11-51 20-65 20-29 0-87-38-79-52 11-17-10-7-43 22-40 35-82 39-108 10-18-20-18-20-50 0-38 24-88 26-105 5-11-13-16-13-47 0-50 21-76 19-103-10l-23-24-29 24c-35 30-78 32-102 6-18-19-18-19-49 0-44 26-85 24-118-7l-26-25-38 25c-57 39-106 36-157-12-37-35-40-42-40-90 0-32 8-67 20-93l21-41-37 6c-20 3-48 6-61 6h-24l22 24c63 68 27 187-73 238-48 25-151 33-209 16zm153-94c68-27 81-84 29-128-37-31-39-31-116-5-72 24-96 46-91 86 6 55 98 79 178 47zm549-33c6-10 15-39 20-63 6-25 13-53 17-64 4-13-4-9-25 13-30 32-57 105-46 123 10 15 23 12 34-9zm457 7c4-6 13-35 20-62 6-28 15-59 19-69 6-13 4-16-10-11-20 8-65 98-65 132 0 23 24 30 36 10zm782-1c6-7 16-35 22-62 6-28 16-58 21-68 9-16 7-17-11-7-26 14-60 81-60 120 0 32 11 38 28 17zm-621-29c27-29 32-42 35-95 3-65-2-73-41-73-13 0-18 9-19 34-1 18-6 53-11 77-13 54-14 89-3 89 4 0 22-15 39-32zm208 9c36-20 41-29 56-88 9-36 20-72 24-80 6-11 5-12-6-1-7 7-39 12-72 12-45 0-63 4-73 18-14 18-20 143-7 155 12 12 37 7 78-16zM336 1353c1-16 8-46 17-68 15-38 15-41-5-57-26-23-124-25-156-2-26 18-29 56-6 75 21 18 126 76 139 78 6 0 11-11 11-26zm819-114c13-38 20-67 15-64-10 6-44 94-54 140-10 48 12 6 39-76zm454 8c11-26 16-47 10-47-10 0-24 31-35 78-9 38 1 25 25-31zM1057 942c-26-4-48-11-48-17 0-5 37-15 83-22 310-44 556-123 681-218 25-19 59-56 73-82l28-46 18 23c53 65-12 170-149 239-165 83-516 146-686 123zM1060 507c-63-9-85-16-85-27 0-16 11-18 228-45 71-8 154-24 185-35 56-18 57-18 76 0 39 38 0 66-135 94-111 23-174 26-269 13z"/></g></svg>