<svg xmlns="http://www.w3.org/2000/svg" viewBox="0 0 256 256" preserveAspectRatio="xMinYMin meet" id="svg82"><style id="style2"></style><radialGradient id="shadow_1_" cx="125.97" cy="125.709" r="129.906" gradientTransform="matrix(1 0 0 .3673 0 79.541)" gradientUnits="userSpaceOnUse"><stop offset=".694" stop-color="#afadae" id="stop4"/><stop offset=".968" stop-color="#afadae" stop-opacity="0" id="stop6"/></radialGradient><radialGradient id="brim_1_" cx="178.61" cy="90.852" r="177.391" gradientTransform="matrix(-.9856 .1689 -.09166 -.535 362.983 159.296)" gradientUnits="userSpaceOnUse"><stop offset=".476" stop-color="#f3efe9" id="stop9"/><stop offset=".568" stop-color="#eeeae3" id="stop11"/><stop offset=".688" stop-color="#e1dbd2" id="stop13"/><stop offset=".824" stop-color="#cdc5b7" id="stop15"/><stop offset=".963" stop-color="#b4aa98" id="stop17"/></radialGradient><path id="brim_4_" d="M2.9 177.8s-20.6-40 47.4-62.4c31.8-10.5 69.1-17.4 102.4-18.6 38-1.3 71.7 5.3 86.4 27.7 10.6 16.2 4.2 36-16.3 51.4-12.3 9.2-39.3 18.4-57.3 23.6-18 5.1-53.3 12-82.2 10.4-28.9-1.6-64.8-5.8-80.4-32.1z" fill="#d7d0c6"/><path id="brim_hl" d="M2.9 177.8s-20.6-40 47.4-62.4c31.8-10.5 69.1-17.4 102.4-18.6 38-1.3 71.7 5.3 86.4 27.7 10.6 16.2 4.2 36-16.3 51.4-12.3 9.2-39.3 18.4-57.3 23.6-18 5.1-53.3 12-82.2 10.4-28.9-1.6-64.8-5.8-80.4-32.1zm81 30.9c28.2 1.6 62.6-5.2 80.1-10.2 17.5-5 44.2-13.6 56.2-22.6 20-15 28.1-33.7 16.9-50.9-14.2-22-48.7-28.8-85.7-27.5-32.4 1.1-68.8 8.8-99.8 19-66.3 21.9-46.2 60.9-46.2 60.9 15.3 25.6 50.3 29.7 78.5 31.3z" fill="#cec7bc"/><linearGradient id="crown_1_" gradientUnits="userSpaceOnUse" x1="53.662" y1="47.58" x2="197.066" y2="58.425" gradientTransform="translate(0 50)"><stop offset=".094" stop-color="#d7d0c6" id="stop22"/><stop offset=".248" stop-color="#cdc7bb" id="stop24"/><stop offset=".401" stop-color="#c7c2b5" id="stop26"/><stop offset=".525" stop-color="#cbc6ba" id="stop28"/><stop offset=".669" stop-color="#d7d1c7" id="stop30"/><stop offset=".78" stop-color="#e6dfd6" id="stop32"/><stop offset=".892" stop-color="#e7e3d9" id="stop34"/><stop offset=".934" stop-color="#e5dfd3" id="stop36"/><stop offset=".98" stop-color="#dfd5c6" id="stop38"/></linearGradient><path id="crown_4_" d="M57.3 145.9c-5.9-4.3-14.2-25.4-11-30 3.2-4.6 8-14.2 10.7-23.6 2.7-9.3 6.5-29.1 14-36.1s18.7-7 33.5-5.4c14.7 1.6 57.8 9.4 68.3 13.1 10.4 3.7 24 10.7 23.2 27-.8 16.3.7 24.4-1.2 33.5-1.9 9.1-21.7 26.8-46.6 28.1-25 1.5-85-2.3-90.9-6.6z" fill="#d7d0c6"/><radialGradient id="side-dent_1_" cx="110.123" cy="23.771" r="53.767" gradientTransform="matrix(.08816 .9961 -2.6842 .2376 164.222 -41.57)" gradientUnits="userSpaceOnUse"><stop offset=".067" stop-color="#b2a797" id="stop42"/><stop offset=".29" stop-color="#c7bdae" id="stop44"/><stop offset=".481" stop-color="#d6cebf" id="stop46"/><stop offset=".688" stop-color="#e2dcd0" id="stop48"/><stop offset=".942" stop-color="#f7f5ee" id="stop50"/></radialGradient><linearGradient id="gutter-dent_1_" gradientUnits="userSpaceOnUse" x1="69.277" y1="15.553" x2="177.061" y2="15.553" gradientTransform="translate(0 50)"><stop offset=".056" stop-color="#f7f5ee" id="stop54"/><stop offset=".226" stop-color="#e6e1d6" id="stop56"/><stop offset=".43" stop-color="#d8d1c3" id="stop58"/><stop offset=".639" stop-color="#d0c8b9" id="stop60"/><stop offset=".857" stop-color="#cec5b5" id="stop62"/></linearGradient><linearGradient id="ribbon_1_" gradientUnits="userSpaceOnUse" x1="42.47" y1="94.53" x2="196.375" y2="94.53" gradientTransform="translate(0 50)"><stop offset=".018" stop-color="#262222" id="stop66"/><stop offset=".096" stop-color="#2f2c2c" id="stop68"/><stop offset=".3" stop-color="#424143" id="stop70"/><stop offset=".402" stop-color="#4a4a4c" id="stop72"/><stop offset=".514" stop-color="#4a4a4c" id="stop74"/><stop offset=".78" stop-color="#383536" id="stop76"/><stop offset="1" stop-color="#262222" id="stop78"/></linearGradient><path id="ribbon_5_" d="M195.6 121.7c-.3 0-.4.9-.8 1.4-3.3 5.4-13.1 14.6-35.4 14.6H98.8c-38.2 0-49.3-10.3-52.1-17.7-.2-.7-.5-1.6-.8-1.6-.3 0-.5 1.6-.5 1.6l-2.9 27.7c0 12.7 32.9 23 75.2 23 42.3 0 78.6-6 78.6-23 0 0 .2-16.9.1-24.4 0-.8-.1-1.6-.8-1.6z" fill="#262222"/></svg>